<svg width="563" height="456" viewBox="0 0 563 456" fill="none" xmlns="http://www.w3.org/2000/svg">
<rect width="563" height="456" rx="31" fill="url(#paint0_linear_2121_8)"/>
<path d="M274.32 185.656L283.267 184.041L287.211 185.824L291.033 184.931L293.575 187.869L293.605 190.506L291.59 192.658L285.043 194.089L284.6 193.355L286.709 190.258L283.285 187.439L277.511 188.87L273.587 187.532L274.32 185.656Z" fill="#84A3FF"/>
<path d="M370.147 234.202L363.147 235.66L354.859 237.773L349.521 241.304L343.88 243.666L339.216 248.521L336.227 250.752L334.331 252.025L332.124 256.446L329.608 260.081L323.052 260.305L321.052 254.809L317.338 255.584L313.896 257.841L312.367 256.7L310.629 253.447L308.27 252.555L306.085 254.471L306.548 256.636L303.734 258.722L299.131 257.424L295.342 254.067L294.754 247.638L300.004 244.672L302.198 244.948L304.295 243.596L305.806 240.355L308.495 239.528L315.137 242.675L316.229 241.717L313.27 238.11L310.891 236.773L309.076 233.323L313.622 226.395L310.269 219.613L311.564 215.625L311.16 210.259L312.66 208.763L314.904 203.647L314.178 202.191L311.566 204.198L310.155 203.162L308.259 204.435L305.811 207.059L305.695 204.003L310.57 198.308L310.938 195.894L315.85 197.979L318.44 198.477L320.404 196.194L317.881 194.686L312.581 194.569L305.388 192.773L299.14 192.801L294.555 194.901L291.141 194.272L287.968 195.44L288.075 196.306L291.013 201.435L292.82 202.694L294.927 209.056L289.685 208.69L288.631 206.001L283.892 206.723L281.106 205.923L279.095 201.188L281.669 194.352L279.293 190.063L277.541 191.507L275.327 190.785L273.093 188.634L271.805 189.291L272.946 192.4L271.245 193.974L266.392 188.688L264.419 188.781L261.334 189.385L259.478 192.534L265.086 193.438L267.716 195.812L258.451 195.433L251.082 193.782L247.706 189.506L242.328 191.16L240.374 195.634C240.374 195.634 239.358 197.772 238.718 198.704C238.079 199.635 235.034 202.116 235.034 202.116L236.252 205.421L232.403 208.216L233.978 209.869L240.99 206.667L246.618 208.017L250.611 213.867L252.224 220.347L256.305 225.633L256.999 236.863L264.289 249.744L270.584 255.751L276.442 259.659L279.219 258.268L276.532 256.143L273.777 255.029L270.385 251.894L271.71 250.543L278.227 254.949L283.576 259.133L286.524 263.501L292.441 265.192L301.134 265.492L311.628 261.908L316.067 262.589L319.965 263.861L324.296 263.677L328.726 262.167L332.4 259.516C332.4 259.516 333.347 261.339 333.975 262.153C334.535 262.992 334.033 267.426 334.033 267.426L334.447 272.031L338.324 274.825L343.119 273.853L352.085 275.635L355.17 275.031L356.853 277.549L357.918 278.494C370.106 267.209 378.484 253.104 382.681 237.991L381.94 236.692L380.994 225.41L377.744 225.398L370.147 234.202Z" fill="#84A3FF"/>
<path d="M343.095 156.124L339.033 154.236L334.121 152.151L330.003 147.56L333.409 145.998L332.462 144.175L330.113 145.474L331.448 143.362L332.696 140.829L331.574 139.15L327.676 137.879L324.753 134.56C300.783 127.612 273.803 130.924 251.2 145.989C240.9 152.826 232.613 161.447 226.282 171.117L232.102 171.182L231.744 175.786L228.919 178.634L231.636 183.395L230.564 184.799L230.109 187.777L232.332 190.689L235.485 189.075L236.219 192.722L239.151 190.74L239.898 181.216L238.649 178.225L243.214 174.695L243.041 171.888L247.663 168.108L246.243 164.882L249.716 162.31C249.716 162.31 251.372 159.239 251.856 158.898C252.34 158.557 255.348 157.756 255.348 157.756L259.314 158.018L262.931 155.616L264.798 151.706L268.987 149.383C268.987 149.383 270.439 149.344 271.299 148.779C272.16 148.215 273.959 145.315 273.959 145.315L280.943 144.999L284.018 145.156L285.7 147.674L288.477 146.283L288.293 144.237L291.203 143.777L291.929 145.233L287.692 149.996L293.088 151.74L301.53 151.003L306.355 152.668L310.369 150.49L310.107 148.246L311.231 146.974L304.51 146.581L301.532 148.051L303.321 145.913L299.346 144.444L302.159 142.358L307.294 141.858L310.882 145.294L314.265 146.238L319.099 150.094L324.717 150.237L328.515 155.786L334.191 155.68L335.255 157.608L336.232 160.1L339.316 162.448L340.67 163.733L343.967 162.289L343.408 158.498L343.095 156.124Z" fill="#84A3FF"/>
<path d="M333.872 137.72L334.551 138.665L335.518 141.918L337.607 143.898L339.92 143.294L342.086 146.456L339.429 146.968L345.037 156.347L345.471 161.397L350.053 165.201L353.668 165.751L359.827 174.762L366.874 180.323L372.908 184.087L377.539 182.499L376.641 178.235L376.945 177.435C375.35 174.352 373.596 171.257 371.507 168.292C361.89 154.205 348.675 143.949 333.872 137.72Z" fill="#84A3FF"/>
<path d="M293.473 163.166L278.824 165.806L273.939 169.309L274.961 173.297L271.403 172.498L268.172 175.883L271.567 181.589L276.187 181.746L276.2 177.049L280.531 177.848L288.869 178.817L293.218 183.015L301.467 185.532L307.852 179.548L305.995 177.174L302.504 175.364L297.641 168.872L297.391 164.883L293.473 163.166Z" fill="#84A3FF"/>
<path d="M305.243 160.671L302.244 161.695L301.238 165.04L305.763 169.093L307.968 167.623L305.243 160.671Z" fill="#84A3FF"/>
<path d="M323.397 153.176L315.486 154.083L312.906 152.824L311.927 154.268L315.407 156.838L319.391 160.497L322.584 159.775L322.652 158.765L319.449 157.296L325.048 156.01L323.397 153.176Z" fill="#84A3FF"/>
<path d="M314.315 247.083L314.046 248.172L320.253 246.269L323.889 247.265L327.418 245.428L327.363 242.725L322.979 244.746L314.315 247.083Z" fill="#84A3FF"/>
<path d="M331.742 240.1L328.83 243.512L330.215 244.482L334.693 241.517L334.627 239.575L333.251 240.795L331.742 240.1Z" fill="#84A3FF"/>
<path d="M369.001 283.626C404.049 247.898 402.912 191.133 366.462 156.837C330.011 122.541 272.05 123.701 237.002 159.429C201.954 195.157 203.091 251.922 239.541 286.218C275.992 320.514 333.953 319.353 369.001 283.626Z" stroke="#9BDEFF" stroke-width="2" stroke-miterlimit="10" stroke-linecap="round" stroke-linejoin="round"/>
<path d="M304.777 311.166C336.475 310.531 361.368 269.877 360.376 220.362C359.384 170.847 332.884 131.222 301.187 131.857C269.489 132.492 244.597 173.146 245.588 222.661C246.58 272.175 273.08 311.8 304.777 311.166Z" stroke="#9BDEFF" stroke-miterlimit="10" stroke-linecap="round" stroke-linejoin="round"/>
<path d="M304.777 311.166C316.319 310.935 324.871 270.608 323.88 221.093C322.888 171.578 312.728 131.626 301.186 131.857C289.645 132.089 281.092 172.415 282.084 221.93C283.075 271.445 293.235 311.397 304.777 311.166Z" stroke="#9BDEFF" stroke-miterlimit="10" stroke-linecap="round" stroke-linejoin="round"/>
<path d="M251.292 148.139L352.224 146.118" stroke="#D9F2FF" stroke-miterlimit="10" stroke-linecap="round" stroke-linejoin="round"/>
<path d="M218.229 187.897L386.095 184.535" stroke="#9BDEFF" stroke-miterlimit="10" stroke-linecap="round" stroke-linejoin="round"/>
<path d="M254.27 296.821L355.201 294.8" stroke="#9BDEFF" stroke-miterlimit="10" stroke-linecap="round" stroke-linejoin="round"/>
<path d="M219.791 258.342L388.186 254.969" stroke="#9BDEFF" stroke-miterlimit="10" stroke-linecap="round" stroke-linejoin="round"/>
<path d="M394.524 219.679L211.515 223.344" stroke="#9BDEFF" stroke-miterlimit="10" stroke-linecap="round" stroke-linejoin="round"/>
<path d="M279.945 385.225C279.945 386.602 279.536 387.949 278.771 389.094C278.005 390.239 276.918 391.131 275.645 391.658C274.372 392.185 272.972 392.322 271.621 392.052C270.27 391.783 269.03 391.119 268.056 390.144C267.083 389.169 266.421 387.928 266.153 386.577C265.886 385.226 266.025 383.826 266.554 382.554C267.082 381.282 267.976 380.195 269.122 379.431C270.269 378.667 271.616 378.261 272.993 378.263C274.838 378.265 276.606 379 277.909 380.305C279.213 381.611 279.945 383.38 279.945 385.225Z" fill="white"/>
<path d="M412.487 259.938C412.489 261.315 412.083 262.663 411.318 263.809C410.554 264.956 409.467 265.85 408.194 266.378C406.922 266.906 405.521 267.045 404.17 266.776C402.818 266.508 401.577 265.845 400.602 264.871C399.628 263.896 398.965 262.655 398.697 261.303C398.428 259.952 398.567 258.551 399.095 257.279C399.623 256.006 400.517 254.919 401.664 254.155C402.81 253.39 404.158 252.984 405.535 252.986C407.379 252.986 409.147 253.718 410.451 255.022C411.755 256.326 412.487 258.094 412.487 259.938Z" fill="white"/>
<path d="M477.693 181.485C477.693 182.862 477.284 184.208 476.519 185.353C475.754 186.498 474.667 187.39 473.395 187.917C472.123 188.444 470.723 188.582 469.372 188.313C468.022 188.045 466.781 187.382 465.808 186.408C464.834 185.434 464.171 184.194 463.902 182.843C463.634 181.493 463.772 180.093 464.298 178.821C464.825 177.549 465.718 176.461 466.863 175.696C468.008 174.931 469.354 174.523 470.731 174.523C471.645 174.522 472.551 174.701 473.396 175.05C474.242 175.4 475.01 175.912 475.657 176.559C476.303 177.206 476.816 177.974 477.166 178.819C477.515 179.664 477.694 180.57 477.693 181.485Z" fill="white"/>
<path d="M402.059 188.7C402.059 190.077 401.651 191.423 400.886 192.568C400.121 193.713 399.034 194.605 397.762 195.132C396.489 195.659 395.09 195.797 393.739 195.528C392.389 195.26 391.148 194.596 390.174 193.623C389.201 192.649 388.538 191.409 388.269 190.058C388 188.708 388.138 187.308 388.665 186.036C389.192 184.763 390.084 183.676 391.229 182.911C392.374 182.146 393.72 181.738 395.097 181.738C396.944 181.738 398.715 182.471 400.02 183.777C401.326 185.083 402.059 186.853 402.059 188.7Z" fill="white"/>
<path d="M343.311 94.3529C343.313 95.7303 342.907 97.0773 342.143 98.2236C341.379 99.3698 340.292 100.264 339.02 100.792C337.748 101.321 336.348 101.46 334.997 101.193C333.646 100.925 332.404 100.263 331.43 99.2895C330.455 98.3162 329.791 97.0757 329.521 95.7249C329.252 94.3741 329.389 92.9738 329.916 91.701C330.443 90.4283 331.335 89.3404 332.48 88.5749C333.625 87.8095 334.972 87.4009 336.349 87.4009C337.263 87.3996 338.168 87.5784 339.013 87.9272C339.857 88.2759 340.625 88.7878 341.271 89.4335C341.918 90.0792 342.431 90.846 342.781 91.6901C343.131 92.5342 343.311 93.4391 343.311 94.3529Z" fill="white"/>
<path d="M296.345 57.4911C296.347 58.8685 295.94 60.2155 295.176 61.3617C294.413 62.508 293.326 63.4019 292.054 63.9304C290.782 64.4589 289.382 64.5982 288.031 64.3307C286.68 64.0632 285.438 63.4009 284.463 62.4277C283.489 61.4544 282.825 60.2139 282.555 58.8631C282.286 57.5123 282.423 56.112 282.95 54.8392C283.476 53.5665 284.369 52.4785 285.514 51.7131C286.659 50.9476 288.005 50.5391 289.383 50.5391C290.297 50.5377 291.202 50.7166 292.046 51.0654C292.891 51.4141 293.658 51.926 294.305 52.5717C294.952 53.2174 295.465 53.9842 295.815 54.8283C296.165 55.6724 296.345 56.5773 296.345 57.4911Z" fill="white"/>
<path d="M166.531 148.928C166.531 150.305 166.122 151.652 165.357 152.797C164.591 153.942 163.503 154.834 162.23 155.361C160.958 155.888 159.557 156.025 158.207 155.755C156.856 155.486 155.615 154.822 154.642 153.847C153.669 152.873 153.006 151.631 152.739 150.28C152.472 148.929 152.611 147.529 153.139 146.257C153.668 144.985 154.562 143.898 155.708 143.134C156.854 142.37 158.201 141.964 159.579 141.966C160.492 141.966 161.397 142.146 162.241 142.496C163.085 142.846 163.852 143.359 164.498 144.006C165.144 144.652 165.656 145.42 166.004 146.264C166.353 147.109 166.532 148.014 166.531 148.928Z" fill="white"/>
<path d="M154.749 239.698C154.751 241.076 154.344 242.423 153.58 243.57C152.815 244.716 151.728 245.61 150.456 246.138C149.183 246.667 147.782 246.805 146.431 246.537C145.079 246.269 143.838 245.605 142.864 244.631C141.889 243.657 141.226 242.415 140.958 241.064C140.689 239.712 140.828 238.312 141.356 237.039C141.885 235.767 142.778 234.679 143.925 233.915C145.071 233.151 146.419 232.744 147.797 232.746C149.64 232.749 151.406 233.482 152.71 234.785C154.013 236.088 154.746 237.855 154.749 239.698Z" fill="white"/>
<path d="M168.865 294.02C168.865 295.398 168.456 296.744 167.691 297.889C166.925 299.035 165.837 299.927 164.565 300.454C163.292 300.98 161.892 301.117 160.541 300.848C159.19 300.579 157.95 299.914 156.976 298.94C156.003 297.965 155.341 296.724 155.073 295.372C154.806 294.021 154.945 292.621 155.474 291.349C156.002 290.077 156.896 288.991 158.042 288.227C159.188 287.463 160.535 287.056 161.913 287.058C162.827 287.058 163.732 287.239 164.576 287.589C165.42 287.939 166.187 288.451 166.832 289.098C167.478 289.745 167.99 290.512 168.339 291.357C168.687 292.202 168.866 293.107 168.865 294.02Z" fill="white"/>
<path d="M118.877 367.451C122.722 367.451 125.839 364.334 125.839 360.489C125.839 356.644 122.722 353.527 118.877 353.527C115.032 353.527 111.915 356.644 111.915 360.489C111.915 364.334 115.032 367.451 118.877 367.451Z" fill="white"/>
<path d="M161.913 294.02L118.877 360.489L272.983 385.225L405.535 259.938L395.097 188.7L470.73 181.465L336.349 94.363L159.578 148.928L147.796 239.698L161.913 294.02Z" stroke="white" stroke-linecap="round" stroke-linejoin="round"/>
<path d="M289.383 57.4915L336.349 94.3532" stroke="white" stroke-linecap="round" stroke-linejoin="round"/>
<path d="M272.983 385.225L261.05 311.906" stroke="white" stroke-linecap="round" stroke-linejoin="round"/>
<path d="M159.579 148.928L200.149 185.628" stroke="white" stroke-linecap="round" stroke-linejoin="round"/>
<path d="M207.141 340.32L220.691 320.232" stroke="#263238" stroke-linecap="round" stroke-linejoin="round"/>
<path d="M141.906 215.912L163.105 216.225" stroke="#263238" stroke-linecap="round" stroke-linejoin="round"/>
<path d="M204.857 101.608L217.933 122.575" stroke="#263238" stroke-linecap="round" stroke-linejoin="round"/>
<path d="M415.953 218.71L389.459 219.034" stroke="#263238" stroke-linecap="round" stroke-linejoin="round"/>
<path d="M135.388 293.586L157.608 323.889L169.653 340.31" stroke="#263238" stroke-linecap="round" stroke-linejoin="round"/>
<path d="M188.775 101.827L122.084 168.517" stroke="#263238" stroke-linecap="round" stroke-linejoin="round"/>
<path d="M349.334 354.446L222.561 359.993" stroke="#263238" stroke-linecap="round" stroke-linejoin="round"/>
<path d="M402.06 326.497L442.407 250.429" stroke="#263238" stroke-linecap="round" stroke-linejoin="round"/>
<path d="M445.549 189.063L444.206 164.408" stroke="#263238" stroke-linecap="round" stroke-linejoin="round"/>
<path d="M356.195 139.581L369.007 130.255" stroke="#263238" stroke-linecap="round" stroke-linejoin="round"/>
<path d="M222.349 74.9216L368.482 77.4478" stroke="#263238" stroke-linecap="round" stroke-linejoin="round"/>
<path d="M224.279 75.5253C230.754 61.7035 224.798 45.2501 210.976 38.7756C197.154 32.301 180.701 38.257 174.226 52.0788C167.752 65.9005 173.708 82.3539 187.529 88.8285C201.351 95.303 217.805 89.347 224.279 75.5253Z" fill="#D2FFDF"/>
<path opacity="0.2" d="M224.279 75.5253C230.754 61.7035 224.798 45.2501 210.976 38.7756C197.154 32.301 180.701 38.257 174.226 52.0788C167.752 65.9005 173.708 82.3539 187.529 88.8285C201.351 95.303 217.805 89.347 224.279 75.5253Z" fill="white"/>
<path d="M199.37 91.6098C201.873 91.6105 204.365 91.2706 206.776 90.5994L205.23 81.5759L192.215 82.3439L191.71 90.5286C194.2 91.2445 196.778 91.6084 199.37 91.6098Z" fill="white"/>
<mask id="mask0_2121_8" style="mask-type:luminance" maskUnits="userSpaceOnUse" x="191" y="81" width="16" height="11">
<path d="M199.37 91.6098C201.873 91.6105 204.365 91.2706 206.776 90.5994L205.23 81.5759L192.215 82.3439L191.71 90.5286C194.2 91.2445 196.778 91.6084 199.37 91.6098Z" fill="white"/>
</mask>
<g mask="url(#mask0_2121_8)">
<path d="M189.659 81.7275C192.024 85.6785 195.5 88.1743 199.39 88.1743C203.28 88.1743 206.756 85.6785 209.131 81.7275H189.659Z" fill="#263238" stroke="#263238" stroke-linecap="round" stroke-linejoin="round"/>
</g>
<path d="M199.37 91.6098C201.873 91.6105 204.365 91.2706 206.776 90.5994L205.23 81.5759L192.215 82.3439L191.71 90.5286C194.2 91.2445 196.778 91.6084 199.37 91.6098Z" stroke="#263238" stroke-linecap="round" stroke-linejoin="round"/>
<path d="M214.809 67.0755C214.266 66.8197 213.647 66.7729 213.071 66.9441C212.718 57.0011 206.544 49.0791 198.925 49.0791C191.306 49.0791 185.172 57.0011 184.778 66.9441C184.199 66.7723 183.577 66.819 183.03 67.0755C181.545 67.803 181.151 70.0159 182.131 72.0065C182.422 72.7218 182.911 73.3389 183.541 73.7848C184.172 74.2307 184.916 74.4867 185.688 74.5226C187.709 81.5958 192.852 86.5875 198.874 86.5875C204.897 86.5875 209.989 81.5352 212.071 74.5226C212.84 74.4848 213.583 74.2279 214.212 73.7822C214.84 73.3364 215.328 72.7203 215.618 72.0065C216.699 70.0159 216.295 67.803 214.809 67.0755Z" fill="white" stroke="#263238" stroke-linecap="round" stroke-linejoin="round"/>
<path d="M197.035 69.0562L196.924 69.5917C196.569 71.2805 195.908 72.89 194.974 74.3409L197.803 75.8869" stroke="#263238" stroke-linecap="round" stroke-linejoin="round"/>
<path d="M194.601 79.6357C195.802 80.1531 197.097 80.42 198.405 80.42C199.713 80.42 201.008 80.1531 202.209 79.6357" stroke="#263238" stroke-linecap="round" stroke-linejoin="round"/>
<path d="M191.68 67.6414C191.68 68.3891 191.397 68.9954 191.043 68.9954C190.69 68.9954 190.397 68.3891 190.397 67.6414C190.397 66.8936 190.68 66.2874 191.043 66.2874C191.407 66.2874 191.68 66.8936 191.68 67.6414Z" fill="#263238"/>
<path d="M202.452 67.6414C202.452 68.3891 202.159 68.9954 201.805 68.9954C201.451 68.9954 201.158 68.3891 201.158 67.6414C201.158 66.8936 201.451 66.2874 201.805 66.2874C202.159 66.2874 202.452 66.8936 202.452 67.6414Z" fill="#263238"/>
<path d="M189.781 65.0142C190.267 64.0862 191.057 63.3532 192.019 62.9375C192.981 62.5219 194.056 62.4488 195.065 62.7305" stroke="#263238" stroke-linecap="round" stroke-linejoin="round"/>
<path d="M206.473 65.0142C205.987 64.0862 205.197 63.3532 204.235 62.9375C203.273 62.5219 202.198 62.4488 201.188 62.7305" stroke="#263238" stroke-linecap="round" stroke-linejoin="round"/>
<path d="M187.8 65.4087H184.94" stroke="#263238" stroke-linecap="round" stroke-linejoin="round"/>
<path d="M196.348 65.4087H188.396V70.5317H196.348V65.4087Z" stroke="#263238" stroke-linecap="round" stroke-linejoin="round"/>
<path d="M207.797 65.4087H199.844V70.5317H207.797V65.4087Z" stroke="#263238" stroke-linecap="round" stroke-linejoin="round"/>
<path d="M196.358 66.9141H199.845" stroke="#263238" stroke-linecap="round" stroke-linejoin="round"/>
<path d="M212.576 65.4087H207.797" stroke="#263238" stroke-linecap="round" stroke-linejoin="round"/>
<path d="M185.86 66.914C186.87 67.005 189.831 60.3662 188.689 55.9505C187.547 51.5348 198.592 54.8895 205.483 54.0913C212.374 53.293 207.868 63.8422 211.758 66.3482C215.648 68.8541 214.789 50.9992 211.051 50.4637C211.051 50.4637 208.262 45.1588 197.5 45.6034C186.739 46.048 185.314 52.8585 185.314 52.8585C185.314 52.8585 180.04 66.3482 185.86 66.914Z" fill="#263238" stroke="#263238" stroke-linecap="round" stroke-linejoin="round"/>
<path d="M528.508 191.214V195.84H462.095V191.214C462.095 188.939 462.998 186.757 464.606 185.147C466.213 183.538 468.394 182.632 470.669 182.628H519.923C522.2 182.628 524.383 183.533 525.994 185.143C527.604 186.753 528.508 188.937 528.508 191.214Z" stroke="#263238" stroke-miterlimit="10"/>
<path d="M530.149 219.051V195.839H460.431V227.327" stroke="#263238" stroke-miterlimit="10"/>
<path d="M448.73 140.854C448.73 140.854 451.465 133.553 458.338 134.719C465.211 135.884 459.955 141.627 456.649 142.139C456.637 142.139 456.15 140.129 448.73 140.854Z" fill="white" stroke="#263238" stroke-linecap="round" stroke-linejoin="round"/>
<path d="M444.175 144.993C443.272 145.896 441.096 145.968 442.558 144.006C443.76 142.432 445.385 141.232 447.243 140.545C450.501 139.095 451.774 139.356 454.723 138.738C457.672 138.119 458.219 139.297 459.242 139.856C461.679 141.187 462.262 141.413 462.868 142.757C463.475 144.101 464.153 145.837 462.262 145.837C460.371 145.837 460.419 142.983 458.695 143.09C456.97 143.197 456.186 145.837 455.008 145.837H454.568C453.558 145.837 453.51 145.005 454.116 143.685C454.723 142.365 455.401 141.187 455.401 141.187C454.41 141.715 453.617 142.549 453.141 143.566C452.333 145.278 452.19 145.944 450.763 145.944C449.336 145.944 449.384 144.85 450.858 142.377C450.001 142.882 449.292 143.604 448.801 144.469C448.088 145.837 447.707 145.742 446.756 145.742C445.567 145.742 445.567 143.697 447.802 142.353C447.802 142.448 447.315 141.853 444.175 144.993Z" fill="white" stroke="#263238" stroke-linecap="round" stroke-linejoin="round"/>
<path d="M452.785 140.094C452.785 140.094 451.916 140.094 451.381 141.509L452.785 140.094Z" fill="white"/>
<path d="M452.785 140.094C452.785 140.094 451.916 140.094 451.381 141.509" stroke="#263238" stroke-linecap="round" stroke-linejoin="round"/>
<path d="M470.146 235.069L474.902 243.381H478.969L480.753 240.86L476.353 230.158L470.146 235.069Z" fill="white" stroke="#263238" stroke-linecap="round" stroke-linejoin="round"/>
<path d="M481.419 163.103L476.507 164.946C476.507 164.946 441.523 175.077 439.989 183.663C438.455 192.248 470.812 237.09 470.812 237.09C470.812 237.09 474.712 237.661 477.744 232.488C477.744 232.488 466.329 198.111 461.096 191.368C461.096 191.368 499.481 184.614 501.325 179.703C503.168 174.792 498.054 162.627 498.054 162.627L481.419 163.103Z" fill="#263238" stroke="#263238" stroke-linecap="round" stroke-linejoin="round"/>
<path d="M472.31 243.215C472.394 243.064 472.514 242.938 472.659 242.846C472.805 242.755 472.971 242.702 473.143 242.691C474.611 242.599 476.037 242.168 477.31 241.431C478.583 240.694 479.668 239.673 480.48 238.446C480.624 238.239 480.84 238.093 481.086 238.036C481.332 237.979 481.59 238.015 481.811 238.137C483.624 239.203 485.146 240.698 486.247 242.489C486.643 243.118 486.781 243.876 486.633 244.605C486.484 245.334 486.061 245.977 485.45 246.401L470.277 256.604C469.469 257.149 468.516 257.439 467.542 257.436H463.772C463.561 257.437 463.352 257.387 463.164 257.29C462.976 257.193 462.814 257.053 462.692 256.88C462.569 256.708 462.49 256.508 462.461 256.299C462.432 256.089 462.453 255.876 462.524 255.677C462.675 255.217 462.939 254.803 463.292 254.472C463.646 254.142 464.077 253.906 464.545 253.786C467.042 253.179 471.811 244.225 472.31 243.215Z" fill="#263238"/>
<mask id="mask1_2121_8" style="mask-type:luminance" maskUnits="userSpaceOnUse" x="462" y="238" width="25" height="20">
<path d="M472.31 243.215C472.394 243.064 472.514 242.938 472.659 242.846C472.805 242.755 472.971 242.702 473.143 242.691C474.611 242.599 476.037 242.168 477.31 241.431C478.583 240.694 479.668 239.673 480.48 238.446C480.624 238.239 480.84 238.093 481.086 238.036C481.332 237.979 481.59 238.015 481.811 238.137C483.624 239.203 485.146 240.698 486.247 242.489C486.643 243.118 486.781 243.876 486.633 244.605C486.484 245.334 486.061 245.977 485.45 246.401L470.277 256.604C469.469 257.149 468.516 257.439 467.542 257.436H463.772C463.561 257.437 463.352 257.387 463.164 257.29C462.976 257.193 462.814 257.053 462.692 256.88C462.569 256.708 462.49 256.508 462.461 256.299C462.432 256.089 462.453 255.876 462.524 255.677C462.675 255.217 462.939 254.803 463.292 254.472C463.646 254.142 464.077 253.906 464.545 253.786C467.042 253.179 471.811 244.225 472.31 243.215Z" fill="white"/>
</mask>
<g mask="url(#mask1_2121_8)">
<path d="M472.31 243.215C472.394 243.064 472.514 242.938 472.659 242.846C472.805 242.755 472.971 242.702 473.143 242.691C474.611 242.599 476.037 242.168 477.31 241.431C478.583 240.694 479.668 239.673 480.48 238.446C480.624 238.239 480.84 238.093 481.086 238.036C481.332 237.979 481.59 238.015 481.811 238.137C483.624 239.203 485.146 240.698 486.247 242.489C486.643 243.118 486.781 243.876 486.633 244.605C486.484 245.334 486.061 245.977 485.45 246.401L470.277 256.604C469.469 257.149 468.516 257.439 467.542 257.436H463.772C463.561 257.437 463.352 257.387 463.164 257.29C462.976 257.193 462.814 257.053 462.692 256.88C462.569 256.708 462.49 256.508 462.461 256.299C462.432 256.089 462.453 255.876 462.524 255.677C462.675 255.217 462.939 254.803 463.292 254.472C463.646 254.142 464.077 253.906 464.545 253.786C467.042 253.179 471.811 244.225 472.31 243.215Z" fill="#BFBFBF" stroke="#263238" stroke-linecap="round" stroke-linejoin="round"/>
</g>
<path d="M472.31 243.215C472.394 243.064 472.514 242.938 472.659 242.846C472.805 242.755 472.971 242.702 473.143 242.691C474.611 242.599 476.037 242.168 477.31 241.431C478.583 240.694 479.668 239.673 480.48 238.446C480.624 238.239 480.84 238.093 481.086 238.036C481.332 237.979 481.59 238.015 481.811 238.137C483.624 239.203 485.146 240.698 486.247 242.489C486.643 243.118 486.781 243.876 486.633 244.605C486.484 245.334 486.061 245.977 485.45 246.401L470.277 256.604C469.469 257.149 468.516 257.439 467.542 257.436H463.772C463.561 257.437 463.352 257.387 463.164 257.29C462.976 257.193 462.814 257.053 462.692 256.88C462.569 256.708 462.49 256.508 462.461 256.299C462.432 256.089 462.453 255.876 462.524 255.677C462.675 255.217 462.939 254.803 463.292 254.472C463.646 254.142 464.077 253.906 464.545 253.786C467.042 253.179 471.811 244.225 472.31 243.215Z" stroke="#263238" stroke-linecap="round" stroke-linejoin="round"/>
<path d="M453.653 187.147C453.653 187.147 455.829 187.302 459.491 190.061" stroke="#7F7F7F" stroke-linecap="round" stroke-linejoin="round"/>
<path d="M468.077 237.091L466.46 249.184L473.654 250.421L477.352 238.529L468.077 237.091Z" fill="white" stroke="#263238" stroke-linecap="round" stroke-linejoin="round"/>
<path d="M492.93 166.338C493.37 168.002 492.609 173.472 491.075 174.245C485.129 177.397 475.307 185.768 473.131 194.722C470.372 206.066 467.304 240.753 467.304 240.753C467.304 240.753 469.766 244.737 476.211 242.894C476.211 242.894 488.173 214.045 489.089 199.93C495.282 195.823 501.866 192.338 508.745 189.526C514.548 187.338 517.711 183.699 518.865 180.583C521.933 172.259 515.797 158.799 515.797 158.799L493.084 163.365L492.93 166.338Z" fill="#263238" stroke="#263238" stroke-linecap="round" stroke-linejoin="round"/>
<path d="M483.512 196.256C485.093 196.431 486.571 197.13 487.709 198.242" stroke="#7F7F7F" stroke-linecap="round" stroke-linejoin="round"/>
<path d="M466.151 246.199C466.021 246.086 465.863 246.009 465.694 245.976C465.525 245.943 465.351 245.954 465.187 246.009C463.13 246.711 455.556 249.148 451.18 248.946C447.993 248.792 446.994 250.599 446.697 251.979C446.657 252.169 446.657 252.365 446.696 252.555C446.736 252.746 446.813 252.926 446.925 253.085C447.036 253.244 447.179 253.379 447.344 253.481C447.509 253.583 447.693 253.651 447.886 253.679L472.489 257.401C473.221 257.517 473.971 257.345 474.58 256.922C475.189 256.499 475.612 255.857 475.759 255.13C476.208 253.069 476.143 250.929 475.569 248.899C475.491 248.657 475.326 248.453 475.106 248.328C474.886 248.202 474.626 248.164 474.379 248.221C472.945 248.543 471.455 248.528 470.028 248.177C468.6 247.826 467.273 247.149 466.151 246.199Z" fill="#263238"/>
<mask id="mask2_2121_8" style="mask-type:luminance" maskUnits="userSpaceOnUse" x="446" y="245" width="31" height="13">
<path d="M466.151 246.199C466.021 246.086 465.863 246.009 465.694 245.976C465.525 245.943 465.351 245.954 465.187 246.009C463.13 246.711 455.556 249.148 451.18 248.946C447.993 248.792 446.994 250.599 446.697 251.979C446.657 252.169 446.657 252.365 446.696 252.555C446.736 252.746 446.813 252.926 446.925 253.085C447.036 253.244 447.179 253.379 447.344 253.481C447.509 253.583 447.693 253.651 447.886 253.679L472.489 257.401C473.221 257.517 473.971 257.345 474.58 256.922C475.189 256.499 475.612 255.857 475.759 255.13C476.208 253.069 476.143 250.929 475.569 248.899C475.491 248.657 475.326 248.453 475.106 248.328C474.886 248.202 474.626 248.164 474.379 248.221C472.945 248.543 471.455 248.528 470.028 248.177C468.6 247.826 467.273 247.149 466.151 246.199Z" fill="white"/>
</mask>
<g mask="url(#mask2_2121_8)">
<path d="M466.151 246.199C466.021 246.086 465.863 246.009 465.694 245.976C465.525 245.943 465.351 245.954 465.187 246.009C463.13 246.711 455.556 249.148 451.18 248.946C447.993 248.792 446.994 250.599 446.697 251.979C446.657 252.169 446.657 252.365 446.696 252.555C446.736 252.746 446.813 252.926 446.925 253.085C447.036 253.244 447.179 253.379 447.344 253.481C447.509 253.583 447.693 253.651 447.886 253.679L472.489 257.401C473.221 257.517 473.971 257.345 474.58 256.922C475.189 256.499 475.612 255.857 475.759 255.13C476.208 253.069 476.143 250.929 475.569 248.899C475.491 248.657 475.326 248.453 475.106 248.328C474.886 248.202 474.626 248.164 474.379 248.221C472.945 248.543 471.455 248.528 470.028 248.177C468.6 247.826 467.273 247.149 466.151 246.199Z" fill="#BFBFBF" stroke="#263238" stroke-linecap="round" stroke-linejoin="round"/>
</g>
<path d="M466.151 246.199C466.021 246.086 465.863 246.009 465.694 245.976C465.525 245.943 465.351 245.954 465.187 246.009C463.13 246.711 455.556 249.148 451.18 248.946C447.993 248.792 446.994 250.599 446.697 251.979C446.657 252.169 446.657 252.365 446.696 252.555C446.736 252.746 446.813 252.926 446.925 253.085C447.036 253.244 447.179 253.379 447.344 253.481C447.509 253.583 447.693 253.651 447.886 253.679L472.489 257.401C473.221 257.517 473.971 257.345 474.58 256.922C475.189 256.499 475.612 255.857 475.759 255.13C476.208 253.069 476.143 250.929 475.569 248.899C475.491 248.657 475.326 248.453 475.106 248.328C474.886 248.202 474.626 248.164 474.379 248.221C472.945 248.543 471.455 248.528 470.028 248.177C468.6 247.826 467.273 247.149 466.151 246.199Z" stroke="#263238" stroke-linecap="round" stroke-linejoin="round"/>
<path d="M477.757 186.219C481.941 180.119 488.258 175.805 495.463 174.126" stroke="#7F7F7F" stroke-linecap="round" stroke-linejoin="round"/>
<path d="M519.173 163.721C500.445 168.942 476.508 164.91 476.508 164.91C476.915 161.435 476.823 157.919 476.234 154.47H498.257C499.043 154.473 499.822 154.32 500.548 154.02C501.275 153.72 501.935 153.279 502.49 152.722C503.59 151.607 504.205 150.102 504.202 148.536H475.128C474.343 144.969 473.273 140.902 471.906 136.407C470.703 132.184 469.907 127.856 469.527 123.481L462.036 137.014C462.036 137.014 461.085 140.307 456.292 140.403C451.5 140.498 452.047 138.762 456.197 125.241C458.806 117.418 462.904 110.173 468.267 103.908C468.489 103.647 468.789 103.463 469.123 103.385C469.123 103.278 469.123 103.219 469.123 103.219C499.826 95.2871 513.038 105.097 513.038 105.097C504.44 130.069 519.173 163.721 519.173 163.721Z" fill="#ADC9FF" stroke="#263238" stroke-linecap="round" stroke-linejoin="round"/>
<path d="M476.282 142.578C476.282 142.578 472.215 145.04 473.393 145.611C475.367 146.574 479.659 143.542 479.659 143.542C479.659 143.542 484.333 143.232 481.954 142.162L479.576 141.092L476.282 142.578Z" fill="white"/>
<mask id="mask3_2121_8" style="mask-type:luminance" maskUnits="userSpaceOnUse" x="473" y="141" width="10" height="5">
<path d="M476.282 142.578C476.282 142.578 472.215 145.04 473.393 145.611C475.367 146.574 479.659 143.542 479.659 143.542C479.659 143.542 484.333 143.232 481.954 142.162L479.576 141.092L476.282 142.578Z" fill="white"/>
</mask>
<g mask="url(#mask3_2121_8)">
<path opacity="0.2" d="M476.282 142.578C476.282 142.578 472.215 145.04 473.393 145.611C475.367 146.574 479.659 143.542 479.659 143.542C479.659 143.542 484.333 143.232 481.954 142.162L479.576 141.092L476.282 142.578Z" fill="black"/>
</g>
<path d="M476.282 142.578C476.282 142.578 472.215 145.04 473.393 145.611C475.367 146.574 479.659 143.542 479.659 143.542C479.659 143.542 484.333 143.232 481.954 142.162L479.576 141.092L476.282 142.578Z" stroke="#263238" stroke-linecap="round" stroke-linejoin="round"/>
<path d="M481.609 105.716C481.609 105.716 483.988 116.537 486.96 116.537C489.933 116.537 496.129 100.258 496.129 100.258L492.014 97.4395L481.609 105.716Z" fill="white"/>
<mask id="mask4_2121_8" style="mask-type:luminance" maskUnits="userSpaceOnUse" x="481" y="97" width="16" height="20">
<path d="M481.609 105.716C481.609 105.716 483.988 116.537 486.96 116.537C489.933 116.537 496.129 100.258 496.129 100.258L492.014 97.4395L481.609 105.716Z" fill="white"/>
</mask>
<g mask="url(#mask4_2121_8)">
<path d="M474.986 96.4765C475.26 97.8291 475.7 99.143 476.294 100.389C478.327 104.265 481.205 110.556 485.022 109.569C488.399 108.701 493.405 103.623 493.952 100.579C494.255 98.8575 494.437 97.1173 494.499 95.3706L474.986 96.4765Z" fill="#263238" stroke="#263238" stroke-linecap="round" stroke-linejoin="round"/>
</g>
<path d="M481.609 105.716C481.609 105.716 483.988 116.537 486.96 116.537C489.933 116.537 496.129 100.258 496.129 100.258L492.014 97.4395L481.609 105.716Z" stroke="#263238" stroke-linecap="round" stroke-linejoin="round"/>
<path d="M475.973 73.9542C475.973 73.9542 467.458 76.3324 468.969 89.6031C470.538 103.445 472.536 98.0697 471.656 100.912C470.776 103.754 484.237 103.992 484.237 103.992C484.237 103.992 495.997 102.541 499.565 105.109C503.132 107.678 505.201 101.542 503.822 97.4394C502.442 93.337 497.496 85.679 496.081 79.4836C494.047 70.6127 481.264 70.8506 475.973 73.9542Z" fill="#263238" stroke="#263238" stroke-linecap="round" stroke-linejoin="round"/>
<path d="M473.392 85.1557C473.392 85.1557 473.392 94.9779 475.366 98.9734C477.34 102.969 479.944 109.402 483.987 108.665C487.555 107.987 493.203 103.242 493.964 100.21C494.419 98.403 494.725 96.5616 494.88 94.7044C495.32 94.5141 496.699 95.5725 497.329 92.1002C497.567 90.8397 498.768 87.1178 496.033 86.5708C493.072 86 493.096 90.2571 493.096 90.2571L488.744 79.1744L478.684 77.4858L475.318 79.0198L473.392 85.1557Z" fill="white" stroke="#263238" stroke-linecap="round" stroke-linejoin="round"/>
<path d="M479.742 94.7163C479.588 95.9852 479.309 97.2359 478.91 98.4502C478.854 98.6519 478.879 98.8676 478.978 99.0517C479.078 99.2357 479.245 99.3739 479.445 99.4371L481.502 100.044" stroke="#263238" stroke-linecap="round" stroke-linejoin="round"/>
<path d="M483.107 102.113C483.107 102.113 486.913 102.005 488.458 99.877" stroke="#263238" stroke-linecap="round" stroke-linejoin="round"/>
<path d="M475.2 91.66C475.288 91.4659 475.414 91.2912 475.57 91.1459C475.727 91.0007 475.91 90.8878 476.11 90.8137C476.31 90.7397 476.523 90.7059 476.736 90.7144C476.949 90.7229 477.159 90.7735 477.352 90.8633" stroke="#263238" stroke-linecap="round" stroke-linejoin="round"/>
<path d="M481.847 90.1739C481.847 90.1739 483.738 88.8183 486.27 90.709" stroke="#263238" stroke-linecap="round" stroke-linejoin="round"/>
<path d="M477.269 94.6569C477.34 95.1801 477.198 95.6558 476.924 95.6914C476.651 95.7271 476.377 95.3228 476.294 94.7877C476.211 94.2526 476.377 93.7888 476.639 93.7532C476.9 93.7175 477.186 94.1218 477.269 94.6569Z" fill="#263238"/>
<path d="M484.094 94.2524C484.178 94.7875 484.023 95.2512 483.762 95.2869C483.5 95.3226 483.203 94.9183 483.131 94.3951C483.06 93.8718 483.203 93.3843 483.476 93.3486C483.75 93.313 483.987 93.7173 484.094 94.2524Z" fill="#263238"/>
<path d="M472.75 79.1748C472.75 79.1748 469.456 87.8435 474.284 87.6175C479.112 87.3916 483.215 84.288 488.019 86.8446C492.823 89.4012 487.258 82.0881 487.258 82.0881C487.258 82.0881 492.169 87.3084 492.014 90.9114C491.86 94.5145 493.774 88.6878 493.465 86.7733C493.156 84.8588 489.933 75.3695 489.933 75.3695L484.725 74.1804L475.806 75.096L472.75 79.1748Z" fill="#263238" stroke="#263238" stroke-linecap="round" stroke-linejoin="round"/>
<path d="M494.333 98.7829C494.012 100.174 488.982 105.145 492.311 106.179C495.641 107.214 502.894 106.179 503.988 102.481C505.082 98.7829 501.61 96.8328 501.61 96.8328C501.61 96.8328 494.749 96.9279 494.333 98.7829Z" fill="#263238" stroke="#263238" stroke-linecap="round" stroke-linejoin="round"/>
<path d="M495.082 139.237L484.035 139.784C484.035 139.784 474.748 137.513 471.596 137.703C469.145 137.994 466.761 138.697 464.545 139.784C463.545 140.528 462.774 141.537 462.321 142.698C462.23 143.269 462.23 143.851 462.321 144.422C462.321 144.723 462.434 145.014 462.64 145.235C462.845 145.456 463.126 145.59 463.427 145.611C465.544 145.766 469.052 145.956 469.884 144.91C469.884 144.91 469.194 145.73 470.443 145.73C471.692 145.73 473.392 143.756 473.392 143.756L477.126 143.602C477.126 143.602 478.731 145.599 483.571 145.73C484.357 145.616 485.127 145.412 485.866 145.124L494.844 146.313L496.033 144.779V139.582L495.082 139.237Z" fill="white" stroke="#263238" stroke-linecap="round" stroke-linejoin="round"/>
<path d="M464.01 144.767C464.01 144.767 465.045 141.057 466.234 140.32C467.281 139.799 468.357 139.339 469.456 138.94" stroke="#263238" stroke-linecap="round" stroke-linejoin="round"/>
<path d="M466.579 144.766C466.702 143.892 466.958 143.042 467.34 142.246C468.317 141.153 469.539 140.31 470.907 139.784C471.741 139.704 472.582 139.704 473.416 139.784" stroke="#263238" stroke-linecap="round" stroke-linejoin="round"/>
<path d="M470.134 144.077C470.134 144.077 470.467 142.496 470.883 142.163C471.656 141.705 472.506 141.394 473.392 141.247C474.049 141.198 474.709 141.198 475.366 141.247" stroke="#263238" stroke-linecap="round" stroke-linejoin="round"/>
<path d="M493.144 146.455C493.144 146.455 514.417 149.226 519.019 149.452C523.621 149.678 522.468 127.12 522.004 117.452C521.54 107.785 512.098 104.515 512.098 104.515C505.416 118.404 513.026 136.562 513.026 136.562L494.155 138.869C494.155 138.869 495.593 143.696 493.144 146.455Z" fill="#ADC9FF" stroke="#263238" stroke-linecap="round" stroke-linejoin="round"/>
<path d="M504.036 113.54C504.294 118.285 506.056 122.825 509.066 126.502" stroke="#263238" stroke-linecap="round" stroke-linejoin="round"/>
<path d="M471.395 111.257C470.5 115.662 470.019 120.14 469.956 124.635" stroke="#263238" stroke-linecap="round" stroke-linejoin="round"/>
<path d="M457.41 117.69H452.654L459.206 148.536H463.962C464.278 148.548 464.592 148.485 464.878 148.353C465.165 148.22 465.416 148.022 465.611 147.773C465.805 147.525 465.939 147.234 466 146.924C466.06 146.615 466.047 146.295 465.96 145.991L460.478 120.223C460.311 119.525 459.921 118.9 459.368 118.443C458.815 117.986 458.127 117.722 457.41 117.69Z" fill="#263238"/>
<mask id="mask5_2121_8" style="mask-type:luminance" maskUnits="userSpaceOnUse" x="452" y="117" width="15" height="32">
<path d="M457.41 117.69H452.654L459.206 148.536H463.962C464.278 148.548 464.592 148.485 464.878 148.353C465.165 148.22 465.416 148.022 465.611 147.773C465.805 147.525 465.939 147.234 466 146.924C466.06 146.615 466.047 146.295 465.96 145.991L460.478 120.223C460.311 119.525 459.921 118.9 459.368 118.443C458.815 117.986 458.127 117.722 457.41 117.69Z" fill="white"/>
</mask>
<g mask="url(#mask5_2121_8)">
<path opacity="0.2" d="M457.41 117.69H452.654L459.206 148.536H463.962C464.278 148.548 464.592 148.485 464.878 148.353C465.165 148.22 465.416 148.022 465.611 147.773C465.805 147.525 465.939 147.234 466 146.924C466.06 146.615 466.047 146.295 465.96 145.991L460.478 120.223C460.311 119.525 459.921 118.9 459.368 118.443C458.815 117.986 458.127 117.722 457.41 117.69Z" fill="white"/>
</g>
<path d="M457.41 117.69H452.654L459.206 148.536H463.962C464.278 148.548 464.592 148.485 464.878 148.353C465.165 148.22 465.416 148.022 465.611 147.773C465.805 147.525 465.939 147.234 466 146.924C466.06 146.615 466.047 146.295 465.96 145.991L460.478 120.223C460.311 119.525 459.921 118.9 459.368 118.443C458.815 117.986 458.127 117.722 457.41 117.69Z" stroke="#263238" stroke-linecap="round" stroke-linejoin="round"/>
<path d="M465.972 145.991H490.944V147.181C490.944 147.365 490.908 147.547 490.837 147.718C490.767 147.888 490.663 148.042 490.533 148.173C490.403 148.303 490.248 148.406 490.078 148.477C489.907 148.547 489.725 148.584 489.541 148.584H467.34C467.155 148.584 466.973 148.547 466.803 148.477C466.632 148.406 466.478 148.303 466.347 148.173C466.217 148.042 466.114 147.888 466.043 147.718C465.973 147.547 465.937 147.365 465.937 147.181V145.991H465.972Z" fill="#263238"/>
<mask id="mask6_2121_8" style="mask-type:luminance" maskUnits="userSpaceOnUse" x="465" y="145" width="26" height="4">
<path d="M465.972 145.991H490.944V147.181C490.944 147.365 490.908 147.547 490.837 147.718C490.767 147.888 490.663 148.042 490.533 148.173C490.403 148.303 490.248 148.406 490.078 148.477C489.907 148.547 489.725 148.584 489.541 148.584H467.34C467.155 148.584 466.973 148.547 466.803 148.477C466.632 148.406 466.478 148.303 466.347 148.173C466.217 148.042 466.114 147.888 466.043 147.718C465.973 147.547 465.937 147.365 465.937 147.181V145.991H465.972Z" fill="white"/>
</mask>
<g mask="url(#mask6_2121_8)">
<path opacity="0.2" d="M465.972 145.991H490.944V147.181C490.944 147.365 490.908 147.547 490.837 147.718C490.767 147.888 490.663 148.042 490.533 148.173C490.403 148.303 490.248 148.406 490.078 148.477C489.907 148.547 489.725 148.584 489.541 148.584H467.34C467.155 148.584 466.973 148.547 466.803 148.477C466.632 148.406 466.478 148.303 466.347 148.173C466.217 148.042 466.114 147.888 466.043 147.718C465.973 147.547 465.937 147.365 465.937 147.181V145.991H465.972Z" fill="white"/>
</g>
<path d="M465.972 145.991H490.944V147.181C490.944 147.365 490.908 147.547 490.837 147.718C490.767 147.888 490.663 148.042 490.533 148.173C490.403 148.303 490.248 148.406 490.078 148.477C489.907 148.547 489.725 148.584 489.541 148.584H467.34C467.155 148.584 466.973 148.547 466.803 148.477C466.632 148.406 466.478 148.303 466.347 148.173C466.217 148.042 466.114 147.888 466.043 147.718C465.973 147.547 465.937 147.365 465.937 147.181V145.991H465.972Z" stroke="#263238" stroke-linecap="round" stroke-linejoin="round"/>
<path d="M462.131 148.536H423.461C422.741 148.504 422.051 148.238 421.495 147.779C420.939 147.32 420.548 146.692 420.381 145.991L414.911 120.223C414.824 119.92 414.81 119.601 414.871 119.291C414.931 118.982 415.065 118.692 415.26 118.444C415.455 118.197 415.707 117.999 415.993 117.868C416.28 117.737 416.594 117.676 416.909 117.69H455.579C456.297 117.72 456.985 117.984 457.539 118.441C458.092 118.898 458.482 119.524 458.647 120.223L464.129 145.991C464.215 146.295 464.229 146.614 464.168 146.924C464.107 147.234 463.974 147.525 463.779 147.773C463.584 148.022 463.333 148.22 463.047 148.353C462.76 148.485 462.447 148.548 462.131 148.536Z" fill="#263238"/>
<mask id="mask7_2121_8" style="mask-type:luminance" maskUnits="userSpaceOnUse" x="414" y="117" width="51" height="32">
<path d="M462.131 148.536H423.461C422.741 148.504 422.051 148.238 421.495 147.779C420.939 147.32 420.548 146.692 420.381 145.991L414.911 120.223C414.824 119.92 414.81 119.601 414.871 119.291C414.931 118.982 415.065 118.692 415.26 118.444C415.455 118.197 415.707 117.999 415.993 117.868C416.28 117.737 416.594 117.676 416.909 117.69H455.579C456.297 117.72 456.985 117.984 457.539 118.441C458.092 118.898 458.482 119.524 458.647 120.223L464.129 145.991C464.215 146.295 464.229 146.614 464.168 146.924C464.107 147.234 463.974 147.525 463.779 147.773C463.584 148.022 463.333 148.22 463.047 148.353C462.76 148.485 462.447 148.548 462.131 148.536Z" fill="white"/>
</mask>
<g mask="url(#mask7_2121_8)">
<path d="M462.131 148.536H423.461C422.741 148.504 422.051 148.238 421.495 147.779C420.939 147.32 420.548 146.692 420.381 145.991L414.911 120.223C414.824 119.92 414.81 119.601 414.871 119.291C414.931 118.982 415.065 118.692 415.26 118.444C415.455 118.197 415.707 117.999 415.993 117.868C416.28 117.737 416.594 117.676 416.909 117.69H455.579C456.297 117.72 456.985 117.984 457.539 118.441C458.092 118.898 458.482 119.524 458.647 120.223L464.129 145.991C464.215 146.295 464.229 146.614 464.168 146.924C464.107 147.234 463.974 147.525 463.779 147.773C463.584 148.022 463.333 148.22 463.047 148.353C462.76 148.485 462.447 148.548 462.131 148.536Z" fill="#BFBFBF" stroke="#263238" stroke-linecap="round" stroke-linejoin="round"/>
</g>
<path d="M462.131 148.536H423.461C422.741 148.504 422.051 148.238 421.495 147.779C420.939 147.32 420.548 146.692 420.381 145.991L414.911 120.223C414.824 119.92 414.81 119.601 414.871 119.291C414.931 118.982 415.065 118.692 415.26 118.444C415.455 118.197 415.707 117.999 415.993 117.868C416.28 117.737 416.594 117.676 416.909 117.69H455.579C456.297 117.72 456.985 117.984 457.539 118.441C458.092 118.898 458.482 119.524 458.647 120.223L464.129 145.991C464.215 146.295 464.229 146.614 464.168 146.924C464.107 147.234 463.974 147.525 463.779 147.773C463.584 148.022 463.333 148.22 463.047 148.353C462.76 148.485 462.447 148.548 462.131 148.536Z" stroke="#263238" stroke-linecap="round" stroke-linejoin="round"/>
<path d="M388.75 107.654C386.935 107.579 385.219 106.806 383.961 105.495C382.703 104.184 382 102.437 382 100.62C382 98.8034 382.703 97.0568 383.961 95.7459C385.219 94.435 386.935 93.6613 388.75 93.5867H441.274C443.089 93.6613 444.806 94.435 446.064 95.7459C447.322 97.0568 448.024 98.8034 448.024 100.62C448.024 102.437 447.322 104.184 446.064 105.495C444.806 106.806 443.089 107.579 441.274 107.654H388.75Z" fill="white"/>
<path d="M388.75 107.654C386.935 107.579 385.219 106.806 383.961 105.495C382.703 104.184 382 102.437 382 100.62C382 98.8034 382.703 97.0568 383.961 95.7459C385.219 94.435 386.935 93.6613 388.75 93.5867H441.274C443.089 93.6613 444.806 94.435 446.064 95.7459C447.322 97.0568 448.024 98.8034 448.024 100.62C448.024 102.437 447.322 104.184 446.064 105.495C444.806 106.806 443.089 107.579 441.274 107.654H388.75Z" stroke="#263238" stroke-miterlimit="10"/>
<path d="M420.167 95.9885H388.75C387.562 96.0487 386.443 96.563 385.624 97.425C384.804 98.287 384.347 99.4308 384.347 100.62C384.347 101.809 384.804 102.953 385.624 103.815C386.443 104.677 387.562 105.192 388.75 105.252H418.027L420.167 95.9885Z" fill="#A6FFBF"/>
<path d="M419.311 211.322V148.524H504.203C504.204 149.311 504.049 150.091 503.747 150.817C503.445 151.544 503.002 152.203 502.443 152.757C501.888 153.314 501.228 153.755 500.501 154.055C499.775 154.355 498.996 154.508 498.21 154.505H428.099V220.657" stroke="#263238" stroke-linecap="round" stroke-linejoin="round"/>
<path d="M392.989 323.804H359.618C358.871 323.801 358.153 323.511 357.615 322.992C357.077 322.473 356.76 321.766 356.731 321.019L354.44 259.456C354.425 259.051 354.495 258.648 354.645 258.273C354.796 257.897 355.024 257.558 355.315 257.277C355.606 256.996 355.953 256.779 356.333 256.641C356.714 256.503 357.119 256.447 357.522 256.476L396.565 259.23C397.316 259.277 398.019 259.616 398.524 260.175C399.029 260.733 399.295 261.467 399.267 262.219L395.876 321.04C395.842 321.783 395.523 322.485 394.986 322.999C394.448 323.514 393.733 323.802 392.989 323.804Z" fill="#E2A6FF" stroke="#263238" stroke-linecap="round" stroke-linejoin="round"/>
<path d="M369.317 287.063C369.557 286.23 369.722 285.377 369.81 284.515C369.81 283.96 369.502 282.727 369.03 282.46C368.557 282.193 366.122 282.634 366.122 282.634C366.122 282.634 366.697 280.734 366.307 280.302C365.917 279.871 364.673 280.045 364.19 280.302C363.399 280.662 362.444 282.244 361.91 282.932C361.262 283.775 360.132 285.573 359.526 286.436C359.238 286.867 358.334 288.142 358.334 288.142L350.906 290.792L351.306 298.313L359.68 293.258C359.68 293.258 367.191 293.258 368.773 291.563C369.543 290.679 369.143 288.162 369.317 287.063Z" fill="white" stroke="#263238" stroke-linecap="round" stroke-linejoin="round"/>
<path d="M357.234 271.836C356.813 277.795 355.919 284.052 354.101 287.648H357.183C357.183 287.648 354.388 292.652 356.156 297.378C356.156 297.378 347.669 303.08 345.779 299.433C343.888 295.785 346.077 281.042 348.018 273.953C349.96 266.863 350.556 255.973 357.481 256.486" fill="#E2A6FF"/>
<path d="M357.234 271.836C356.813 277.795 355.919 284.052 354.101 287.648H357.183C357.183 287.648 354.388 292.652 356.156 297.378C356.156 297.378 347.669 303.08 345.779 299.433C343.888 295.785 346.077 281.042 348.018 273.953C349.96 266.863 350.556 255.973 357.481 256.486" stroke="#263238" stroke-linecap="round" stroke-linejoin="round"/>
<path d="M352.827 288.142C351.417 288.692 350.211 289.664 349.375 290.926" stroke="#263238" stroke-linecap="round" stroke-linejoin="round"/>
<path d="M369.399 268.785L370.797 268.6C371.025 268.568 371.257 268.582 371.48 268.64C371.703 268.698 371.912 268.8 372.095 268.939C372.279 269.079 372.432 269.253 372.548 269.452C372.664 269.651 372.739 269.871 372.769 270.1L374.341 281.638C374.373 281.867 374.36 282.099 374.302 282.323C374.243 282.546 374.142 282.756 374.002 282.94C373.863 283.124 373.689 283.279 373.49 283.396C373.29 283.513 373.07 283.589 372.841 283.621L371.444 283.806L369.399 268.785Z" fill="white" stroke="#263238" stroke-linecap="round" stroke-linejoin="round"/>
<path d="M367.022 284.417L371.633 283.788C372.73 283.639 373.498 282.629 373.348 281.532L371.842 270.477C371.692 269.38 370.682 268.613 369.586 268.762L364.974 269.391C363.878 269.54 363.11 270.55 363.26 271.646L364.766 282.702C364.916 283.798 365.925 284.566 367.022 284.417Z" fill="#BFBFBF"/>
<path d="M367.022 284.417L371.633 283.788C372.73 283.639 373.498 282.629 373.348 281.532L371.842 270.477C371.692 269.38 370.682 268.613 369.586 268.762L364.974 269.391C363.878 269.54 363.11 270.55 363.26 271.646L364.766 282.702C364.916 283.798 365.925 284.566 367.022 284.417Z" stroke="#263238" stroke-linecap="round" stroke-linejoin="round"/>
<path d="M364.324 271.281C364.335 271.364 364.363 271.444 364.405 271.516C364.448 271.589 364.504 271.652 364.571 271.702C364.637 271.753 364.713 271.79 364.795 271.811C364.876 271.832 364.96 271.837 365.043 271.826C365.126 271.814 365.206 271.787 365.278 271.744C365.35 271.702 365.414 271.646 365.464 271.579C365.515 271.512 365.552 271.436 365.573 271.355C365.594 271.274 365.599 271.19 365.587 271.107C365.562 270.94 365.473 270.79 365.338 270.688C365.204 270.587 365.035 270.541 364.868 270.562C364.785 270.573 364.705 270.601 364.633 270.643C364.561 270.686 364.497 270.742 364.447 270.809C364.396 270.875 364.359 270.952 364.338 271.033C364.317 271.114 364.312 271.198 364.324 271.281Z" fill="white" stroke="#263238" stroke-linecap="round" stroke-linejoin="round"/>
<path d="M365.495 282.655C365.351 281.799 365.282 280.933 365.29 280.066C365.392 279.511 365.793 278.319 366.317 278.072C366.841 277.826 369.194 278.576 369.194 278.576C369.194 278.576 368.824 276.614 369.266 276.233C369.708 275.853 370.92 276.161 371.321 276.429C372.071 276.87 372.841 278.555 373.293 279.295C373.838 280.21 374.763 282.11 375.266 283.045C375.513 283.508 376.293 284.864 376.293 284.864L382.931 287.905L379.848 293.484L374.403 289.806C374.403 289.806 366.934 288.953 365.546 287.104C364.868 286.21 365.546 283.795 365.495 282.655Z" fill="white" stroke="#263238" stroke-linecap="round" stroke-linejoin="round"/>
<path d="M395.979 262.394C396.143 261.654 396.318 260.925 396.513 260.205C396.553 260.019 396.644 259.848 396.776 259.71C396.907 259.572 397.075 259.474 397.259 259.426C397.444 259.378 397.638 259.382 397.82 259.438C398.002 259.494 398.165 259.6 398.291 259.743L398.547 260.021C399.908 261.47 400.886 263.236 401.393 265.158C403.202 272.011 407.116 289.23 404.342 301.868C404.183 302.577 403.778 303.208 403.199 303.648C402.62 304.088 401.904 304.309 401.178 304.272C396.092 303.964 387.194 302.69 377.465 293.052C377.465 293.052 379.519 288.234 381.934 286.58L395.393 292.015C394.755 287.199 394.453 282.345 394.489 277.487" fill="#E2A6FF"/>
<path d="M395.979 262.394C396.143 261.654 396.318 260.925 396.513 260.205C396.553 260.019 396.644 259.848 396.776 259.71C396.907 259.572 397.075 259.474 397.259 259.426C397.444 259.378 397.638 259.382 397.82 259.438C398.002 259.494 398.165 259.6 398.291 259.743L398.547 260.021C399.908 261.47 400.886 263.236 401.393 265.158C403.202 272.011 407.116 289.23 404.342 301.868C404.183 302.577 403.778 303.208 403.199 303.648C402.62 304.088 401.904 304.309 401.178 304.272C396.092 303.964 387.194 302.69 377.465 293.052C377.465 293.052 379.519 288.234 381.934 286.58L395.393 292.015C394.755 287.199 394.453 282.345 394.489 277.487" stroke="#263238" stroke-linecap="round" stroke-linejoin="round"/>
<path d="M396.554 292.888C397.111 293.188 397.602 293.596 397.999 294.089C398.396 294.581 398.691 295.147 398.866 295.755" stroke="#263238" stroke-linecap="round" stroke-linejoin="round"/>
<path d="M378.441 248.667L387.184 234.643C387.184 234.643 391.715 232.763 389.29 230.348C389.29 230.348 393.184 223.608 388.129 223.608C388.129 223.608 387.482 218.132 382.591 220.341C382.591 220.341 378.338 215.286 375.492 218.975C375.492 218.975 369.656 216.129 368.156 219.704C368.156 219.704 363.892 219.704 364.046 222.869C364.046 222.869 361.365 226.444 364.899 226.865C364.899 226.865 363.964 229.711 368.146 229.711C372.327 229.711 377.485 234.848 377.485 234.848L378.513 240.109L378.441 248.667Z" fill="#263238" stroke="#263238" stroke-linecap="round" stroke-linejoin="round"/>
<path d="M384.132 258.531C384.132 258.531 374.629 263.75 367.694 257.062C367.694 257.062 369.44 253.774 370.046 245.606L380.126 243.808C379.835 246.586 379.939 249.391 380.434 252.14C381.102 255.253 382.92 258.11 384.132 258.531Z" fill="white"/>
<mask id="mask8_2121_8" style="mask-type:luminance" maskUnits="userSpaceOnUse" x="367" y="243" width="18" height="18">
<path d="M384.132 258.531C384.132 258.531 374.629 263.75 367.694 257.062C367.694 257.062 369.44 253.774 370.046 245.606L380.126 243.808C379.835 246.586 379.939 249.391 380.434 252.14C381.102 255.253 382.92 258.11 384.132 258.531Z" fill="white"/>
</mask>
<g mask="url(#mask8_2121_8)">
<path d="M380.845 244.054L380.557 245.082C380.388 245.696 380.102 246.272 379.714 246.777C378.173 248.832 373.848 253.969 369.625 253.507C365.71 253.116 364.621 247.075 364.334 244.044L380.845 244.054Z" fill="#263238" stroke="#263238" stroke-linecap="round" stroke-linejoin="round"/>
</g>
<path d="M384.132 258.531C384.132 258.531 374.629 263.75 367.694 257.062C367.694 257.062 369.44 253.774 370.046 245.606L380.126 243.808C379.835 246.586 379.939 249.391 380.434 252.14C381.102 255.253 382.92 258.11 384.132 258.531Z" stroke="#263238" stroke-linecap="round" stroke-linejoin="round"/>
<path d="M365.721 228.232L364.129 233.307C363.953 233.844 363.903 234.413 363.985 234.972L364.211 236.472L363.379 239.811C363.338 239.984 363.307 240.159 363.286 240.335C363.112 242.092 362.433 251.462 367.396 252.664C371.783 253.692 377.126 248.965 379.057 247.044C379.538 246.567 379.921 246.002 380.187 245.38L381.297 242.852C381.931 242.946 382.578 242.84 383.149 242.549C383.72 242.259 384.186 241.797 384.482 241.229C385.509 239.174 386.845 238.013 384.862 236.595C382.879 235.177 381.626 238.054 381.626 238.054C381.626 238.054 381.687 234.438 381.215 233.349C380.742 232.259 379.109 230.996 378.687 230.05C378.481 229.318 378.343 228.568 378.276 227.811C378.276 227.811 371.495 227.996 366.677 226.156L365.721 228.232Z" fill="white" stroke="#263238" stroke-linecap="round" stroke-linejoin="round"/>
<path d="M365.721 228.232L364.129 233.307C363.953 233.844 363.903 234.413 363.985 234.972L364.211 236.472L363.379 239.811C363.338 239.984 363.307 240.159 363.286 240.335C363.112 242.092 362.433 251.462 367.396 252.664C371.783 253.692 377.126 248.965 379.057 247.044C379.538 246.567 379.921 246.002 380.187 245.38L381.297 242.852C381.931 242.946 382.578 242.84 383.149 242.549C383.72 242.259 384.186 241.797 384.482 241.229C385.509 239.174 386.845 238.013 384.862 236.595C382.879 235.177 381.626 238.054 381.626 238.054C381.626 238.054 381.687 234.438 381.215 233.349C380.742 232.259 379.109 230.996 378.687 230.05C378.481 229.318 378.343 228.568 378.276 227.811C378.276 227.811 371.495 227.996 366.677 226.156L365.721 228.232Z" fill="white" stroke="#263238" stroke-linecap="round" stroke-linejoin="round"/>
<path d="M368.875 238.26L366.389 242.257C366.319 242.39 366.279 242.538 366.272 242.688C366.265 242.839 366.292 242.989 366.35 243.128C366.407 243.268 366.495 243.392 366.607 243.494C366.718 243.595 366.851 243.671 366.995 243.716L369.183 244.229" stroke="#263238" stroke-linecap="round" stroke-linejoin="round"/>
<path d="M372.492 246.52C370.971 247.732 369.04 247.907 368.105 247.054" stroke="#263238" stroke-linecap="round" stroke-linejoin="round"/>
<path d="M372.225 239.616C372.132 240.212 371.824 240.643 371.536 240.643C371.249 240.643 371.105 240.078 371.208 239.493C371.31 238.907 371.608 238.465 371.896 238.465C372.184 238.465 372.348 239.051 372.225 239.616Z" fill="#263238"/>
<path d="M366.687 238.722C366.584 239.318 366.276 239.749 365.998 239.749C365.721 239.749 365.567 239.184 365.659 238.599C365.752 238.013 366.07 237.571 366.348 237.571C366.625 237.571 366.779 238.136 366.687 238.722Z" fill="#263238"/>
<path d="M364.365 235.136C364.441 234.885 364.572 234.654 364.749 234.459C364.926 234.265 365.144 234.113 365.388 234.015C365.631 233.916 365.894 233.874 366.156 233.89C366.418 233.906 366.673 233.981 366.902 234.109" stroke="#263238" stroke-linecap="round" stroke-linejoin="round"/>
<path d="M371.033 234.479C371.671 234.487 372.291 234.688 372.814 235.054C373.336 235.421 373.736 235.936 373.961 236.533" stroke="#263238" stroke-linecap="round" stroke-linejoin="round"/>
<path d="M380.3 227.728C380.3 227.728 374.742 231.777 374.084 228.848C374.084 228.848 369.461 229.958 369.153 228.407C369.153 228.407 364.529 230.256 364.015 228.818C363.502 227.379 367.704 223.557 367.704 223.557L377.475 224.8L380.3 227.728Z" fill="#263238" stroke="#263238" stroke-linecap="round" stroke-linejoin="round"/>
<path d="M368.947 222.745C368.324 223.981 367.544 225.131 366.625 226.167" stroke="#7F7F7F" stroke-linecap="round" stroke-linejoin="round"/>
<path d="M371.875 221.42C371.063 221.306 370.237 221.512 369.574 221.995" stroke="#7F7F7F" stroke-linecap="round" stroke-linejoin="round"/>
<path d="M383.187 224.821C380.485 224.564 380.105 226.876 375.923 226.742C371.978 226.578 373.807 223.526 373.18 222.119" stroke="#7F7F7F" stroke-linecap="round" stroke-linejoin="round"/>
<path d="M385.129 233.873C385.129 233.873 389.783 227.122 385.129 225.324" stroke="#7F7F7F" stroke-linecap="round" stroke-linejoin="round"/>
<path d="M351.512 446.571C350.551 446.881 349.669 447.397 348.929 448.084C348.189 448.771 347.608 449.612 347.227 450.547C347.153 450.711 347.123 450.891 347.14 451.07C347.157 451.249 347.221 451.42 347.325 451.567C347.429 451.714 347.569 451.83 347.732 451.906C347.896 451.981 348.076 452.012 348.255 451.996H363.368C363.659 451.999 363.941 451.897 364.162 451.708C364.383 451.519 364.528 451.256 364.57 450.969C364.818 449.073 364.563 447.145 363.831 445.379L364.663 436.071H355.837L355.159 444.979L351.512 446.571Z" fill="white" stroke="#263238" stroke-linecap="round" stroke-linejoin="round"/>
<path d="M361.139 446.479C362.721 448.687 362.331 445.379 363.789 445.379C364.521 447.145 364.777 449.073 364.529 450.968C364.487 451.256 364.342 451.519 364.121 451.708C363.9 451.896 363.618 451.999 363.327 451.996H348.214C348.035 452.012 347.854 451.981 347.691 451.906C347.528 451.83 347.387 451.714 347.283 451.567C347.179 451.42 347.116 451.249 347.099 451.07C347.082 450.891 347.112 450.711 347.186 450.547C347.567 449.612 348.147 448.771 348.888 448.084C349.628 447.397 350.509 446.881 351.471 446.571L355.077 444.978C355.077 444.978 359.567 444.27 361.139 446.479Z" fill="#BFBFBF" stroke="#263238" stroke-linecap="round" stroke-linejoin="round"/>
<path d="M364.57 450.65C364.57 450.763 364.57 450.876 364.57 450.969C364.528 451.256 364.383 451.519 364.162 451.708C363.941 451.897 363.659 451.999 363.368 451.996H348.214C348.05 452.003 347.886 451.971 347.737 451.902C347.588 451.833 347.458 451.729 347.357 451.599C347.257 451.469 347.189 451.317 347.159 451.156C347.129 450.994 347.139 450.828 347.186 450.671C348.214 450.671 348.933 450.671 348.933 450.671L364.57 450.65Z" fill="white" stroke="#263238" stroke-linecap="round" stroke-linejoin="round"/>
<path d="M357.728 322.499L354.645 441.681H365.536C365.536 441.681 368.906 411.885 369.296 401.858C369.471 397.378 370.386 389.528 370.694 385.008C371.238 376.901 372.502 367.87 375.615 352.13C376.119 349.592 379.17 345.205 379.817 342.688C381.081 337.787 381.615 322.468 381.615 322.468L357.728 322.499Z" fill="#263238" stroke="#263238" stroke-linecap="round" stroke-linejoin="round"/>
<path d="M365.279 393.217C365.279 393.217 362.793 396.504 359.341 396.063" stroke="#7F7F7F" stroke-linecap="round" stroke-linejoin="round"/>
<path d="M356.433 390.083C356.433 390.083 360.368 392.426 366.225 390.083" stroke="#7F7F7F" stroke-linecap="round" stroke-linejoin="round"/>
<path d="M404.61 446.571C406.017 447.188 408.185 448.102 409.007 450.866C409.041 450.999 409.045 451.139 409.017 451.274C408.989 451.409 408.931 451.536 408.847 451.645C408.763 451.754 408.655 451.842 408.531 451.903C408.407 451.964 408.271 451.996 408.134 451.996H393.02C392.661 451.996 392.314 451.864 392.045 451.626C391.776 451.387 391.604 451.058 391.561 450.701C391.38 448.89 391.648 447.062 392.342 445.379L391.5 436.071H400.335L401.003 444.979L404.61 446.571Z" fill="white" stroke="#263238" stroke-linecap="round" stroke-linejoin="round"/>
<path d="M409.007 450.866C409.041 450.999 409.045 451.139 409.017 451.274C408.989 451.409 408.931 451.536 408.847 451.645C408.762 451.754 408.654 451.842 408.531 451.903C408.407 451.964 408.271 451.996 408.133 451.996H393.02C392.66 451.996 392.313 451.864 392.045 451.626C391.776 451.387 391.604 451.058 391.561 450.701C391.38 448.89 391.648 447.062 392.342 445.379C393.76 445.143 392.845 448.215 395.178 446.324C397.51 444.434 401.003 444.979 401.003 444.979L404.609 446.571C406.017 447.157 408.185 448.102 409.007 450.866Z" fill="#BFBFBF" stroke="#263238" stroke-linecap="round" stroke-linejoin="round"/>
<path d="M408.925 450.65C408.925 450.732 408.986 450.794 409.007 450.866C409.041 450.999 409.045 451.139 409.017 451.274C408.99 451.409 408.931 451.536 408.847 451.645C408.763 451.754 408.655 451.842 408.531 451.903C408.407 451.964 408.272 451.996 408.134 451.996H393.02C392.661 451.996 392.314 451.864 392.045 451.626C391.776 451.387 391.604 451.058 391.561 450.702V450.65H408.925Z" fill="white" stroke="#263238" stroke-linecap="round" stroke-linejoin="round"/>
<path d="M394.828 322.519C394.828 322.519 396.37 334.366 396.596 338.342C396.719 340.695 396.513 345.421 396.596 347.774C396.883 356.835 398.013 374.949 398.907 383.96C399.37 388.706 401.127 398.107 401.445 402.864C402.103 412.553 401.445 441.722 401.445 441.722H390.503C390.503 441.722 386.064 408.844 384.914 397.809C384.503 393.895 379.961 354.996 376.869 346.52C376.283 344.897 374.948 342.174 374.393 340.54C373.286 337.114 372.481 333.597 371.989 330.03C371.824 328.16 371.711 322.54 371.711 322.54L394.828 322.519Z" fill="#263238" stroke="#263238" stroke-linecap="round" stroke-linejoin="round"/>
<path d="M396.842 388.758C396.842 388.758 394.787 392.487 387.595 392.487" stroke="#7F7F7F" stroke-linecap="round" stroke-linejoin="round"/>
<path d="M376.663 347.301C376.078 345.749 374.742 343.191 374.187 341.598C373.335 339.205 371.989 329.999 371.711 322.509" stroke="#7F7F7F" stroke-linecap="round" stroke-linejoin="round"/>
<path d="M386.485 400.594C388.573 410.942 392.637 420.79 398.455 429.598" stroke="#7F7F7F" stroke-linecap="round" stroke-linejoin="round"/>
<path d="M355.663 399.125C356.36 408.735 358.859 418.128 363.029 426.814" stroke="#7F7F7F" stroke-linecap="round" stroke-linejoin="round"/>
<path d="M385.109 245.298H413.034C415.223 245.298 417 247.835 417 250.969V260.411C417 263.493 415.223 266.072 413.034 266.072H390.76L381.77 272.052L385.109 266.072C382.92 266.072 381.153 263.534 381.153 260.411V250.969C381.153 247.835 382.92 245.298 385.109 245.298Z" fill="white" stroke="#263238" stroke-linecap="round" stroke-linejoin="round"/>
<path d="M410.702 251.092H387.081" stroke="#263238" stroke-linecap="round" stroke-linejoin="round"/>
<path d="M410.702 255.284H388.9" stroke="#263238" stroke-linecap="round" stroke-linejoin="round"/>
<path d="M410.702 259.486H387.081" stroke="#263238" stroke-linecap="round" stroke-linejoin="round"/>
<path d="M45.8125 186.729H75.3446C76.6834 186.836 77.942 187.41 78.9003 188.351C79.8586 189.292 80.4555 190.54 80.5866 191.877L87.5485 254.652C87.8129 257.078 88.9647 259.321 90.7825 260.95C92.6003 262.578 94.9558 263.478 97.3965 263.475" stroke="#263238" stroke-linecap="round" stroke-linejoin="round"/>
<path d="M126.069 271.379V277.163H55.9784C53.4882 277.162 51.0897 276.223 49.2604 274.534C47.4312 272.844 46.3053 270.528 46.1069 268.045L40.0167 192.713C39.9556 191.927 40.0626 191.136 40.3304 190.395C40.5982 189.653 41.0208 188.977 41.57 188.411C42.1193 187.845 42.7827 187.402 43.5162 187.112C44.2496 186.822 45.0364 186.691 45.8242 186.729C47.1617 186.836 48.4188 187.411 49.3751 188.352C50.3314 189.293 50.9259 190.541 51.0544 191.877L58.0163 254.652C58.2862 257.08 59.4428 259.323 61.2644 260.951C63.0861 262.58 65.4446 263.478 67.8878 263.475H118.176C120.27 263.478 122.278 264.312 123.758 265.794C125.237 267.276 126.069 269.285 126.069 271.379Z" stroke="#263238" stroke-linecap="round" stroke-linejoin="round"/>
<mask id="mask9_2121_8" style="mask-type:luminance" maskUnits="userSpaceOnUse" x="83" y="277" width="10" height="20">
<path d="M92.9083 295.563V277.163H83.6729V296.729" fill="white"/>
</mask>
<g mask="url(#mask9_2121_8)">
<path d="M110.814 332.846H92.9083V275.125H83.6729V332.846H65.7676C64.2836 332.846 62.8603 333.436 61.811 334.485C60.7616 335.534 60.1721 336.957 60.1721 338.441H116.409C116.411 337.706 116.267 336.978 115.986 336.298C115.706 335.619 115.294 335.001 114.774 334.481C114.254 333.962 113.636 333.549 112.957 333.269C112.277 332.988 111.549 332.845 110.814 332.846Z" stroke="#263238" stroke-linecap="round" stroke-linejoin="round"/>
</g>
<path d="M92.9083 295.563V277.163H83.6729V296.729" stroke="#263238" stroke-linecap="round" stroke-linejoin="round"/>
<path d="M125.409 316.755L126.304 329.489L135.928 329.206L135.398 315.459L125.409 316.755Z" fill="white" stroke="#263238" stroke-linecap="round" stroke-linejoin="round"/>
<path d="M125.597 334.224C125.597 334.224 141.064 334.849 146.165 334.224C147.755 334.036 151.466 334.001 152.373 332.681C152.82 332.045 152.019 329.607 152.019 329.607L143.95 327.157L138.378 324.094C137.947 323.854 137.451 323.755 136.961 323.812C136.47 323.869 136.01 324.079 135.645 324.412L135.009 324.989C134.747 325.227 134.542 325.522 134.41 325.85C134.277 326.178 134.221 326.532 134.244 326.886V327.157L133.325 326.52C132.928 326.243 132.455 326.095 131.97 326.096H125.314C124.152 328.011 123.601 330.234 123.736 332.469C123.757 332.946 123.964 333.396 124.311 333.724C124.658 334.052 125.12 334.231 125.597 334.224Z" fill="#263238" stroke="#263238" stroke-linecap="round" stroke-linejoin="round"/>
<path d="M94.3337 302.077L87.949 312.608L95.7001 318.31L103.015 307.213L94.3337 302.077Z" fill="white" stroke="#263238" stroke-linecap="round" stroke-linejoin="round"/>
<path d="M121.133 255.299C121.133 255.299 110.602 260.2 91.2237 305.481C92.2864 307.225 93.7194 308.713 95.4213 309.841C97.1231 310.968 99.0521 311.708 101.072 312.007C101.072 312.007 147.39 254.922 141.477 244.862C135.928 235.438 84.3796 238.972 84.3796 238.972L85.0511 261.59C85.0511 261.59 116.056 260.011 121.133 255.299Z" fill="#B7CFBE" stroke="#263238" stroke-linecap="round" stroke-linejoin="round"/>
<path d="M97.5262 133.389C97.5262 133.389 88.2672 126.428 79.2085 132.459C70.1498 138.49 64.413 152.744 69.2545 158.375C70.7176 160.035 72.537 161.344 74.5768 162.203C76.6166 163.061 78.8241 163.448 81.0344 163.334C81.0344 163.334 90.2109 170.402 93.9922 169.224C97.7735 168.046 104.182 158.221 104.465 149.422C104.747 140.622 107.598 134.132 97.5262 133.389Z" fill="#263238" stroke="#263238" stroke-linecap="round" stroke-linejoin="round"/>
<path d="M88.3139 164.595C88.3139 164.595 85.7459 168.128 85.8754 171.144L73.7893 166.951C73.7893 166.951 78.8429 159.612 80.0444 152.426C81.246 145.24 88.3139 164.595 88.3139 164.595Z" fill="white"/>
<mask id="mask10_2121_8" style="mask-type:luminance" maskUnits="userSpaceOnUse" x="73" y="150" width="16" height="22">
<path d="M88.3139 164.595C88.3139 164.595 85.7459 168.128 85.8754 171.144L73.7893 166.951C73.7893 166.951 78.8429 159.612 80.0444 152.426C81.246 145.24 88.3139 164.595 88.3139 164.595Z" fill="white"/>
</mask>
<g mask="url(#mask10_2121_8)">
<path d="M79.7737 155.689C79.9622 159.329 80.9517 160.872 83.9791 163.935C87.513 167.469 89.7866 170.319 94.9108 163.935C98.3034 159.694 99.3518 156.996 99.6227 155.689H79.7737Z" fill="#263238" stroke="#263238" stroke-linecap="round" stroke-linejoin="round"/>
</g>
<path d="M88.3139 164.595C88.3139 164.595 85.7459 168.128 85.8754 171.144L73.7893 166.951C73.7893 166.951 78.8429 159.612 80.0444 152.426C81.246 145.24 88.3139 164.595 88.3139 164.595Z" stroke="#263238" stroke-linecap="round" stroke-linejoin="round"/>
<path d="M61.7744 240.362C61.7744 240.362 52.8217 259.905 67.9117 263.156C83.0017 266.408 114.878 259.316 114.878 259.316C114.878 259.316 117.47 284.549 124.82 321.184C128.827 321.564 132.869 321.242 136.765 320.23C136.765 320.23 136.306 252.024 130.156 243.661C124.007 235.297 77.9717 235.945 61.7744 240.362Z" fill="#B7CFBE" stroke="#263238" stroke-linecap="round" stroke-linejoin="round"/>
<path d="M59.5125 240.386C59.5125 240.386 61.7388 242.883 76.5108 237.889L95.123 237.17C95.123 237.17 102.073 205.694 99.8349 193.973C98.5841 187.167 96.9161 180.444 94.8402 173.842C84.9855 170.111 74.4127 168.665 63.9181 169.613C63.3497 169.669 62.8269 169.949 62.4647 170.391C62.1024 170.833 61.9303 171.4 61.9862 171.969C62.905 180.733 65.6262 209.358 59.5125 240.386Z" fill="#63BFED" stroke="#263238" stroke-linecap="round" stroke-linejoin="round"/>
<path d="M94.9341 173.841C94.9341 173.841 102.662 175.561 102.662 184.773C102.662 193.985 101.766 208.945 101.766 208.945L111.756 222.48C111.756 222.48 107.48 224.836 106.832 228.83C106.832 228.83 91.8949 216.543 91.0468 212.338C90.1986 208.132 94.9341 173.841 94.9341 173.841Z" fill="#63BFED" stroke="#263238" stroke-linecap="round" stroke-linejoin="round"/>
<path d="M96.5363 206.602L97.2785 209.346L95.217 207.391L89.0443 197.001C88.9407 196.824 88.911 196.614 88.9617 196.415C89.0124 196.217 89.1395 196.046 89.3153 195.941C89.492 195.837 89.7026 195.807 89.9011 195.858C90.0996 195.909 90.2701 196.036 90.3755 196.212L96.5363 206.602Z" fill="white" stroke="#263238" stroke-linecap="round" stroke-linejoin="round"/>
<path d="M80.4331 208.31C82.2393 207.057 83.8577 205.554 85.2393 203.845C87.183 201.301 87.8309 199.804 89.3623 200.311C90.8937 200.818 96.4302 202.29 95.6056 204.057C95.6322 204.813 95.3855 205.553 94.9106 206.142C94.5237 206.938 93.9596 207.636 93.2614 208.18C92.1659 208.981 91.8125 208.639 91.8125 208.639C91.8125 208.639 91.0468 209.275 90.552 209.111C90.552 209.111 89.3741 211.172 85.4278 211.961L74.8259 216.485L73.7422 209.676L80.4331 208.31Z" fill="white" stroke="#263238" stroke-linecap="round" stroke-linejoin="round"/>
<path d="M87.9016 202.608C88.3697 203.043 88.8741 203.437 89.4094 203.786C90.128 204.234 92.6488 205.553 92.5664 206.389C92.4839 207.226 90.7641 208.851 90.2104 208.745C89.6568 208.639 87.6777 207.897 87.7249 207.45C87.5444 207.798 87.4173 208.171 87.3479 208.557C87.3458 209.077 87.2407 209.592 87.0385 210.071C86.8363 210.55 86.5411 210.984 86.1699 211.349" stroke="#263238" stroke-linecap="round" stroke-linejoin="round"/>
<path d="M94.9107 206.154C94.7835 205.704 94.4938 205.318 94.0979 205.07C92.8468 204.355 91.6638 203.527 90.564 202.596" stroke="#263238" stroke-linecap="round" stroke-linejoin="round"/>
<path d="M95.6058 204.069C95.328 203.793 95.0151 203.555 94.6752 203.362C93.3856 202.493 92.0217 201.74 90.5994 201.112" stroke="#263238" stroke-linecap="round" stroke-linejoin="round"/>
<path d="M88.2905 206.931C88.2905 206.931 89.1269 206.637 89.4685 206.931C89.8101 207.226 89.763 207.638 90.14 208.038" stroke="#263238" stroke-linecap="round" stroke-linejoin="round"/>
<path d="M89.4332 206.908C88.9156 206.556 88.4747 206.104 88.1375 205.577" stroke="#263238" stroke-linecap="round" stroke-linejoin="round"/>
<path d="M64.9664 196.53C64.8133 199.475 63.2466 211.467 63.2466 211.467C68.4417 209.78 73.7868 208.597 79.2083 207.933C79.2083 207.933 78.3837 211.09 80.7986 215.601C80.7986 215.601 58.5817 224.319 54.0112 223.388C49.4406 222.457 50.1827 212.598 51.9379 190.699C53.6931 168.8 64.0123 169.625 64.0123 169.625" fill="#63BFED"/>
<path d="M64.9664 196.53C64.8133 199.475 63.2466 211.467 63.2466 211.467C68.4417 209.78 73.7868 208.597 79.2083 207.933C79.2083 207.933 78.3837 211.09 80.7986 215.601C80.7986 215.601 58.5817 224.319 54.0112 223.388C49.4406 222.457 50.1827 212.598 51.9379 190.699C53.6931 168.8 64.0123 169.625 64.0123 169.625" stroke="#263238" stroke-linecap="round" stroke-linejoin="round"/>
<path d="M79.8208 215.59C79.8208 215.59 70.7267 219.124 62.9756 221.48" stroke="#7F7F7F" stroke-linecap="round" stroke-linejoin="round"/>
<path d="M63.9884 196.53C63.8353 199.475 62.2686 211.466 62.2686 211.466C67.4595 209.78 72.8008 208.596 78.2185 207.932" stroke="#7F7F7F" stroke-linecap="round" stroke-linejoin="round"/>
<path d="M71.0452 169.307C71.0452 169.307 73.6485 167.716 73.6485 165.608C73.6485 163.499 85.2752 169.636 87.9375 169.283C90.5997 168.93 89.1155 171.227 88.8328 171.875C88.1613 174.018 86.2294 176.669 71.0452 169.307Z" fill="#263238" stroke="#263238" stroke-linecap="round" stroke-linejoin="round"/>
<path d="M88.8206 171.875C88.1374 173.854 86.3704 176.386 73.283 170.414" stroke="#7F7F7F" stroke-linecap="round" stroke-linejoin="round"/>
<path d="M101.355 145.912L100.177 153.227C100.177 153.227 100.377 156.148 95.2644 162.533C90.1519 168.918 87.8431 166.067 84.3327 162.533C80.8223 158.999 80.0684 157.468 80.0919 152.414C80.0919 152.414 78.2896 152.155 77.1823 148.88C76.075 145.605 80.1155 144.333 81.1403 146.418L87.1834 143.391L90.953 138.855L93.1087 135.981L97.5261 137.63L102.238 140.458L101.355 145.912Z" fill="white" stroke="#263238" stroke-linecap="round" stroke-linejoin="round"/>
<path d="M95.9474 153.463C95.9474 153.463 94.0626 155.395 95.6411 157.256C97.7733 159.788 93.2852 159.011 93.2852 159.765" stroke="#263238" stroke-linecap="round" stroke-linejoin="round"/>
<path d="M90.9175 160.601C90.9175 160.601 89.4686 160.966 86.9595 158.469" stroke="#263238" stroke-linecap="round" stroke-linejoin="round"/>
<path d="M91.7422 153.062C91.4713 153.686 91.0472 154.11 90.7999 154.004C90.5525 153.898 90.576 153.298 90.7999 152.673C91.0237 152.049 91.4949 151.625 91.7422 151.731C91.9896 151.837 92.0132 152.426 91.7422 153.062Z" fill="#263238"/>
<path d="M97.2669 155.571C97.0313 156.136 96.6544 156.513 96.4306 156.419C96.2067 156.325 96.2185 155.783 96.4306 155.241C96.6426 154.699 97.0431 154.287 97.2669 154.393C97.4908 154.499 97.5143 155.005 97.2669 155.571Z" fill="#263238"/>
<path d="M94.7458 148.374C94.1544 147.941 93.4406 147.708 92.7078 147.708C91.9751 147.708 91.2613 147.941 90.6699 148.374" stroke="#263238" stroke-linecap="round" stroke-linejoin="round"/>
<path d="M98.5508 150.529C98.844 150.629 99.1064 150.803 99.3127 151.034C99.5191 151.265 99.6624 151.546 99.7288 151.848" stroke="#263238" stroke-linecap="round" stroke-linejoin="round"/>
<path d="M81.4348 143.391C81.4348 143.391 78.7844 150.129 82.4479 153.05C82.4479 153.05 85.4871 144.368 91.7776 143.391C98.068 142.413 100.648 140.457 100.648 140.457C100.648 140.457 99.8939 149.033 101.614 151.142C103.334 153.25 103.298 141.27 103.298 141.27L101.614 137.159L92.4961 133.566L84.6861 137.23L81.4348 143.391Z" fill="#263238" stroke="#263238" stroke-linecap="round" stroke-linejoin="round"/>
<path d="M79.8207 153.545C79.8207 153.545 78.5721 161.037 81.4346 161.791C84.2971 162.545 77.3352 162.686 73.7306 161.025C70.1259 159.364 78.5014 152.614 78.5014 152.614L79.8207 153.545Z" fill="#263238" stroke="#263238" stroke-linecap="round" stroke-linejoin="round"/>
<path d="M96.2186 206.177H97.5733L93.0734 234.614H91.7187C91.542 234.618 91.3668 234.581 91.206 234.508C91.0452 234.435 90.903 234.326 90.7899 234.19C90.6768 234.055 90.5956 233.895 90.5525 233.724C90.5093 233.552 90.5053 233.374 90.5407 233.2L94.593 207.591C94.6644 207.206 94.864 206.857 95.1592 206.601C95.4544 206.344 95.8278 206.195 96.2186 206.177Z" fill="white" stroke="#263238" stroke-linecap="round" stroke-linejoin="round"/>
<path d="M92.6489 234.614H109.141C109.535 234.604 109.913 234.457 110.212 234.199C110.51 233.942 110.71 233.589 110.778 233.2L114.83 207.591C114.866 207.418 114.862 207.239 114.819 207.068C114.775 206.896 114.694 206.737 114.581 206.601C114.468 206.465 114.326 206.357 114.165 206.283C114.004 206.21 113.829 206.174 113.652 206.177H97.2077C96.8142 206.19 96.4369 206.337 96.1389 206.595C95.8409 206.852 95.6402 207.204 95.5703 207.591L91.518 233.2C91.4834 233.37 91.4865 233.544 91.527 233.712C91.5674 233.88 91.6444 234.037 91.7523 234.172C91.8602 234.307 91.9964 234.417 92.1514 234.493C92.3063 234.569 92.4762 234.611 92.6489 234.614Z" fill="white" stroke="#263238" stroke-linecap="round" stroke-linejoin="round"/>
<path d="M109.989 211.196H111.485C111.736 211.188 111.977 211.094 112.166 210.928C112.355 210.763 112.481 210.537 112.522 210.289L112.769 208.793C112.79 208.682 112.786 208.567 112.757 208.458C112.728 208.348 112.675 208.247 112.602 208.161C112.528 208.075 112.436 208.007 112.333 207.961C112.229 207.915 112.116 207.894 112.003 207.897H110.507C110.257 207.906 110.017 207.999 109.827 208.162C109.636 208.325 109.507 208.547 109.459 208.793L109.223 210.289C109.2 210.401 109.203 210.516 109.231 210.627C109.259 210.738 109.312 210.841 109.385 210.929C109.459 211.016 109.552 211.086 109.656 211.132C109.761 211.178 109.875 211.2 109.989 211.196Z" stroke="#263238" stroke-linecap="round" stroke-linejoin="round"/>
<path d="M110.401 209.546C110.387 209.62 110.389 209.695 110.409 209.767C110.428 209.84 110.463 209.907 110.512 209.963C110.56 210.02 110.621 210.065 110.69 210.095C110.759 210.125 110.833 210.138 110.908 210.135C111.071 210.126 111.226 210.063 111.349 209.956C111.473 209.85 111.558 209.706 111.591 209.546C111.605 209.472 111.602 209.396 111.583 209.323C111.564 209.25 111.529 209.183 111.481 209.125C111.432 209.068 111.371 209.022 111.303 208.991C111.234 208.96 111.16 208.944 111.084 208.945C110.92 208.956 110.764 209.02 110.64 209.129C110.516 209.238 110.432 209.384 110.401 209.546Z" stroke="#263238" stroke-linecap="round" stroke-linejoin="round"/>
<path d="M111.52 225.143C111.52 225.143 113.087 220.572 114.253 221.609C115.172 222.445 113.605 225.143 113.605 225.143H111.52Z" fill="white" stroke="#263238" stroke-linecap="round" stroke-linejoin="round"/>
<path d="M115.337 226.91C115.608 226.392 116.515 225.202 116.162 224.707C115.585 223.789 112.887 224.012 111.85 224.319C111.179 224.455 110.547 224.741 110.001 225.155C109.848 225.367 109.636 225.991 109.813 226.18C109.989 226.368 111.155 226.027 111.603 226.015C112.396 226.08 113.184 226.202 113.959 226.38C113.081 226.656 112.183 226.865 111.273 227.004C110.331 227.004 106.879 226.427 107.739 228.43C107.739 228.43 106.467 228.819 107.197 229.773C107.928 230.727 110.402 230.644 110.402 230.644C109.837 230.802 109.256 230.889 108.67 230.904C107.68 230.904 106.915 230.15 106.82 230.68C106.679 231.493 107.421 232.176 108.47 232.565C108.983 232.784 109.536 232.898 110.095 232.898C110.654 232.898 111.207 232.784 111.721 232.565C113.476 231.928 114.583 228.406 115.337 226.91Z" fill="white" stroke="#263238" stroke-linecap="round" stroke-linejoin="round"/>
<path d="M108.528 228.736C109.441 228.935 110.365 229.073 111.296 229.148C111.94 229.161 112.578 229.037 113.169 228.783" stroke="#263238" stroke-linecap="round" stroke-linejoin="round"/>
<path d="M100.518 204.387C100.821 200.916 100.731 197.423 100.247 193.973C98.9514 187.047 97.4435 181.263 96.4187 177.705" stroke="#7F7F7F" stroke-linecap="round" stroke-linejoin="round"/>
<path d="M83.567 315.011C83.567 315.011 94.0393 326.355 98.068 329.512C99.3284 330.502 101.967 333.046 103.522 332.823C104.288 332.693 105.43 330.408 105.43 330.408L101.484 322.986L99.6936 316.908C99.557 316.437 99.2771 316.021 98.8928 315.717C98.5086 315.413 98.039 315.236 97.5497 315.212H96.6897C96.3413 315.195 95.9936 315.257 95.6717 315.391C95.3498 315.526 95.0619 315.73 94.8285 315.989L94.64 316.201L94.4398 315.094C94.3527 314.62 94.1225 314.184 93.7801 313.845L89.0682 309.133C86.9118 309.658 84.9674 310.829 83.4963 312.491C83.1788 312.838 83.0088 313.295 83.022 313.765C83.0351 314.236 83.2306 314.682 83.567 315.011Z" fill="#263238" stroke="#263238" stroke-linecap="round" stroke-linejoin="round"/>
<path d="M116.22 256.618C116.22 256.618 119.542 252.048 121.368 251.141" stroke="#263238" stroke-linecap="round" stroke-linejoin="round"/>
<defs>
<linearGradient id="paint0_linear_2121_8" x1="-86" y1="-66" x2="422" y2="456" gradientUnits="userSpaceOnUse">
<stop stop-color="#4265CF"/>
<stop offset="0.984375" stop-color="#6484E5"/>
</linearGradient>
</defs>
</svg>
