<svg width="563" height="456" viewBox="0 0 563 456" fill="none" xmlns="http://www.w3.org/2000/svg">
<rect width="563" height="456" rx="31" fill="url(#paint0_linear_2121_7)"/>
<path d="M275.046 68.285L267.83 67.8879C265.601 71.4743 262.111 74.097 258.046 75.2403C253.98 76.3836 249.635 75.9647 245.863 74.0661C242.091 72.1675 239.165 68.9265 237.662 64.9803C236.159 61.0342 236.186 56.6683 237.738 52.7412C239.291 48.8141 242.256 45.6099 246.052 43.7585C249.847 41.9071 254.198 41.5425 258.248 42.7365C262.299 43.9304 265.756 46.5964 267.941 50.2104C270.125 53.8244 270.879 58.1248 270.053 62.2661L275.046 68.285Z" fill="#FFDADA"/>
<path d="M275.046 68.2852L270.135 62.2136C270.121 62.2054 270.104 62.2024 270.088 62.2051C270.072 62.2077 270.057 62.216 270.047 62.2283L270.17 62.2663C270.768 59.3491 270.581 56.3254 269.627 53.5044C269.351 52.6658 268.998 51.8543 268.573 51.0801C268.344 50.6763 268.126 50.2642 267.882 49.8563L267.039 48.6968C264.405 45.2437 260.547 42.932 256.26 42.2377C253.898 41.8452 251.48 41.9599 249.166 42.5741C246.725 43.2434 244.461 44.4438 242.537 46.0895C240.521 47.8022 238.942 49.9701 237.929 52.414C236.877 54.9035 236.436 57.6091 236.644 60.304C236.863 62.8771 237.658 65.3681 238.969 67.5927C240.199 69.7025 241.881 71.5134 243.895 72.8949C247.513 75.3776 251.946 76.375 256.279 75.681C258.104 75.3554 259.869 74.7524 261.512 73.893C264.125 72.4983 266.322 70.4371 267.881 67.9186L267.824 67.9281L275.03 68.2683L267.804 67.8079C267.794 67.805 267.782 67.8045 267.771 67.8063C267.761 67.8081 267.75 67.8123 267.741 67.8185C266.181 70.3048 263.992 72.3351 261.396 73.7043C259.768 74.547 258.021 75.1361 256.215 75.4512C251.935 76.1195 247.563 75.1245 243.994 72.6704C242.016 71.2996 240.362 69.5116 239.15 67.4325C237.859 65.2392 237.079 62.7833 236.868 60.2472C236.658 57.5977 237.086 54.9365 238.117 52.4867C239.109 50.0771 240.663 47.9396 242.649 46.2529C244.557 44.6414 246.796 43.4697 249.207 42.8208C251.489 42.2065 253.875 42.0861 256.207 42.4675C260.421 43.1568 264.217 45.4154 266.834 48.7895C267.108 49.1859 267.381 49.5759 267.677 49.949C267.973 50.3222 268.136 50.7564 268.362 51.1348C268.783 51.9108 269.135 52.722 269.415 53.5591C270.367 56.3507 270.567 59.3434 269.996 62.2368C269.994 62.2451 269.994 62.2538 269.996 62.2622C269.998 62.2706 270.001 62.2785 270.006 62.2856C270.011 62.2927 270.017 62.2987 270.024 62.3034C270.031 62.308 270.039 62.3112 270.048 62.3127C270.059 62.3187 270.072 62.3208 270.084 62.3187C270.097 62.3166 270.109 62.3104 270.117 62.3011L270.003 62.32L275.046 68.2852Z" fill="#263238"/>
<path d="M244.42 60.8287L246.407 58.0474L251.693 61.3724L259.282 51.1716L261.892 53.1872L252.117 66.0268L244.42 60.8287Z" fill="#8A7272"/>
<path d="M59.5999 55.8999H45.8999V92.8999H59.5999V55.8999Z" fill="#DCD6F7"/>
<path d="M79.5999 47.1001H65.8999V92.9001H79.5999V47.1001Z" fill="#DCD6F7"/>
<path d="M99.5999 66.5H85.8999V92.9H99.5999V66.5Z" fill="#DCD6F7"/>
<path d="M119.6 40H105.9V92.9H119.6V40Z" fill="#DCD6F7"/>
<path d="M40 33V92.9H125.8" stroke="#C1BCD9" stroke-miterlimit="10"/>
<path d="M260.4 176.3C260.4 179.6 257.8 182.2 254.5 182.2C251.2 182.2 248.6 179.6 248.6 176.3C248.6 173 251.2 170.4 254.5 170.4C257.7 170.4 260.4 173 260.4 176.3Z" stroke="#DCD6F7" stroke-miterlimit="10"/>
<path d="M519.4 66L515.4 70L511.3 66L509 68.3L513.1 72.4L509 76.4L511.3 78.7L515.4 74.7L519.4 78.7L521.8 76.4L517.7 72.4L521.8 68.3L519.4 66Z" fill="#DCD6F7"/>
<path d="M237.599 207.84L237.804 207.531L237.567 207.245L231.51 199.941L244.538 186.904L251.836 192.965L252.119 193.199L252.428 193C257.909 189.45 263.873 187.031 270.08 185.74L270.44 185.665L270.476 185.3L271.408 175.815H289.788L290.72 185.3L290.757 185.67L291.122 185.741C297.324 186.95 303.285 189.368 308.764 192.997L309.074 193.202L309.359 192.965L316.658 186.904L329.686 199.941L323.629 207.245L323.395 207.528L323.594 207.836C327.141 213.321 329.559 219.29 330.848 225.5L330.923 225.86L331.289 225.896L340.766 226.829V245.223L331.289 246.156L330.923 246.192L330.848 246.552C329.558 252.767 327.221 258.733 323.597 264.212L323.392 264.522L323.629 264.807L329.686 272.112L316.658 285.148L309.359 279.088L309.077 278.853L308.768 279.053C303.287 282.602 297.322 285.022 291.116 286.312L290.756 286.387L290.72 286.753L289.788 296.237H271.408L270.476 286.753L270.44 286.387L270.08 286.312C263.87 285.021 257.908 282.682 252.432 279.056L252.122 278.85L251.836 279.088L244.538 285.148L231.51 272.112L237.567 264.807L237.801 264.525L237.602 264.217C234.055 258.731 231.637 252.763 230.348 246.552L230.273 246.192L229.907 246.156L220.43 245.223V226.829L229.907 225.896L230.273 225.86L230.348 225.5C231.638 219.286 233.975 213.32 237.599 207.84ZM299.384 254.906L299.385 254.905C309.75 244.45 309.752 227.603 299.384 217.227C289.016 206.852 272.098 206.852 261.73 217.227L261.729 217.229C251.364 227.684 251.362 244.531 261.73 254.906L261.732 254.908C272.18 265.28 289.016 265.282 299.384 254.906Z" fill="white" stroke="black"/>
<path d="M408.486 229.552C407.59 230.936 406.939 232.484 406.614 234.112L404.091 234.357V239.324L406.614 239.569C406.939 241.197 407.59 242.745 408.486 244.129L406.858 246.084L410.357 249.585L412.31 247.957C413.694 248.852 415.24 249.504 416.868 249.83L417.112 252.354H422.076L422.32 249.83C423.948 249.504 425.494 248.852 426.877 247.957L428.83 249.585L432.33 246.084L430.702 244.129C431.597 242.745 432.248 241.197 432.574 239.569L435.097 239.324V234.357L432.574 234.112C432.248 232.484 431.597 230.936 430.702 229.552L432.33 227.597L428.83 224.096L426.877 225.724C425.494 224.829 423.948 224.177 422.32 223.851L422.076 221.327H417.112L416.868 223.851C415.24 224.177 413.694 224.829 412.31 225.724L410.357 224.096L406.858 227.597L408.486 229.552ZM424.273 232.076C426.877 234.682 426.877 238.917 424.273 241.523C421.669 244.129 417.437 244.129 414.833 241.523C412.229 238.917 412.229 234.682 414.833 232.076C417.437 229.471 421.669 229.471 424.273 232.076Z" fill="#F5F5F5"/>
<path d="M133.866 267.807H48.3366C46.4648 267.807 45 266.341 45 264.468V216.339C45 214.466 46.4648 213 48.3366 213H133.948C135.819 213 137.284 214.466 137.284 216.339V264.468C137.203 266.341 135.738 267.807 133.866 267.807Z" fill="#407BFF"/>
<path opacity="0.8" d="M133.866 267.807H48.3366C46.4648 267.807 45 266.341 45 264.468V216.339C45 214.466 46.4648 213 48.3366 213H133.948C135.819 213 137.284 214.466 137.284 216.339V264.468C137.203 266.341 135.738 267.807 133.866 267.807Z" fill="white"/>
<path d="M58.8345 243.457C59.2414 243.132 70.0648 232.463 70.0648 232.463L80.7255 237.675L91.1421 225.378L101.803 240.77L112.219 234.011" stroke="#263238" stroke-width="0.5" stroke-miterlimit="10"/>
<path d="M62.1709 248.262H57.2068V259.337H62.1709V248.262Z" fill="#407BFF"/>
<path d="M72.4248 240.933H67.4607V259.337H72.4248V240.933Z" fill="#407BFF"/>
<path d="M82.9229 242.806H77.9587V259.337H82.9229V242.806Z" fill="#407BFF"/>
<path d="M93.5835 232.463H88.6194V259.337H93.5835V232.463Z" fill="#407BFF"/>
<path d="M104.325 246.715H99.3613V259.337H104.325V246.715Z" fill="#407BFF"/>
<path d="M62.3337 242.236C62.3337 243.702 61.113 244.923 59.6482 244.923C58.1833 244.923 56.9626 243.702 56.9626 242.236C56.9626 240.77 58.1833 239.548 59.6482 239.548C61.113 239.548 62.3337 240.688 62.3337 242.236Z" fill="#407BFF"/>
<path d="M72.6689 232.463C72.6689 233.929 71.4482 235.151 69.9834 235.151C68.5185 235.151 67.2979 233.929 67.2979 232.463C67.2979 230.997 68.5185 229.776 69.9834 229.776C71.4482 229.776 72.6689 230.916 72.6689 232.463Z" fill="#407BFF"/>
<path d="M83.4111 236.861C83.4111 238.327 82.1904 239.548 80.7256 239.548C79.2607 239.548 78.04 238.327 78.04 236.861C78.04 235.395 79.2607 234.173 80.7256 234.173C82.1904 234.173 83.4111 235.313 83.4111 236.861Z" fill="#407BFF"/>
<path d="M93.7463 225.378C93.7463 226.844 92.5256 228.066 91.0608 228.066C89.5959 228.066 88.3752 226.844 88.3752 225.378C88.3752 223.912 89.5959 222.691 91.0608 222.691C92.607 222.691 93.7463 223.912 93.7463 225.378Z" fill="#407BFF"/>
<path d="M104.407 240.77C104.407 242.236 103.186 243.457 101.721 243.457C100.257 243.457 99.0359 242.236 99.0359 240.77C99.0359 239.304 100.257 238.082 101.721 238.082C103.268 238.082 104.407 239.304 104.407 240.77Z" fill="#407BFF"/>
<path d="M114.986 240.363H110.022V259.337H114.986V240.363Z" fill="#407BFF"/>
<path opacity="0.3" d="M72.4248 240.933H67.4607V259.337H72.4248V240.933Z" fill="black"/>
<path opacity="0.3" d="M93.5835 232.463H88.6194V259.337H93.5835V232.463Z" fill="black"/>
<path opacity="0.3" d="M114.986 240.363H110.022V259.337H114.986V240.363Z" fill="black"/>
<path d="M126.054 246.715H121.09V259.337H126.054V246.715Z" fill="#407BFF"/>
<path d="M112.138 234.01L123.612 240.363" stroke="#263238" stroke-width="0.5" stroke-miterlimit="10"/>
<path d="M115.393 234.011C115.393 235.476 114.172 236.698 112.707 236.698C111.243 236.698 110.022 235.476 110.022 234.011C110.022 232.545 111.243 231.323 112.707 231.323C114.254 231.323 115.393 232.545 115.393 234.011Z" fill="#407BFF"/>
<path d="M123.613 243.05C125.096 243.05 126.298 241.847 126.298 240.363C126.298 238.878 125.096 237.675 123.613 237.675C122.129 237.675 120.927 238.878 120.927 240.363C120.927 241.847 122.129 243.05 123.613 243.05Z" fill="#407BFF"/>
<path d="M453.953 132.031L453.952 132.031C430.756 120.671 402.625 130.302 391.273 153.433C386.41 163.327 385.221 174.579 387.86 185.298L364.821 191.238C360.777 175.046 362.593 157.933 369.954 142.962L369.954 142.961C387.085 107.948 429.509 93.4722 464.499 110.615C499.487 127.758 513.953 170.212 496.821 205.227L496.821 205.228C486.631 226.103 466.882 240.6 443.901 244.05L440.465 220.445C455.634 218.089 468.667 208.517 475.341 194.753C486.691 171.541 477.068 143.391 453.953 132.031Z" fill="#E2E2E2" stroke="black"/>
<path d="M455.768 153.557C465.613 165.937 463.565 183.96 451.193 193.812C438.822 203.663 420.811 201.614 410.966 189.234C401.121 176.854 403.17 158.831 415.541 148.979C427.913 139.127 445.923 141.177 455.768 153.557Z" fill="#BEFFEF" stroke="black" stroke-width="0.2"/>
<path d="M453.867 183.705C460.654 172.36 456.964 157.657 445.627 150.866C434.29 144.075 419.597 147.766 412.811 159.112C406.024 170.457 409.713 185.159 421.051 191.951C432.388 198.742 447.08 195.05 453.867 183.705Z" fill="white"/>
<path d="M421.9 188.375L425.074 183.652C425.155 183.733 425.236 183.815 425.318 183.815L422.225 188.619C422.144 188.538 421.981 188.456 421.9 188.375ZM415.552 181.534C415.471 181.371 415.389 181.29 415.308 181.127L420.272 178.44C420.354 178.521 420.354 178.603 420.435 178.765L415.552 181.534ZM431.096 191.795L431.747 186.176H432.072L431.584 191.795C431.34 191.795 431.177 191.795 431.096 191.795ZM412.867 172.088C412.867 171.925 412.867 171.762 412.867 171.599L418.563 171.518V171.843L412.867 172.088ZM440.78 190.492L438.745 185.199L439.071 185.036L441.349 190.248L441.187 190.329C441.024 190.411 440.943 190.492 440.78 190.492ZM414.901 162.56C414.983 162.397 415.064 162.315 415.145 162.152L420.191 164.758C420.109 164.84 420.109 164.921 420.028 165.084L414.901 162.56ZM444.523 181.127C444.605 181.046 444.686 180.964 444.767 180.883L449.162 184.466C449.08 184.629 448.918 184.71 448.836 184.873L444.523 181.127ZM424.504 159.547L421.167 154.986L421.574 154.742L424.829 159.384L424.504 159.547ZM447.697 174.857L447.778 174.531L453.312 175.752C453.312 175.915 453.231 176.078 453.231 176.241L447.697 174.857ZM431.096 156.778L430.2 151.159C430.363 151.159 430.526 151.077 430.689 151.077L431.503 156.696L431.096 156.778ZM447.697 167.772C447.697 167.69 447.616 167.527 447.616 167.446L453.068 165.899C453.149 166.061 453.149 166.224 453.231 166.387L447.697 167.772ZM438.094 157.429L439.966 152.054C440.129 152.136 440.292 152.136 440.454 152.217L438.501 157.511C438.338 157.511 438.176 157.429 438.094 157.429ZM444.279 161.501L444.035 161.257L448.185 157.348C448.267 157.429 448.429 157.592 448.511 157.673L444.279 161.501Z" fill="black"/>
<path d="M427.352 162.56L433.049 172.332L442.245 163.374" stroke="black" stroke-miterlimit="10" stroke-linecap="round" stroke-linejoin="round"/>
<path d="M434.677 172.821C434.025 173.553 432.886 173.635 432.154 172.983C431.421 172.332 431.34 171.192 431.991 170.459C432.642 169.726 433.781 169.645 434.514 170.296C435.246 170.947 435.328 172.088 434.677 172.821Z" fill="black"/>
<path d="M195.309 338.702C174.852 315.8 163.627 286.348 163.627 255.612C163.627 199.502 201.123 150.245 254.969 135.394L246.719 145.769L246.428 146.135L246.774 146.45L262.292 160.574C219.658 172.251 189.889 211.145 189.889 255.53C189.889 279.755 198.764 303.012 214.831 321.049L195.309 338.702Z" fill="#F8F8F8" stroke="#212121"/>
<path d="M196.044 339.314L215.406 321.883L231.211 340.449L230.867 340.447C229.953 340.441 228.646 340.432 227.074 340.422C223.93 340.403 219.729 340.38 215.496 340.365C211.264 340.35 207.001 340.342 203.734 340.354C202.1 340.359 200.714 340.37 199.705 340.387C199.201 340.395 198.788 340.405 198.484 340.417C198.333 340.423 198.205 340.429 198.105 340.437C198.09 340.438 198.074 340.439 198.058 340.44L196.044 339.314Z" fill="#F8F8F8" stroke="#212121"/>
<g opacity="0.3">
<path d="M195.309 338.702C174.852 315.8 163.627 286.348 163.627 255.612C163.627 199.502 201.123 150.245 254.969 135.394L246.719 145.769L246.428 146.135L246.774 146.45L262.292 160.574C219.658 172.251 189.889 211.145 189.889 255.53C189.889 279.755 198.764 303.012 214.831 321.049L195.309 338.702Z" fill="black" stroke="#212121"/>
<path d="M196.044 339.314L215.406 321.883L231.211 340.449L230.867 340.447C229.953 340.441 228.646 340.432 227.074 340.422C223.93 340.403 219.729 340.38 215.496 340.365C211.264 340.35 207.001 340.342 203.734 340.354C202.1 340.359 200.714 340.37 199.705 340.387C199.201 340.395 198.788 340.405 198.484 340.417C198.333 340.423 198.205 340.429 198.105 340.437C198.09 340.438 198.074 340.439 198.058 340.44L196.044 339.314Z" fill="black" stroke="#212121"/>
</g>
<path d="M447.808 386.82L447.807 386.82C446.573 387.796 444.711 386.937 444.711 385.34V341.364C444.711 339.773 446.49 338.9 447.813 339.887L475.718 361.869C475.718 361.869 475.719 361.87 475.719 361.87C476.688 362.647 476.688 364.056 475.719 364.833C475.719 364.834 475.718 364.834 475.718 364.834L447.808 386.82Z" fill="#F8F8F8" stroke="#212121"/>
<path d="M294.078 375.963V350.822H448.268V375.963H294.078Z" fill="#F8F8F8" stroke="#212121"/>
<path opacity="0.3" d="M443.967 375.882H287.486V350.741H443.967H444.467V350.241V341.364C444.467 339.832 446.341 338.918 447.563 339.883L447.564 339.884L475.474 361.869C475.474 361.87 475.475 361.87 475.475 361.87C476.456 362.657 476.427 364.053 475.49 364.74L475.483 364.745L475.477 364.751L447.573 386.731C447.571 386.733 447.57 386.734 447.568 386.735C446.246 387.722 444.467 386.849 444.467 385.258V376.382V375.882H443.967Z" fill="black" stroke="#212121"/>
<path d="M287.486 156.738V130.945C354.688 131.216 409.369 186.101 409.369 253.494C409.369 321.055 354.417 376.045 286.905 376.045H115.613V350.252H286.986C340.322 350.252 383.676 306.867 383.676 253.494C383.676 200.289 340.593 157.008 287.486 156.738Z" fill="#F8F8F8" stroke="#212121"/>
<path d="M291.532 165.949V165.95C291.532 167.541 289.753 168.414 288.43 167.427L260.525 145.364C260.524 145.363 260.524 145.363 260.524 145.363C259.543 144.576 259.571 143.099 260.508 142.411L260.514 142.407L260.521 142.402L288.515 120.495L288.515 120.495L288.519 120.492C289.813 119.457 291.612 120.349 291.613 121.974C291.613 121.974 291.613 121.974 291.613 121.975L291.532 165.949Z" fill="#F8F8F8" stroke="#212121"/>
<path opacity="0.3" d="M292.113 350.485C292.683 350.485 281.208 357.733 273.477 357.651L272.745 377.196H267.618L257.853 351.055L292.113 350.485Z" fill="black"/>
<path d="M282.673 215.138C286.254 220.838 287.556 224.259 288.125 229.796C288.776 236.311 288.776 242.093 287.393 243.804C285.603 246.084 265.014 249.097 253.458 249.178C253.051 249.178 252.481 245.514 252.481 245.514C252.481 245.514 251.016 249.178 250.447 249.178C247.273 249.178 245.239 249.178 245.239 249.178C245.239 249.178 247.599 243.641 249.877 224.096C251.016 214.568 260.375 210.333 265.99 209.356C275.43 207.727 282.673 215.138 282.673 215.138Z" fill="#263238"/>
<path d="M256.062 234.764C252.807 229.634 249.145 215.708 261.515 210.74C276.977 204.551 284.545 214.323 286.335 224.177C288.126 234.031 282.917 241.849 272.419 241.605C262.003 241.36 258.341 238.266 256.062 234.764Z" fill="#263238"/>
<path d="M281.941 253.576C281.941 253.576 278.442 256.263 273.966 260.091C273.071 260.905 272.013 261.556 270.873 262.208C267.944 263.755 265.258 264.651 264.526 263.267C264.363 262.941 264.2 262.615 264.119 262.289C263.468 259.928 263.793 256.589 265.665 255.042C267.862 253.331 268.839 251.866 268.513 249.504C268.269 248.201 267.862 246.817 267.293 245.514L269.002 243.559L277.872 234.601C277.709 240.464 277.221 250.318 281.941 253.576Z" fill="#EBB373"/>
<path opacity="0.2" d="M268.676 249.993C271.117 248.527 273.803 246.002 273.477 243.152C273.315 241.93 273.07 240.79 272.745 240.057L267.781 246.654C268.188 247.631 268.35 248.364 268.676 249.993Z" fill="black"/>
<path d="M280.476 224.829C279.662 233.95 279.499 237.859 274.779 242.663C267.699 249.911 256.713 247.468 254.841 238.347C253.132 230.204 254.841 216.604 263.793 212.695C272.582 208.949 281.29 215.626 280.476 224.829Z" fill="#EBB373"/>
<path d="M269.001 228.168C268.92 229.063 268.35 229.878 267.699 229.878C267.048 229.878 266.56 229.145 266.641 228.249C266.723 227.353 267.292 226.539 267.944 226.539C268.513 226.457 269.001 227.19 269.001 228.168Z" fill="#263238"/>
<path d="M259.48 227.923C259.399 228.819 258.91 229.552 258.259 229.552C257.608 229.552 257.12 228.901 257.202 228.005C257.283 227.109 257.771 226.376 258.422 226.376C259.073 226.376 259.562 227.109 259.48 227.923Z" fill="#263238"/>
<path d="M270.303 224.747C270.141 224.747 270.059 224.747 269.978 224.666C268.35 223.526 266.641 224.096 266.641 224.096C266.397 224.177 266.153 224.096 266.072 223.852C265.99 223.607 266.153 223.363 266.397 223.281C266.479 223.281 268.594 222.467 270.629 223.933C270.792 224.096 270.873 224.34 270.71 224.584C270.548 224.666 270.385 224.747 270.303 224.747Z" fill="#263238"/>
<path d="M256.225 223.526C256.144 223.444 256.062 223.363 255.981 223.282C255.9 223.037 256.062 222.793 256.306 222.711C258.748 221.897 260.375 223.037 260.457 223.119C260.62 223.282 260.701 223.526 260.538 223.689C260.375 223.852 260.05 223.933 259.887 223.77C259.806 223.689 258.504 222.793 256.551 223.444C256.469 223.607 256.306 223.607 256.225 223.526Z" fill="#263238"/>
<path d="M272.826 216.685C269.897 219.78 271.361 231.262 279.499 232.809C288.939 230.611 281.534 207.564 272.826 216.685Z" fill="#263238"/>
<path d="M261.921 236.474C262.654 237.614 263.549 239.813 263.549 239.813C263.793 239.732 263.956 239.732 264.2 239.65C267.13 238.999 268.269 237.696 268.594 236.474C268.757 235.823 268.757 235.171 268.676 234.683C268.594 234.113 268.35 233.705 268.35 233.705C267.048 235.008 264.363 235.823 262.898 236.23C262.247 236.474 261.921 236.474 261.921 236.474Z" fill="#263238"/>
<path d="M262.898 236.23L263.386 237.207C266.153 236.556 267.943 235.741 268.676 234.683C268.595 234.113 268.35 233.705 268.35 233.705C266.967 235.008 264.281 235.904 262.898 236.23Z" fill="white"/>
<path d="M264.2 239.732C267.13 239.08 268.269 237.777 268.595 236.556C267.618 236.8 266.479 237.289 265.502 237.94C264.77 238.51 264.363 239.162 264.2 239.732Z" fill="#DC5753"/>
<path d="M262.003 227.353C262.003 227.353 260.294 231.507 258.503 233.461C259.643 234.601 261.759 234.031 261.759 234.031L262.003 227.353Z" fill="#E4873E"/>
<path d="M266.072 226.05L268.188 226.539C267.211 227.598 266.072 226.05 266.072 226.05Z" fill="#263238"/>
<path d="M256.713 225.969L258.829 226.457C257.852 227.516 256.713 225.969 256.713 225.969Z" fill="#263238"/>
<path d="M263.874 210.822C260.294 212.043 256.388 218.314 255.818 220.676C260.945 221.49 274.779 216.685 274.779 216.685C274.779 216.685 284.056 219.21 279.336 214.568C274.616 209.845 263.874 210.822 263.874 210.822Z" fill="#263238"/>
<path d="M283.243 232.239C282.185 234.112 280.394 235.334 278.767 235.66C276.325 236.23 275.105 232.402 275.919 229.959C276.651 227.76 279.011 226.295 281.371 226.783C283.731 227.353 284.463 230.122 283.243 232.239Z" fill="#EBB373"/>
<path d="M251.342 222.386C250.854 226.376 250.284 230.448 248.982 234.275C247.599 238.103 244.832 246.002 241.414 248.282" stroke="#263238" stroke-width="0.5" stroke-miterlimit="10"/>
<path d="M279.743 237.207C280.687 237.207 281.452 236.442 281.452 235.497C281.452 234.553 280.687 233.787 279.743 233.787C278.8 233.787 278.034 234.553 278.034 235.497C278.034 236.442 278.8 237.207 279.743 237.207Z" fill="#407BFF"/>
<path opacity="0.1" d="M281.29 229.633C280.476 229.389 279.581 229.552 278.93 230.041C278.279 230.529 277.79 231.344 277.79 232.158" stroke="black" stroke-width="0.5" stroke-miterlimit="10" stroke-linecap="round" stroke-linejoin="round"/>
<path d="M210.002 312.536C210.49 311.314 213.745 307.079 215.454 305.451C217.163 303.903 223.348 300.402 223.348 300.402L228.556 305.288C228.556 305.288 228.068 308.138 225.952 309.115C224.731 309.685 223.511 310.174 223.511 310.174C223.511 310.174 223.511 311.233 223.266 312.454C222.941 313.757 222.29 315.223 221.232 314.897C220.174 314.572 220.662 311.07 220.744 310.581C220.662 311.07 220.093 314.653 218.628 314.409C217.244 314.164 217.895 310.5 217.895 310.5C217.895 310.5 217.407 312.128 217.163 313.024C216.919 313.839 215.861 314.409 215.291 313.269C214.64 311.966 215.047 310.011 215.047 310.011C215.047 310.011 214.071 310.907 212.362 313.106C211.06 314.734 209.595 313.594 210.002 312.536Z" fill="#EBB373"/>
<path opacity="0.1" d="M220.581 311.314C220.744 310.663 220.825 310.011 221.069 309.36C221.313 308.708 221.72 308.138 222.208 307.731" stroke="black" stroke-width="0.5" stroke-miterlimit="10" stroke-linecap="round" stroke-linejoin="round"/>
<path opacity="0.1" d="M217.651 311.07C217.814 310.418 217.895 309.767 218.14 309.115C218.384 308.464 218.791 307.894 219.279 307.487" stroke="black" stroke-width="0.5" stroke-miterlimit="10" stroke-linecap="round" stroke-linejoin="round"/>
<path opacity="0.1" d="M215.047 310.174C215.21 309.523 215.291 308.871 215.535 308.22C215.78 307.568 216.186 306.998 216.675 306.591" stroke="black" stroke-width="0.5" stroke-miterlimit="10" stroke-linecap="round" stroke-linejoin="round"/>
<path d="M250.447 267.176C250.447 267.746 248.819 288.512 248.819 288.512C247.68 290.711 223.917 298.936 220.825 301.949L226.359 307.649C226.359 307.649 254.679 301.949 259.236 298.61C263.142 295.76 262.817 290.792 262.817 284.033C262.817 277.274 265.177 267.746 265.177 267.746L250.447 267.176Z" fill="#EBB373"/>
<path d="M261.189 254.879C249.959 256.833 248.413 273.446 248.413 273.446L246.704 286.639L240.356 291.281L246.297 303.985C246.297 303.985 258.992 299.18 264.607 295.841C270.222 292.502 270.304 267.176 270.304 267.176L261.189 254.879Z" fill="#407BFF"/>
<path opacity="0.2" d="M259.236 297.796C259.48 297.877 254.516 300.646 254.516 300.646C254.435 300.646 252.726 293.398 252.726 293.398C250.04 281.183 251.83 271.41 251.83 271.41C253.865 275.726 258.666 294.212 259.236 297.796Z" fill="black"/>
<path d="M261.677 312.861C271.036 311.966 283.161 311.151 299.03 310.825C299.03 310.825 310.83 338.595 296.833 346.902C292.601 349.426 285.603 350.403 277.953 350.566C269.083 350.729 261.677 343.644 261.677 334.686V312.861Z" fill="#263238"/>
<path d="M292.194 335.745V348.775C280.557 352.114 256.388 350.892 242.065 349.671C235.636 349.182 230.59 343.726 230.59 337.211V326.461C230.59 322.878 232.788 319.702 236.124 318.481C243.123 315.875 255.737 311.966 269.001 312.128C281.859 312.454 292.194 322.878 292.194 335.745Z" fill="#263238"/>
<path d="M301.065 310.826C299.275 308.464 295.043 302.763 294.555 296.737C294.555 296.737 294.555 296.737 294.555 296.656C294.555 296.248 294.473 295.923 294.473 295.516C294.392 292.991 294.392 289.896 294.555 286.313C294.555 285.743 294.636 285.173 294.636 284.522C294.717 282.649 294.88 280.531 295.043 278.332C295.368 274.342 295.857 269.782 296.508 264.57C296.671 263.348 297.81 261.475 297.973 260.254C298.705 254.635 293.578 250.481 288.044 250.726C286.58 250.807 284.952 250.888 283.406 251.051C277.14 251.621 272.013 252.191 266.642 253.494C264.851 253.902 262.98 254.39 261.189 254.96C254.76 256.833 251.831 264.977 251.749 271.573C251.668 277.681 255.981 290.222 258.911 301.216C259.317 307.568 255.9 310.988 256.957 313.187C258.015 315.386 288.533 309.441 301.065 316.933C301.065 316.852 303.018 313.35 301.065 310.826Z" fill="#407BFF"/>
<path opacity="0.3" d="M301.065 310.826C299.275 308.464 295.043 302.763 294.555 296.737C294.555 296.737 294.555 296.737 294.555 296.656C294.555 296.248 294.473 295.923 294.473 295.516C294.392 292.991 294.392 289.896 294.555 286.313C294.555 285.743 294.636 285.173 294.636 284.522C294.717 282.649 294.88 280.531 295.043 278.332C295.368 274.342 295.857 269.782 296.508 264.57C296.671 263.348 297.81 261.475 297.973 260.254C298.705 254.635 293.578 250.481 288.044 250.726C286.58 250.807 284.952 250.888 283.406 251.051C277.14 251.621 272.013 252.191 266.642 253.494C264.851 253.902 262.98 254.39 261.189 254.96C254.76 256.833 251.831 264.977 251.749 271.573C251.668 277.681 255.981 290.222 258.911 301.216C259.317 307.568 255.9 310.988 256.957 313.187C258.015 315.386 288.533 309.441 301.065 316.933C301.065 316.852 303.018 313.35 301.065 310.826Z" fill="white"/>
<path opacity="0.2" d="M296.264 302.845C296.264 302.845 285.522 305.207 280.476 305.451C275.431 305.695 264.607 309.116 264.607 309.116L260.782 311.477L259.399 308.301L265.909 302.438L294.392 296.656C294.718 299.017 296.02 302.356 296.264 302.845Z" fill="black"/>
<path opacity="0.2" d="M283.894 267.339L282.592 285.743L276.489 291.77L280.72 295.108L286.498 291.607L289.509 281.183L283.894 267.339Z" fill="black"/>
<path d="M237.915 435.504L252.237 429.234L256.795 424.185L258.178 426.058L259.887 425.325C260.701 418.973 257.608 416.041 255.981 414.657C255.899 414.575 255.737 414.412 255.492 414.25C255.411 414.168 255.33 414.168 255.33 414.087C255.33 414.087 255.248 414.087 255.248 414.005C255.167 413.924 255.086 413.924 255.004 413.842C255.004 413.842 255.004 413.842 254.923 413.842C254.923 413.842 254.841 413.761 254.76 413.761L246.948 417.263C246.948 417.263 246.785 417.67 246.541 418.321C245.727 420.52 243.855 425.569 241.658 428.257C241.577 428.338 241.495 428.501 241.414 428.582C241.17 428.908 240.926 429.152 240.6 429.397C234.578 434.201 237.915 435.504 237.915 435.504Z" fill="#263238"/>
<path d="M241.333 428.501C243.53 429.397 246.704 427.198 249.145 424.266C250.528 422.637 251.749 420.031 252.97 417.914C253.702 416.53 254.435 415.39 255.004 414.82C255.33 414.494 255.655 414.412 255.899 414.494C255.818 414.412 255.655 414.25 255.411 414.087C255.33 414.087 255.33 414.005 255.248 413.924C255.248 413.924 255.167 413.924 255.167 413.842C255.086 413.761 255.004 413.761 254.923 413.679C254.923 413.679 254.923 413.679 254.841 413.679C254.841 413.679 254.76 413.598 254.679 413.598C253.865 412.947 252.97 412.376 252.97 412.376L245.564 414.25L246.134 417.1C245.32 420.031 243.611 425.569 241.577 428.175C241.577 428.338 241.495 428.419 241.333 428.501Z" fill="#EBB373"/>
<path d="M229.37 373.531C233.927 384.851 241.007 399.265 246.215 417.344C246.297 417.67 246.378 417.996 246.459 418.321C246.541 418.647 246.703 419.054 246.785 419.38L252.156 418.077L252.4 417.1C252.4 417.1 254.272 415.634 253.946 415.308C253.702 415.064 253.865 414.657 253.865 414.331C252.4 401.708 246.785 355.453 241.251 345.843C241.251 345.843 247.517 346.983 252.319 346.169C255.737 345.599 259.887 321.819 259.887 321.819C259.887 321.819 251.098 319.295 242.146 319.295H241.983C241.983 319.295 224.324 324.507 219.848 328.497C215.617 332.243 214.965 338.351 217.325 345.599C219.523 352.277 223.754 359.524 229.37 373.531Z" fill="#263238"/>
<path opacity="0.1" d="M224.324 334.279C225.382 330.126 232.95 326.135 240.763 324.018C242.065 322.389 238.81 320.435 238.81 320.435L254.19 319.051L256.876 321.005L261.433 321.982L257.364 340.387L240.519 343.319L251.179 392.669L252.4 402.441C252.4 402.441 234.415 363.759 230.59 355.534C226.847 347.228 222.534 341.446 224.324 334.279Z" fill="black"/>
<path d="M259.887 321.901C259.887 321.901 235.88 327.031 231.16 330.696C227.172 333.872 227.091 337.944 228.312 341.853C231.892 352.602 244.75 370.518 259.399 422.068L267.781 419.462C266.967 419.462 264.851 392.588 264.2 371.007C263.874 360.827 258.666 352.032 256.632 348.531C256.632 348.531 265.177 349.671 269.978 348.856C276.326 347.716 280.15 327.357 259.887 321.901Z" fill="#263238"/>
<path opacity="0.2" d="M257.364 349.426C257.364 349.426 254.19 344.133 250.203 341.934C250.203 341.934 255.085 342.26 258.178 348.612L256.876 348.449L257.364 349.426Z" fill="black"/>
<path d="M270.792 430.537L269.001 430.944L267.536 428.501C267.374 428.175 266.967 428.175 266.723 428.419L261.759 433.061L248.168 436.074C248.168 436.074 245.157 432.898 251.912 430.781C252.237 430.7 252.481 430.455 252.807 430.211C256.143 427.605 260.212 420.52 260.212 420.52L268.269 418.729C268.269 418.729 268.676 419.054 269.164 419.787C270.466 421.253 272.745 424.673 270.792 430.537Z" fill="#263238"/>
<path d="M269.164 419.706C267.862 418.81 264.119 425.08 260.945 427.605C258.097 429.885 254.679 431.351 252.807 430.13C256.143 427.524 260.375 418.647 260.375 418.647L266.885 417.181C266.804 417.181 268.594 419.054 269.164 419.706Z" fill="#EBB373"/>
<path d="M244.425 325.403L268.106 316.363C268.595 316.2 268.513 315.305 267.944 315.305L229.939 314.816C229.858 314.816 229.777 314.816 229.695 314.897L215.047 324.344C214.64 324.588 214.803 325.321 215.291 325.321H244.262C244.344 325.403 244.344 325.403 244.425 325.403Z" fill="#263238"/>
<path opacity="0.7" d="M244.425 325.403L268.106 316.363C268.595 316.2 268.513 315.305 267.944 315.305L229.939 314.816C229.858 314.816 229.777 314.816 229.695 314.897L215.047 324.344C214.64 324.588 214.803 325.321 215.291 325.321H244.262C244.344 325.403 244.344 325.403 244.425 325.403Z" fill="white"/>
<path opacity="0.7" d="M244.506 322.715L259.806 317.096L241.902 316.689L244.506 322.715Z" fill="white"/>
<path opacity="0.3" d="M268.106 316.363L244.425 325.403C244.344 325.403 244.344 325.403 244.262 325.403H243.855L243.448 324.1L267.944 315.304C268.513 315.304 268.595 316.2 268.106 316.363Z" fill="black"/>
<path d="M213.501 325.403H244.344C244.913 325.403 245.32 325.077 245.32 324.588C245.32 324.507 245.32 324.425 245.239 324.344L231.486 292.91C231.16 292.014 230.102 291.362 228.963 291.362H198.12C197.632 291.362 197.144 291.688 197.144 292.095C197.144 292.177 197.144 292.258 197.225 292.34L210.978 323.774C211.304 324.833 212.361 325.403 213.501 325.403Z" fill="#263238"/>
<path opacity="0.7" d="M198.12 291.444H228.963C230.102 291.444 231.16 292.095 231.486 292.991L245.239 324.426C245.239 324.507 245.32 324.588 245.32 324.67C245.32 325.077 244.913 325.484 244.344 325.484H213.501C212.361 325.484 211.304 324.833 210.978 323.937L197.225 292.503C197.225 292.421 197.144 292.34 197.144 292.258C197.225 291.77 197.632 291.444 198.12 291.444Z" fill="white"/>
<path d="M217.244 309.115C217.895 310.663 219.279 311.64 220.255 311.477C221.232 311.233 221.557 309.93 220.906 308.382C220.255 306.835 218.872 305.858 217.895 306.102C216.837 306.265 216.593 307.568 217.244 309.115Z" fill="white"/>
<path opacity="0.3" d="M228.8 291.444H228.963C230.102 291.444 231.16 292.095 231.486 292.991L245.239 324.426C245.239 324.507 245.32 324.588 245.32 324.67C245.32 325.077 244.913 325.484 244.344 325.484H243.367L228.8 291.444Z" fill="black"/>
<path d="M284.545 265.628C284.545 266.198 286.417 286.802 286.417 286.802C285.278 289.001 261.515 297.226 258.422 300.239L263.956 305.939C263.956 305.939 292.276 300.239 296.833 296.9C300.74 294.05 300.414 289.082 300.414 282.323C300.414 275.564 298.949 265.628 298.949 265.628H284.545Z" fill="#EBB373"/>
<path d="M286.905 252.924C281.046 255.367 285.522 286.639 285.522 286.639L279.744 289.082L283.243 302.438C283.243 302.438 290.323 301.053 297.403 299.669C304.89 298.122 305.948 280.857 302.204 266.85C298.542 252.843 293.741 250.074 286.905 252.924Z" fill="#407BFF"/>
<path d="M248.494 315.223C248.657 313.92 250.773 308.953 251.993 307.08C253.295 305.125 258.422 300.32 258.422 300.32L264.607 303.822C264.607 303.822 264.851 306.672 263.061 308.138C262.084 309.034 260.945 309.767 260.945 309.767C260.945 309.767 261.189 310.826 261.271 312.047C261.271 313.35 261.026 314.979 259.887 314.897C258.829 314.816 258.422 311.396 258.341 310.826C258.422 311.314 258.666 314.897 257.283 315.06C255.9 315.142 255.655 311.477 255.655 311.477C255.655 311.477 255.574 313.187 255.574 314.083C255.493 314.979 254.679 315.712 253.784 314.735C252.807 313.594 252.726 311.64 252.726 311.64C252.726 311.64 251.993 312.78 250.854 315.305C250.04 317.015 248.331 316.363 248.494 315.223Z" fill="#EBB373"/>
<path opacity="0.1" d="M258.422 311.477C258.422 310.826 258.341 310.093 258.422 309.441C258.504 308.79 258.748 308.138 259.155 307.568" stroke="black" stroke-width="0.5" stroke-miterlimit="10" stroke-linecap="round" stroke-linejoin="round"/>
<path opacity="0.1" d="M255.574 311.966C255.574 311.314 255.493 310.581 255.574 309.93C255.655 309.278 255.9 308.627 256.306 308.057" stroke="black" stroke-width="0.5" stroke-miterlimit="10" stroke-linecap="round" stroke-linejoin="round"/>
<path opacity="0.1" d="M252.807 311.721C252.807 311.07 252.726 310.337 252.807 309.686C252.889 309.034 253.133 308.383 253.54 307.812" stroke="black" stroke-width="0.5" stroke-miterlimit="10" stroke-linecap="round" stroke-linejoin="round"/>
<path d="M86.8746 399.998C112.538 399.998 133.342 379.179 133.342 353.498C133.342 327.817 112.538 306.998 86.8746 306.998C61.2112 306.998 40.407 327.817 40.407 353.498C40.407 379.179 61.2112 399.998 86.8746 399.998Z" fill="white" stroke="#263238" stroke-miterlimit="10"/>
<path d="M95.6636 383.223C95.6636 386.236 91.4318 388.679 86.305 388.597C81.1781 388.516 77.0277 386.073 77.1091 382.978C77.1091 379.965 81.3408 377.522 86.4677 377.604C91.5946 377.685 95.745 380.209 95.6636 383.223Z" fill="#263238"/>
<path d="M99.6511 373.206C100.139 372.717 100.465 372.066 100.465 371.414C100.465 368.401 94.1987 365.958 86.3863 365.877C78.5739 365.795 72.2263 368.157 72.2263 371.088C72.2263 371.74 72.5518 372.391 73.0401 372.88C72.8774 373.124 72.796 373.45 72.796 373.776C72.796 374.509 73.1215 375.16 73.6098 375.567C73.447 375.893 73.3656 376.219 73.3656 376.545C73.3656 377.278 73.6911 377.929 74.2608 378.336C74.098 378.662 73.9353 378.988 73.9353 379.314C74.0167 379.965 74.3422 380.617 74.8305 381.105C74.6677 381.431 74.5049 381.757 74.5049 382.082C74.5049 384.525 79.7132 386.643 86.2236 386.724C92.7339 386.806 98.0236 384.933 98.0236 382.408C98.0236 382.082 97.9422 381.675 97.698 381.431C98.2677 381.024 98.5932 380.372 98.5932 379.639C98.5932 379.314 98.5118 378.988 98.3491 378.662C98.8374 378.255 99.2443 377.603 99.2443 376.87C99.2443 376.545 99.1629 376.219 99.0001 375.893C99.4884 375.405 99.8953 374.835 99.8953 374.102C99.9767 373.776 99.8953 373.45 99.6511 373.206Z" fill="#263238"/>
<path opacity="0.3" d="M99.6511 373.206C100.139 372.717 100.465 372.066 100.465 371.414C100.465 368.401 94.1987 365.958 86.3863 365.877C78.5739 365.795 72.2263 368.157 72.2263 371.088C72.2263 371.74 72.5518 372.391 73.0401 372.88C72.8774 373.124 72.796 373.45 72.796 373.776C72.796 374.509 73.1215 375.16 73.6098 375.567C73.447 375.893 73.3656 376.219 73.3656 376.545C73.3656 377.278 73.6911 377.929 74.2608 378.336C74.098 378.662 73.9353 378.988 73.9353 379.314C74.0167 379.965 74.3422 380.617 74.8305 381.105C74.6677 381.431 74.5049 381.757 74.5049 382.082C74.5049 384.525 79.7132 386.643 86.2236 386.724C92.7339 386.806 98.0236 384.933 98.0236 382.408C98.0236 382.082 97.9422 381.675 97.698 381.431C98.2677 381.024 98.5932 380.372 98.5932 379.639C98.5932 379.314 98.5118 378.988 98.3491 378.662C98.8374 378.255 99.2443 377.603 99.2443 376.87C99.2443 376.545 99.1629 376.219 99.0001 375.893C99.4884 375.405 99.8953 374.835 99.8953 374.102C99.9767 373.776 99.8953 373.45 99.6511 373.206Z" fill="white"/>
<path d="M111.37 346.902C111.533 333.058 100.465 321.738 86.6305 321.575C72.796 321.412 61.4843 332.488 61.3216 346.332C61.2402 353.824 64.4954 360.99 70.2733 365.795C71.3312 366.691 71.9009 367.994 71.7381 369.378C71.7381 369.46 71.7381 369.541 71.7381 369.541C71.7381 372.554 78.0857 375.079 86.0609 375.16C93.9547 375.242 100.465 372.88 100.465 369.867C100.465 369.786 100.465 369.704 100.465 369.704C100.302 368.32 100.953 366.935 102.011 366.121C107.871 361.398 111.288 354.394 111.37 346.902Z" fill="#407BFF"/>
<path opacity="0.7" d="M111.37 346.902C111.533 333.058 100.465 321.738 86.6305 321.575C72.796 321.412 61.4843 332.488 61.3216 346.332C61.2402 353.824 64.4954 360.99 70.2733 365.795C71.3312 366.691 71.9009 367.994 71.7381 369.378C71.7381 369.46 71.7381 369.541 71.7381 369.541C71.7381 372.554 78.0857 375.079 86.0609 375.16C93.9547 375.242 100.465 372.88 100.465 369.867C100.465 369.786 100.465 369.704 100.465 369.704C100.302 368.32 100.953 366.935 102.011 366.121C107.871 361.398 111.288 354.394 111.37 346.902Z" fill="white"/>
<path opacity="0.2" d="M99.6512 332.406C99.6512 337.293 93.9547 341.201 86.8747 341.201C79.7947 341.201 74.0981 337.211 74.0981 332.406C74.0981 327.602 79.7947 323.53 86.8747 323.53C93.9547 323.53 99.6512 327.52 99.6512 332.406Z" fill="white"/>
<path d="M67.3436 356.186C65.1464 352.44 64.3326 347.961 64.9022 343.726C65.5533 339.491 67.6691 335.419 70.8429 332.488" stroke="white" stroke-miterlimit="10" stroke-linecap="round" stroke-linejoin="round"/>
<path d="M74.8306 381.187C82.0733 384.2 90.374 384.363 97.6982 381.431C90.5368 384.607 81.9106 384.525 74.8306 381.187Z" fill="#263238"/>
<path d="M74.6677 378.499C81.9105 381.512 90.2112 381.675 97.5353 378.744C90.2926 381.92 81.7477 381.838 74.6677 378.499Z" fill="#263238"/>
<path d="M74.5051 375.812C81.7479 378.825 90.0486 378.988 97.3727 376.056C90.13 379.232 81.5851 379.151 74.5051 375.812Z" fill="#263238"/>
<path d="M81.0153 369.948C82.9684 363.433 83.2939 356.267 81.9918 349.589C81.7477 348.531 81.2594 347.228 80.2829 347.146C79.3877 347.146 78.818 348.205 78.6553 349.182C78.0042 352.602 79.7946 356.104 82.0732 358.466C83.2939 359.769 84.8401 360.909 86.4677 360.99C88.1766 361.072 89.7229 360.095 90.9435 358.792C93.3035 356.267 94.4429 352.277 93.5477 348.775C93.2222 347.309 92.1642 345.68 90.7808 345.925C89.967 346.088 89.3973 346.983 89.1532 347.879C88.9091 348.775 89.0718 349.752 89.1532 350.648C89.967 357.326 91.5946 363.841 93.9546 369.948" stroke="#263238" stroke-miterlimit="10"/>
<path d="M441.036 208.969L441.036 208.971L450.151 251.967C450.151 251.968 450.151 251.968 450.151 251.968C450.469 253.498 448.871 254.747 447.436 254.101L415.542 238.387L415.542 238.387L415.534 238.383C414.444 237.87 414.13 236.381 414.887 235.496L414.887 235.496L414.891 235.492L437.676 208.212C437.677 208.212 437.677 208.211 437.677 208.211C438.732 206.958 440.721 207.456 441.036 208.969Z" fill="#E2E2E2" stroke="black"/>
<defs>
<linearGradient id="paint0_linear_2121_7" x1="1.67267e-05" y1="-72" x2="347" y2="294" gradientUnits="userSpaceOnUse">
<stop offset="0.197368" stop-color="#8765D8"/>
<stop offset="1" stop-color="#9F80EB"/>
</linearGradient>
</defs>
</svg>
