<svg width="400" height="341" viewBox="0 0 400 341" fill="none" xmlns="http://www.w3.org/2000/svg">
<rect width="400" height="337" rx="22" fill="#DBEDF4"/>
<path d="M255.51 92H11.4285V102.525H255.51V92Z" stroke="#222323" stroke-linecap="round" stroke-linejoin="round"/>
<path d="M251.94 99.4327C251.438 99.9327 250.779 100.243 250.074 100.312C249.37 100.381 248.663 100.203 248.075 99.8087C247.486 99.4148 247.053 98.829 246.848 98.1512C246.643 97.4735 246.679 96.7456 246.951 96.0916C247.222 95.4377 247.712 94.898 248.336 94.5645C248.961 94.2311 249.682 94.1245 250.376 94.2629C251.071 94.4013 251.696 94.7762 252.145 95.3236C252.594 95.8711 252.839 96.5572 252.839 97.2653C252.839 97.668 252.76 98.0667 252.606 98.4387C252.451 98.8106 252.225 99.1484 251.94 99.4327Z" stroke="#222323" stroke-linecap="round" stroke-linejoin="round"/>
<path d="M250.887 96.1511L248.653 98.38" stroke="#222323" stroke-linecap="round" stroke-linejoin="round"/>
<path d="M250.887 98.38L248.653 96.1511" stroke="#222323" stroke-linecap="round" stroke-linejoin="round"/>
<path d="M243.631 97.2651C243.631 97.8706 243.452 98.4624 243.115 98.9658C242.779 99.4692 242.301 99.8616 241.742 100.093C241.182 100.325 240.567 100.386 239.973 100.268C239.379 100.15 238.834 99.8581 238.405 99.43C237.977 99.002 237.686 98.4566 237.567 97.8628C237.449 97.269 237.51 96.6535 237.741 96.0941C237.973 95.5347 238.365 95.0566 238.869 94.7201C239.372 94.3837 239.964 94.204 240.569 94.2039C240.971 94.2038 241.369 94.2829 241.741 94.4367C242.112 94.5905 242.45 94.816 242.734 95.1002C243.019 95.3845 243.244 95.722 243.398 96.0935C243.552 96.4649 243.631 96.8631 243.631 97.2651Z" stroke="#222323" stroke-linecap="round" stroke-linejoin="round"/>
<path d="M240.564 98.8462V95.6855H242.144V97.2652H238.985V98.8462H240.564Z" stroke="#222323" stroke-linecap="round" stroke-linejoin="round"/>
<path d="M234.429 97.2651C234.429 97.8706 234.249 98.4625 233.913 98.9659C233.576 99.4693 233.098 99.8617 232.539 100.093C231.98 100.325 231.364 100.386 230.77 100.268C230.176 100.149 229.631 99.8579 229.203 99.4298C228.775 99.0017 228.483 98.4562 228.365 97.8624C228.247 97.2685 228.307 96.653 228.539 96.0936C228.771 95.5343 229.163 95.0562 229.667 94.7198C230.17 94.3834 230.762 94.2039 231.367 94.2039C231.769 94.2039 232.168 94.283 232.539 94.4369C232.91 94.5907 233.248 94.8162 233.532 95.1005C233.816 95.3848 234.042 95.7222 234.196 96.0936C234.35 96.465 234.429 96.8631 234.429 97.2651Z" stroke="#222323" stroke-linecap="round" stroke-linejoin="round"/>
<path d="M232.941 97.2651H229.782" stroke="#222323" stroke-linecap="round" stroke-linejoin="round"/>
<path d="M11.0308 160.127V105.433H56.9629" stroke="#222323" stroke-linecap="round" stroke-linejoin="round"/>
<path d="M255.516 191.529V105.433H231.362" stroke="#222323" stroke-linecap="round" stroke-linejoin="round"/>
<path d="M255.516 197.347V216.316" stroke="#222323" stroke-linecap="round" stroke-linejoin="round"/>
<path d="M255.516 230.758V238.197" stroke="#222323" stroke-linecap="round" stroke-linejoin="round"/>
<path d="M11 165.111V173.83" stroke="#222323" stroke-linecap="round" stroke-linejoin="round"/>
<path d="M62.0508 105.433H127.276" stroke="#222323" stroke-linecap="round" stroke-linejoin="round"/>
<path d="M148.13 105.433H152.281" stroke="#222323" stroke-linecap="round" stroke-linejoin="round"/>
<path d="M202.328 294.625H198.41C197.801 294.608 197.216 294.382 196.753 293.985C196.291 293.588 195.978 293.045 195.869 292.445L194.92 286.481" stroke="#222323" stroke-linecap="round" stroke-linejoin="round"/>
<path d="M216.381 286.481L217.336 292.445C217.387 292.713 217.377 292.989 217.308 293.254C217.239 293.518 217.112 293.763 216.936 293.972C216.76 294.181 216.54 294.347 216.291 294.46C216.042 294.573 215.772 294.629 215.499 294.625H204.272" stroke="#222323" stroke-linecap="round" stroke-linejoin="round"/>
<path d="M208.629 278.332H212.915C213.523 278.35 214.107 278.576 214.568 278.973C215.03 279.37 215.341 279.913 215.45 280.512L216.022 284.13" stroke="#222323" stroke-linecap="round" stroke-linejoin="round"/>
<path d="M205.654 278.332H207.007" stroke="#222323" stroke-linecap="round" stroke-linejoin="round"/>
<path d="M194.657 284.823L193.965 280.537C193.914 280.268 193.924 279.992 193.993 279.728C194.062 279.464 194.19 279.219 194.365 279.01C194.541 278.801 194.762 278.634 195.01 278.521C195.259 278.408 195.529 278.352 195.802 278.357H202.893" stroke="#222323" stroke-linecap="round" stroke-linejoin="round"/>
<path d="M210.484 275.02H208.911C208.779 275.023 208.65 275.065 208.542 275.14C208.433 275.215 208.349 275.32 208.299 275.442L207.772 276.795H198.41C197.953 276.796 197.507 276.939 197.135 277.206C196.763 277.473 196.484 277.849 196.337 278.283" stroke="#222323" stroke-linecap="round" stroke-linejoin="round"/>
<path d="M217.687 278.987C217.687 278.435 217.477 277.903 217.099 277.499C216.722 277.096 216.205 276.85 215.654 276.813L215.121 275.442C215.071 275.319 214.987 275.214 214.878 275.139C214.77 275.064 214.641 275.022 214.509 275.019H211.537" stroke="#222323" stroke-linecap="round" stroke-linejoin="round"/>
<path d="M215.517 294.625C215.804 294.625 216.089 294.569 216.355 294.46C216.621 294.35 216.862 294.189 217.066 293.986C217.27 293.783 217.431 293.542 217.541 293.277C217.652 293.011 217.708 292.726 217.708 292.439V281.216" stroke="#222323" stroke-linecap="round" stroke-linejoin="round"/>
<path d="M163.137 288.661L161.839 280.509C161.788 280.241 161.798 279.964 161.867 279.7C161.936 279.436 162.064 279.191 162.24 278.982C162.415 278.773 162.636 278.606 162.884 278.493C163.133 278.38 163.403 278.324 163.676 278.329H166.493" stroke="#222323" stroke-linecap="round" stroke-linejoin="round"/>
<path d="M176.019 294.624H166.278C165.669 294.607 165.085 294.38 164.622 293.984C164.16 293.587 163.848 293.044 163.737 292.445L163.437 290.553" stroke="#222323" stroke-linecap="round" stroke-linejoin="round"/>
<path d="M180.703 294.625H177.47" stroke="#222323" stroke-linecap="round" stroke-linejoin="round"/>
<path d="M168.985 278.332H180.789C181.397 278.35 181.981 278.576 182.442 278.973C182.904 279.37 183.215 279.913 183.324 280.512L185.229 292.445C185.279 292.713 185.27 292.989 185.201 293.253C185.132 293.518 185.004 293.763 184.828 293.972C184.652 294.18 184.432 294.347 184.184 294.46C183.935 294.573 183.664 294.629 183.391 294.625" stroke="#222323" stroke-linecap="round" stroke-linejoin="round"/>
<path d="M171.74 276.795H166.279C165.821 276.797 165.376 276.941 165.004 277.208C164.632 277.474 164.353 277.85 164.205 278.284" stroke="#222323" stroke-linecap="round" stroke-linejoin="round"/>
<path d="M185.552 286.481V278.987C185.552 278.435 185.342 277.903 184.965 277.499C184.587 277.096 184.071 276.85 183.519 276.813L182.987 275.442C182.938 275.318 182.854 275.212 182.745 275.137C182.636 275.062 182.507 275.021 182.375 275.019H176.785C176.652 275.021 176.523 275.062 176.414 275.137C176.305 275.212 176.221 275.318 176.173 275.442L175.646 276.795H173.534" stroke="#222323" stroke-linecap="round" stroke-linejoin="round"/>
<path d="M183.361 294.625C183.648 294.625 183.933 294.569 184.199 294.46C184.465 294.35 184.707 294.189 184.91 293.986C185.114 293.783 185.275 293.542 185.386 293.276C185.496 293.011 185.553 292.726 185.553 292.439V287.951" stroke="#222323" stroke-linecap="round" stroke-linejoin="round"/>
<path d="M170.209 265.122H166.284C165.675 265.104 165.091 264.878 164.628 264.481C164.166 264.085 163.854 263.542 163.743 262.943L162.794 256.97" stroke="#222323" stroke-linecap="round" stroke-linejoin="round"/>
<path d="M184.255 256.97L185.204 262.94C185.254 263.208 185.245 263.484 185.176 263.748C185.107 264.012 184.979 264.258 184.803 264.466C184.627 264.675 184.407 264.842 184.159 264.955C183.91 265.068 183.639 265.124 183.366 265.119H172.14" stroke="#222323" stroke-linecap="round" stroke-linejoin="round"/>
<path d="M176.497 248.821H180.784C181.392 248.841 181.976 249.068 182.437 249.466C182.899 249.864 183.21 250.408 183.319 251.007L183.9 254.62" stroke="#222323" stroke-linecap="round" stroke-linejoin="round"/>
<path d="M173.521 248.821H174.881" stroke="#222323" stroke-linecap="round" stroke-linejoin="round"/>
<path d="M162.525 255.317L161.839 251.031C161.787 250.762 161.796 250.485 161.865 250.22C161.933 249.955 162.061 249.709 162.237 249.5C162.413 249.29 162.633 249.123 162.882 249.009C163.132 248.896 163.403 248.84 163.676 248.845H170.767" stroke="#222323" stroke-linecap="round" stroke-linejoin="round"/>
<path d="M178.359 245.515H176.779C176.646 245.515 176.517 245.555 176.407 245.631C176.298 245.706 176.214 245.813 176.167 245.937L175.641 247.291H166.279C165.821 247.292 165.376 247.436 165.004 247.703C164.632 247.97 164.353 248.346 164.205 248.779" stroke="#222323" stroke-linecap="round" stroke-linejoin="round"/>
<path d="M185.552 249.482C185.552 248.929 185.342 248.398 184.965 247.994C184.587 247.59 184.071 247.345 183.519 247.308L182.987 245.937C182.939 245.812 182.856 245.705 182.746 245.63C182.637 245.554 182.507 245.514 182.374 245.514H179.393" stroke="#222323" stroke-linecap="round" stroke-linejoin="round"/>
<path d="M183.361 265.119C183.648 265.12 183.933 265.064 184.199 264.955C184.465 264.845 184.707 264.684 184.91 264.481C185.114 264.278 185.275 264.037 185.386 263.771C185.496 263.506 185.553 263.221 185.553 262.933V251.723" stroke="#222323" stroke-linecap="round" stroke-linejoin="round"/>
<path d="M195.269 259.174L193.965 251.022C193.913 250.754 193.921 250.477 193.99 250.212C194.059 249.947 194.186 249.701 194.362 249.491C194.538 249.282 194.759 249.114 195.008 249.001C195.257 248.887 195.528 248.831 195.802 248.836H198.618" stroke="#222323" stroke-linecap="round" stroke-linejoin="round"/>
<path d="M208.17 265.119H198.41C197.801 265.102 197.216 264.877 196.754 264.48C196.291 264.083 195.979 263.539 195.87 262.94L195.569 261.048" stroke="#222323" stroke-linecap="round" stroke-linejoin="round"/>
<path d="M212.835 265.119H209.602" stroke="#222323" stroke-linecap="round" stroke-linejoin="round"/>
<path d="M201.092 248.821H212.897C213.505 248.841 214.089 249.068 214.55 249.466C215.012 249.864 215.323 250.408 215.432 251.007L217.355 262.94C217.405 263.209 217.396 263.485 217.327 263.749C217.258 264.013 217.13 264.258 216.954 264.467C216.778 264.676 216.558 264.843 216.31 264.956C216.061 265.069 215.79 265.125 215.517 265.12" stroke="#222323" stroke-linecap="round" stroke-linejoin="round"/>
<path d="M203.884 247.29H198.423C197.965 247.29 197.519 247.434 197.147 247.701C196.775 247.968 196.496 248.344 196.349 248.777" stroke="#222323" stroke-linecap="round" stroke-linejoin="round"/>
<path d="M217.684 256.97V249.482C217.684 248.929 217.474 248.398 217.097 247.994C216.719 247.59 216.203 247.345 215.651 247.308L215.119 245.937C215.069 245.814 214.985 245.708 214.876 245.633C214.767 245.558 214.639 245.516 214.506 245.514H208.922C208.79 245.516 208.662 245.558 208.553 245.633C208.444 245.708 208.359 245.814 208.31 245.937L207.784 247.289H205.678" stroke="#222323" stroke-linecap="round" stroke-linejoin="round"/>
<path d="M215.517 265.119C215.804 265.12 216.089 265.064 216.355 264.955C216.621 264.845 216.862 264.684 217.066 264.481C217.27 264.278 217.431 264.037 217.541 263.771C217.652 263.506 217.708 263.221 217.708 262.933V258.421" stroke="#222323" stroke-linecap="round" stroke-linejoin="round"/>
<path d="M36.6915 221.024H19.5909C18.9814 221.004 18.397 220.777 17.9347 220.379C17.4725 219.981 17.1603 219.437 17.0502 218.838L15.1524 206.904C15.1014 206.636 15.1109 206.36 15.1801 206.096C15.2493 205.832 15.3766 205.586 15.5525 205.377C15.7285 205.169 15.9487 205.002 16.1973 204.889C16.4459 204.776 16.7165 204.72 16.9894 204.725H34.0957C34.704 204.743 35.2875 204.969 35.7489 205.366C36.2103 205.763 36.5216 206.306 36.6307 206.904L38.535 218.838C38.5871 219.107 38.5784 219.384 38.5093 219.65C38.4403 219.915 38.3127 220.161 38.136 220.371C37.9593 220.581 37.7379 220.748 37.4881 220.861C37.2383 220.974 36.9656 221.029 36.6915 221.024Z" stroke="#222323" stroke-linecap="round" stroke-linejoin="round"/>
<path d="M36.6916 221.024C37.2729 221.024 37.8303 220.793 38.2414 220.382C38.6524 219.971 38.8833 219.413 38.8833 218.832V205.362C38.8831 204.809 38.6731 204.277 38.2956 203.874C37.9182 203.47 37.4016 203.225 36.8503 203.188L36.3176 201.816C36.269 201.693 36.1849 201.587 36.0759 201.512C35.9669 201.437 35.8379 201.396 35.7055 201.394H30.1099C29.9775 201.396 29.8485 201.437 29.7395 201.512C29.6305 201.587 29.5463 201.693 29.4978 201.816L28.9715 203.169H19.591C19.1333 203.176 18.689 203.325 18.3202 203.596C17.9514 203.867 17.6764 204.247 17.5337 204.682" stroke="#222323" stroke-linecap="round" stroke-linejoin="round"/>
<path d="M163.401 268.285C165.199 268.285 166.658 266.827 166.658 265.028C166.658 263.229 165.199 261.771 163.401 261.771C161.602 261.771 160.143 263.229 160.143 265.028C160.143 266.827 161.602 268.285 163.401 268.285Z" fill="white" stroke="#222323" stroke-linecap="round" stroke-linejoin="round"/>
<path d="M162.788 263.803C162.91 263.819 163.034 263.789 163.134 263.717C163.234 263.645 163.303 263.538 163.327 263.417H163.651V266.522H163.168V264.162H162.788V263.803Z" fill="#263238"/>
<path d="M201.092 265.03C201.093 265.675 200.903 266.305 200.546 266.841C200.189 267.378 199.68 267.796 199.085 268.043C198.49 268.291 197.835 268.356 197.203 268.231C196.571 268.106 195.99 267.796 195.534 267.341C195.078 266.886 194.767 266.305 194.641 265.673C194.515 265.041 194.579 264.386 194.825 263.791C195.071 263.195 195.489 262.686 196.025 262.328C196.56 261.97 197.19 261.779 197.835 261.779C198.698 261.779 199.525 262.121 200.136 262.731C200.747 263.34 201.091 264.167 201.092 265.03Z" fill="white" stroke="#222323" stroke-linecap="round" stroke-linejoin="round"/>
<path d="M197.847 263.821C197.694 263.821 197.596 263.907 197.596 264.127V264.457H197.149V264.157C197.149 263.661 197.393 263.38 197.878 263.38C198.362 263.38 198.6 263.661 198.6 264.157C198.588 264.392 198.528 264.623 198.423 264.834C198.317 265.044 198.169 265.231 197.988 265.381C197.702 265.687 197.62 265.835 197.62 265.993V266.061H198.545V266.52H197.149V266.14C197.155 265.95 197.202 265.763 197.285 265.592C197.368 265.422 197.487 265.27 197.632 265.148C197.777 265.031 197.896 264.884 197.979 264.717C198.062 264.55 198.109 264.367 198.116 264.181C198.104 263.902 198.007 263.821 197.847 263.821Z" fill="#263238"/>
<path d="M166.658 294.625C166.659 295.269 166.469 295.899 166.112 296.436C165.755 296.972 165.247 297.391 164.651 297.638C164.056 297.886 163.401 297.951 162.769 297.826C162.137 297.701 161.556 297.392 161.1 296.936C160.643 296.481 160.333 295.901 160.206 295.269C160.08 294.637 160.144 293.982 160.391 293.386C160.637 292.79 161.054 292.281 161.59 291.923C162.126 291.565 162.756 291.374 163.401 291.374C164.263 291.374 165.091 291.716 165.701 292.326C166.312 292.935 166.656 293.762 166.658 294.625Z" fill="white" stroke="#222323" stroke-linecap="round" stroke-linejoin="round"/>
<path d="M163.639 293.774C163.639 293.498 163.541 293.416 163.388 293.416C163.235 293.416 163.137 293.502 163.137 293.722V293.924H162.678V293.753C162.678 293.257 162.923 292.976 163.4 292.976C163.503 292.967 163.605 292.982 163.701 293.018C163.797 293.055 163.883 293.113 163.953 293.188C164.023 293.263 164.075 293.352 164.106 293.45C164.136 293.548 164.144 293.651 164.129 293.753V293.832C164.142 293.957 164.115 294.083 164.054 294.192C163.993 294.302 163.9 294.39 163.787 294.444C163.906 294.501 164.004 294.595 164.066 294.712C164.128 294.829 164.15 294.963 164.129 295.094V295.338C164.144 295.44 164.136 295.543 164.106 295.641C164.075 295.739 164.023 295.828 163.953 295.903C163.883 295.978 163.797 296.036 163.701 296.073C163.605 296.109 163.503 296.124 163.4 296.115C162.923 296.115 162.678 295.829 162.678 295.338V295.081H163.137V295.367C163.137 295.587 163.235 295.673 163.388 295.673C163.541 295.673 163.639 295.593 163.639 295.315V295.076C163.639 294.79 163.541 294.678 163.321 294.678H163.156V294.238H163.345C163.529 294.238 163.639 294.158 163.639 293.907V293.774Z" fill="#263238"/>
<path d="M201.092 294.625C201.093 295.269 200.903 295.899 200.546 296.436C200.189 296.972 199.681 297.391 199.086 297.638C198.491 297.886 197.836 297.951 197.203 297.826C196.571 297.701 195.99 297.392 195.534 296.936C195.078 296.481 194.767 295.901 194.641 295.269C194.514 294.637 194.579 293.982 194.825 293.386C195.071 292.79 195.489 292.281 196.025 291.923C196.56 291.565 197.19 291.374 197.835 291.374C198.698 291.374 199.525 291.716 200.136 292.326C200.746 292.935 201.09 293.762 201.092 294.625Z" fill="white" stroke="#222323" stroke-linecap="round" stroke-linejoin="round"/>
<path d="M197.02 295.109L197.908 293.016H198.44V295.109H198.667V295.55H198.44V296.113H197.951V295.55H197.021L197.02 295.109ZM197.95 295.109V293.965L197.479 295.109H197.95Z" fill="#263238"/>
<path d="M221.553 198.35H233.303" stroke="#222323" stroke-linecap="round" stroke-linejoin="round"/>
<path d="M216.869 206.273V198.35H219.612" stroke="#222323" stroke-linecap="round" stroke-linejoin="round"/>
<path d="M219.208 224.428H216.869V207.712" stroke="#222323" stroke-linecap="round" stroke-linejoin="round"/>
<path d="M223.487 224.421H220.543" stroke="#222323" stroke-linecap="round" stroke-linejoin="round"/>
<path d="M239.021 224.005V224.428H226.555" stroke="#222323" stroke-linecap="round" stroke-linejoin="round"/>
<path d="M239.021 204.063V222.425" stroke="#222323" stroke-linecap="round" stroke-linejoin="round"/>
<path d="M242.695 200.39V220.754H220.543V194.677H236.976L240.821 198.522L242.695 200.39Z" fill="white" stroke="#222323" stroke-linecap="round" stroke-linejoin="round"/>
<path d="M242.695 200.39H236.974V194.677L240.819 198.522L242.695 200.39Z" fill="white" stroke="#222323" stroke-linecap="round" stroke-linejoin="round"/>
<path d="M231.619 204.926V210.498" stroke="#222323" stroke-linecap="round" stroke-linejoin="round"/>
<path d="M234.405 207.712H228.833" stroke="#222323" stroke-linecap="round" stroke-linejoin="round"/>
<path d="M85.2874 151.021V183.967H49.4387V141.77H76.0356L82.2569 147.992L85.2874 151.021Z" fill="white" stroke="#222323" stroke-linecap="round" stroke-linejoin="round"/>
<path d="M57.4104 148.114H80.6586" stroke="#222323" stroke-linecap="round" stroke-linejoin="round"/>
<path d="M54.1411 152.332H80.6587" stroke="#222323" stroke-linecap="round" stroke-linejoin="round"/>
<path d="M54.1411 156.557H80.6587" stroke="#222323" stroke-linecap="round" stroke-linejoin="round"/>
<path d="M54.1411 160.775H80.6587" stroke="#222323" stroke-linecap="round" stroke-linejoin="round"/>
<path d="M54.1411 165H80.6587" stroke="#222323" stroke-linecap="round" stroke-linejoin="round"/>
<path d="M54.1411 169.219H80.6587" stroke="#222323" stroke-linecap="round" stroke-linejoin="round"/>
<path d="M54.1411 173.437H80.6587" stroke="#222323" stroke-linecap="round" stroke-linejoin="round"/>
<path d="M54.1411 177.662H77.3893" stroke="#222323" stroke-linecap="round" stroke-linejoin="round"/>
<path d="M85.2867 151.021H76.0356V141.77L82.2569 147.992L85.2867 151.021Z" fill="white" stroke="#222323" stroke-linecap="round" stroke-linejoin="round"/>
<path d="M202.708 140.552V173.498H166.866V131.301H193.463L199.677 137.522L202.708 140.552Z" fill="white" stroke="#222323" stroke-linecap="round" stroke-linejoin="round"/>
<path d="M174.838 137.644H198.086" stroke="#222323" stroke-linecap="round" stroke-linejoin="round"/>
<path d="M171.562 141.868H198.085" stroke="#222323" stroke-linecap="round" stroke-linejoin="round"/>
<path d="M171.562 146.087H198.085" stroke="#222323" stroke-linecap="round" stroke-linejoin="round"/>
<path d="M171.562 150.306H198.085" stroke="#222323" stroke-linecap="round" stroke-linejoin="round"/>
<path d="M171.562 154.53H198.085" stroke="#222323" stroke-linecap="round" stroke-linejoin="round"/>
<path d="M171.562 158.749H198.085" stroke="#222323" stroke-linecap="round" stroke-linejoin="round"/>
<path d="M171.562 162.973H198.085" stroke="#222323" stroke-linecap="round" stroke-linejoin="round"/>
<path d="M171.562 167.192H194.816" stroke="#222323" stroke-linecap="round" stroke-linejoin="round"/>
<path d="M202.708 140.552H193.463V131.301L199.677 137.522L202.708 140.552Z" fill="white" stroke="#222323" stroke-linecap="round" stroke-linejoin="round"/>
<path d="M206.583 175.127V178.8H202.91" stroke="#222323" stroke-linecap="round" stroke-linejoin="round"/>
<path d="M195.661 178.8H170.288" stroke="#222323" stroke-linecap="round" stroke-linejoin="round" stroke-dasharray="11.84 11.84"/>
<path d="M166.663 178.8H162.99V175.127" stroke="#222323" stroke-linecap="round" stroke-linejoin="round"/>
<path d="M162.99 168.631V132.923" stroke="#222323" stroke-linecap="round" stroke-linejoin="round" stroke-dasharray="10.6 10.6"/>
<path d="M162.99 129.678V126.005H166.663" stroke="#222323" stroke-linecap="round" stroke-linejoin="round"/>
<path d="M173.913 126.005H199.286" stroke="#222323" stroke-linecap="round" stroke-linejoin="round" stroke-dasharray="11.84 11.84"/>
<path d="M202.91 126.005H206.583V129.678" stroke="#222323" stroke-linecap="round" stroke-linejoin="round"/>
<path d="M206.584 136.168V171.876" stroke="#222323" stroke-linecap="round" stroke-linejoin="round" stroke-dasharray="10.6 10.6"/>
<path d="M89.6646 163.861L154.957 153.6" stroke="#222323" stroke-linecap="round" stroke-linejoin="round" stroke-dasharray="12 12"/>
<path d="M156.249 153.293L154.253 152.528L154.731 154.793L156.249 153.293Z" fill="#222323"/>
<path d="M90.3324 163.861C90.3311 164.014 90.277 164.162 90.1792 164.279C90.0814 164.397 89.946 164.476 89.7959 164.505C89.6459 164.534 89.4905 164.51 89.3561 164.438C89.2218 164.365 89.1167 164.248 89.0588 164.106C89.0009 163.965 88.9938 163.808 89.0386 163.662C89.0834 163.516 89.1774 163.39 89.3046 163.305C89.4318 163.22 89.5844 163.182 89.7364 163.198C89.8884 163.213 90.0306 163.28 90.1386 163.388C90.2005 163.45 90.2494 163.524 90.2827 163.605C90.3159 163.687 90.3328 163.774 90.3324 163.861Z" fill="#222323"/>
<path d="M208.992 131.42C211.104 129.309 211.104 125.886 208.992 123.775C206.881 121.663 203.458 121.663 201.347 123.775C199.236 125.886 199.236 129.309 201.347 131.42C203.458 133.531 206.881 133.531 208.992 131.42Z" fill="white" stroke="#222323" stroke-linecap="round" stroke-linejoin="round"/>
<path d="M205.169 124.811V130.382" stroke="#222323" stroke-linecap="round" stroke-linejoin="round"/>
<path d="M207.955 127.596H202.39" stroke="#222323" stroke-linecap="round" stroke-linejoin="round"/>
<path d="M114.689 215.986C113.967 215.986 112.558 214.002 111.738 212.741C111.738 215.35 111.738 222.011 112.895 221.582C114.291 221.048 115.76 215.986 114.689 215.986Z" fill="white" stroke="#222323" stroke-linecap="round" stroke-linejoin="round"/>
<path d="M111.529 234.261C111.082 234.775 110.534 235.192 109.918 235.485C108.131 236.403 105.436 236.838 102.345 236.709C89.8789 236.231 70.8991 226.754 78.3503 203.335C82.9175 188.961 103.711 193.747 109.019 199.22C110.856 201.136 112.429 205.165 113.421 209.892C113.782 211.619 113.06 213.437 113.262 215.28C113.439 216.946 114.559 218.629 114.59 220.286C114.695 226.112 113.801 231.487 111.529 234.261Z" fill="white" stroke="#222323" stroke-linecap="round" stroke-linejoin="round"/>
<path d="M106.135 233.515C106.135 233.515 105.002 247.695 106.869 250.892C108.736 254.088 90.7417 257.29 83.5415 250.892C83.5415 250.892 87.6561 240.336 87.26 230.142" fill="white"/>
<path d="M106.135 233.515C106.135 233.515 105.002 247.695 106.869 250.892C108.736 254.088 90.7417 257.29 83.5415 250.892C83.5415 250.892 87.6561 240.336 87.26 230.142" stroke="#222323" stroke-linecap="round" stroke-linejoin="round"/>
<path d="M109.019 206.445C109.019 206.445 114.621 204.069 112.729 196.208C110.066 185.12 104.066 191.971 102.07 190.318C98.9654 187.758 93.008 185.419 88.2077 189.467C83.4073 193.514 80.4812 193.967 74.3522 199.738C68.2231 205.509 68.2296 218.456 74.3522 223.573C80.4747 228.691 82.0787 234.08 87.9445 235.788C93.8104 237.497 102.553 235.176 104.311 230.749C105.322 228.362 105.917 225.819 106.068 223.231C106.068 223.231 111.156 214.246 109.019 206.445Z" fill="white" stroke="#222323"/>
<path d="M108.603 220.24C108.603 220.24 107.336 214.73 106.533 214.305C105.731 213.88 103.27 218.676 103.338 220.587C103.405 222.498 106.001 225.901 107.271 226.709C108.54 227.517 108.979 225.246 109.022 224.977" fill="white"/>
<path d="M108.603 220.24C108.603 220.24 107.336 214.73 106.533 214.305C105.731 213.88 103.27 218.676 103.338 220.587C103.405 222.498 106.001 225.901 107.271 226.709C108.54 227.517 108.979 225.246 109.022 224.977" stroke="#222323" stroke-linecap="round" stroke-linejoin="round"/>
<path d="M106.803 217.374C106.803 217.374 105.801 220.643 107.268 223.301" stroke="#222323" stroke-linecap="round" stroke-linejoin="round"/>
<path opacity="0.2" d="M108.204 200.132C108.058 201.884 107.592 203.984 106.135 205.11" stroke="white" stroke-linecap="round" stroke-linejoin="round"/>
<path opacity="0.2" d="M98.3962 193.244C100.361 192.356 103.08 191.285 105.247 191.848C107.929 192.553 108.242 196.367 108.266 198.651" stroke="white" stroke-linecap="round" stroke-linejoin="round"/>
<path opacity="0.2" d="M102.559 209.941C102.261 210.911 101.867 211.848 101.383 212.74" stroke="white" stroke-linecap="round" stroke-linejoin="round"/>
<path opacity="0.2" d="M93.0632 197.763C95.5124 197.07 98.5308 196.599 100.643 198.335C103.392 200.594 103.582 205.376 102.931 208.566" stroke="white" stroke-linecap="round" stroke-linejoin="round"/>
<path opacity="0.2" d="M95.4761 206.69C97.5884 210.559 97.5498 218.464 92.6658 220.337" stroke="white" stroke-linecap="round" stroke-linejoin="round"/>
<path opacity="0.2" d="M88.5505 202.288C90.6322 201.021 93.6327 204.045 94.716 205.506" stroke="white" stroke-linecap="round" stroke-linejoin="round"/>
<path opacity="0.2" d="M94.0053 190.407C93.6412 189.927 93.1438 189.566 92.5754 189.368C92.007 189.17 91.3928 189.144 90.8096 189.293" stroke="white" stroke-linecap="round" stroke-linejoin="round"/>
<path opacity="0.2" d="M95.7934 193.992C95.56 193.138 95.2239 192.316 94.7922 191.543" stroke="white" stroke-linecap="round" stroke-linejoin="round"/>
<path opacity="0.2" d="M89.6776 198.43C89.6776 198.43 90.0022 192.118 85.3914 193.854" stroke="white" stroke-linecap="round" stroke-linejoin="round"/>
<path opacity="0.2" d="M80.2668 198.48C79.3367 198.345 78.388 198.519 77.5667 198.976" stroke="white" stroke-linecap="round" stroke-linejoin="round"/>
<path opacity="0.2" d="M84.1052 202.612C83.6547 201.072 82.669 199.743 81.3257 198.865" stroke="white" stroke-linecap="round" stroke-linejoin="round"/>
<path opacity="0.2" d="M80.4814 223.914C81.158 224.402 81.8871 224.812 82.6553 225.138" stroke="white" stroke-linecap="round" stroke-linejoin="round"/>
<path opacity="0.2" d="M77.7568 208.821C76.5326 212.739 76.0978 219.841 79.3608 223.019" stroke="white" stroke-linecap="round" stroke-linejoin="round"/>
<path opacity="0.2" d="M84.1056 204.945C81.4669 203.721 79.2874 205.19 78.2097 207.662" stroke="white" stroke-linecap="round" stroke-linejoin="round"/>
<path d="M81.9255 245.961L84.9218 237.303C84.9218 237.303 106.56 234.456 111.733 241.632C116.907 248.807 81.9255 245.961 81.9255 245.961Z" fill="white" stroke="#222323" stroke-linecap="round" stroke-linejoin="round"/>
<path d="M43.1684 233.513C43.1684 233.513 40.7192 229.503 40.9152 228.481C41.1111 227.458 40.4861 222.676 40.9152 220.362C41.3557 217.913 43.1741 218.458 43.1741 218.458C43.1741 218.458 43.915 213.793 45.85 214.135C45.85 214.135 46.1131 208.415 46.8053 207.205C47.4975 205.995 47.8465 205.245 47.8465 205.245C47.8465 205.245 49.2302 204.633 49.2302 206.69V212.576L50.7855 206.343L53.0387 203.239C53.4971 203.787 53.7691 204.467 53.8154 205.18C53.8617 205.894 53.6798 206.603 53.2962 207.206C52.3408 208.933 53.2962 219.672 53.2962 219.672C53.9489 219.5 54.5511 219.175 55.0527 218.724C55.5544 218.272 55.9409 217.707 56.1801 217.076C56.1801 217.076 56.9667 214.878 58.9968 214.333C61.027 213.788 59.1313 216.207 58.3847 219.672C57.6382 223.137 52.9107 230.748 50.4744 232.309" fill="white"/>
<path d="M43.1684 233.513C43.1684 233.513 40.7192 229.503 40.9152 228.481C41.1111 227.458 40.4861 222.676 40.9152 220.362C41.3557 217.913 43.1741 218.458 43.1741 218.458C43.1741 218.458 43.915 213.793 45.85 214.135C45.85 214.135 46.1131 208.415 46.8053 207.205C47.4975 205.995 47.8465 205.245 47.8465 205.245C47.8465 205.245 49.2302 204.633 49.2302 206.69V212.576L50.7855 206.343L53.0387 203.239C53.4971 203.787 53.7691 204.467 53.8154 205.18C53.8617 205.894 53.6798 206.603 53.2962 207.206C52.3408 208.933 53.2962 219.672 53.2962 219.672C53.9489 219.5 54.5511 219.175 55.0527 218.724C55.5544 218.272 55.9409 217.707 56.1801 217.076C56.1801 217.076 56.9667 214.878 58.9968 214.333C61.027 213.788 59.1313 216.207 58.3847 219.672C57.6382 223.137 52.9107 230.748 50.4744 232.309" stroke="#222323" stroke-linecap="round" stroke-linejoin="round"/>
<path d="M51.7832 229.436L45.7586 264.004L64.2858 253.192L60.5266 279.899C60.5266 279.899 36.6849 290.92 31.3275 292.077C25.97 293.234 24.6292 277.995 25.4316 273.964C26.2339 269.933 41.0205 239.469 42.8568 230.867" fill="white"/>
<path d="M51.7832 229.436L45.7586 264.004L64.2858 253.192L60.5266 279.899C60.5266 279.899 36.6849 290.92 31.3275 292.077C25.97 293.234 24.6292 277.995 25.4316 273.964C26.2339 269.933 41.0205 239.469 42.8568 230.867" stroke="#222323" stroke-linecap="round" stroke-linejoin="round"/>
<path d="M31.6531 271.015C34.7531 268.58 38.2606 266.714 42.0125 265.505" stroke="#222323" stroke-linecap="round" stroke-linejoin="round"/>
<path d="M70.9048 246.518L70.1089 271.419L69.7514 282.531L51.6347 287.081L46.8035 288.305C36.8295 281.57 38.299 264.071 38.299 264.071L43.1616 260.575L46.0763 261.157C46.0763 261.157 64.4083 247.541 70.9048 246.518Z" fill="white"/>
<mask id="mask0_1791_17" style="mask-type:luminance" maskUnits="userSpaceOnUse" x="38" y="246" width="33" height="43">
<path d="M70.9041 246.518L70.1082 271.419L69.7506 282.531L51.6339 287.081L46.8028 288.305C36.8288 281.57 38.2983 264.071 38.2983 264.071L43.1609 260.575L46.0756 261.157C46.0756 261.157 64.4075 247.541 70.9041 246.518Z" fill="white"/>
</mask>
<g mask="url(#mask0_1791_17)">
<path opacity="0.2" d="M70.1081 271.42L69.7506 282.532L51.6338 287.081C50.0356 282.263 53.3422 283.585 53.3422 283.585C52.2605 281.949 51.6718 280.036 51.646 278.075L54.9826 279.612C52.9682 274.524 56.3663 268.805 56.3663 268.805L56.9784 274.316C56.3663 268.805 62.8872 259.529 62.8872 259.529C62.8872 259.529 67.6647 263.3 70.1081 271.42Z" fill="black" fill-opacity="0.7"/>
</g>
<path d="M70.9048 246.518L70.1089 271.419L69.7514 282.531L51.6347 287.081L46.8035 288.305C36.8295 281.57 38.299 264.071 38.299 264.071L43.1616 260.575L46.0763 261.157C46.0763 261.157 64.4083 247.541 70.9048 246.518Z" stroke="#222323" stroke-linecap="round" stroke-linejoin="round"/>
<path d="M55.7698 271.597C55.8101 274.867 56.6286 278.08 58.1575 280.971" stroke="#222323" stroke-linecap="round" stroke-linejoin="round"/>
<path d="M51.6489 279.636C51.6489 279.636 55.5433 284.399 58.3228 285.409" stroke="#222323" stroke-linecap="round" stroke-linejoin="round"/>
<path d="M46.0777 261.133C46.0777 261.133 42.882 267.783 44.7248 274.315" stroke="#222323" stroke-linecap="round" stroke-linejoin="round"/>
<path d="M62.0514 254.581C59.3026 262.675 58.378 277.486 58.1942 291.415C57.9618 308.724 58.88 324.674 58.88 324.674C73.3175 349.208 105.878 339.047 117.66 334.342H117.722C120.415 333.258 122.007 332.475 122.007 332.475C125.368 318.725 127.94 304.793 129.709 290.749C132.018 272.142 132.069 258.256 131.662 249.556C131.544 245.979 131.223 242.412 130.701 238.872C130.701 238.872 120.385 239 108.194 239.863C101.594 240.329 94.4491 241.003 88.0934 241.988C84.0938 242.585 80.1425 243.469 76.2701 244.634C74.2007 245.246 70.809 246.416 69.2966 246.979C68.4389 247.342 67.6011 247.751 66.7867 248.203" fill="white"/>
<path opacity="0.2" d="M108.156 239.838C101.482 242.703 91.1839 246.242 87.4183 246.126C83.3037 246.004 78.3753 245.703 76.2322 244.608C80.1045 243.443 84.0559 242.559 88.0554 241.962C94.4104 240.977 101.556 240.304 108.156 239.838Z" fill="black" fill-opacity="0.7"/>
<path opacity="0.2" d="M117.634 334.343C105.878 339.045 73.3176 349.209 58.8536 324.675C58.8536 324.675 57.9354 308.729 58.1678 291.416C62.8087 300.968 78.103 307.148 78.103 307.148C78.103 307.148 76.4133 288.431 78.103 283.913C79.7927 279.395 84.5867 253.128 84.5867 253.128C84.5867 253.128 86.4237 258.399 83.514 272.769C80.6044 287.139 81.898 307.148 81.898 307.148C89.0245 308.697 106.107 307.148 106.107 307.148C93.837 324.573 66.7324 327.512 66.7324 327.512C85.4855 343.256 116.109 334.776 117.634 334.343Z" fill="black" fill-opacity="0.7"/>
<path opacity="0.2" d="M129.677 290.724C129.163 286.659 128.676 283.591 128.676 283.591C127.452 293.245 114.704 296.345 117.691 293.081C120.679 289.817 126.009 279.614 126.009 279.614C123.266 271.618 127.742 248.168 127.742 248.168C127.742 248.168 129.297 248.591 131.63 249.509C132.04 258.233 131.985 272.117 129.677 290.724Z" fill="black" fill-opacity="0.7"/>
<path d="M121.974 332.455C125.335 318.705 127.907 304.774 129.676 290.729C131.985 272.123 132.04 258.237 131.629 249.536C131.511 245.959 131.19 242.392 130.668 238.852C130.668 238.852 120.351 238.981 108.161 239.844C101.56 240.309 94.4153 240.983 88.0596 241.968C84.0601 242.565 80.1088 243.449 76.2364 244.614C74.1669 245.226 70.7753 246.396 69.2629 246.959C68.4052 247.322 67.5673 247.731 66.7529 248.183" stroke="#222323" stroke-linecap="round" stroke-linejoin="round"/>
<path d="M62.0514 254.581C59.3026 262.675 58.378 277.486 58.1942 291.415C57.9618 308.724 58.88 324.674 58.88 324.674" stroke="#222323" stroke-linecap="round" stroke-linejoin="round"/>
<path d="M109.667 239.734C109.667 239.734 87.2459 248.672 81.9221 248.152" stroke="#222323" stroke-linecap="round" stroke-linejoin="round"/>
<path d="M84.7978 251.826C84.7978 251.826 78.2955 295.848 80.4751 310.867C80.4751 310.867 78.6687 325.292 76.6665 334.311" stroke="#222323" stroke-linecap="round" stroke-linejoin="round"/>
<path d="M64.2883 303.373C64.2883 303.373 63.3087 310.151 80.5072 310.881C97.7057 311.612 107.3 304.582 107.3 304.582" stroke="#222323" stroke-linecap="round" stroke-linejoin="round"/>
<path d="M179.693 199.221C179.253 195.608 178.934 186.216 179.693 185.616C180.453 185.016 184.451 178.784 184.451 178.784C185.314 178.851 185.063 180.214 185.063 180.214C185.063 180.214 190.261 171.244 191.455 169.432C192.649 167.62 193.457 168.82 193.255 170.822C193.255 170.822 194.682 167.89 195.325 168.789C196.586 170.564 193.659 179.411 193.659 179.411C193.659 179.411 196.305 179.216 196.176 182.215C196.176 182.215 197.786 181.715 197.92 184.328C198.012 186.067 197.173 191.173 195.385 190.108C195.385 190.108 194.253 197.387 187.426 200.896" fill="white"/>
<path d="M179.693 199.221C179.253 195.608 178.934 186.216 179.693 185.616C180.453 185.016 184.451 178.784 184.451 178.784C185.314 178.851 185.063 180.214 185.063 180.214C185.063 180.214 190.261 171.244 191.455 169.432C192.649 167.62 193.457 168.82 193.255 170.822C193.255 170.822 194.682 167.89 195.325 168.789C196.586 170.564 193.659 179.411 193.659 179.411C193.659 179.411 196.305 179.216 196.176 182.215C196.176 182.215 197.786 181.715 197.92 184.328C198.012 186.067 197.173 191.173 195.385 190.108C195.385 190.108 194.253 197.387 187.426 200.896" stroke="#222323" stroke-linecap="round" stroke-linejoin="round"/>
<path d="M185.049 180.191C185.049 180.191 183.384 183.154 182.251 185.224C181.638 186.19 181.251 187.282 181.119 188.419" stroke="#222323" stroke-linecap="round" stroke-linejoin="round"/>
<path d="M193.243 170.823C193.243 170.823 189.373 179.015 188.577 180.191" stroke="#222323" stroke-linecap="round" stroke-linejoin="round"/>
<path d="M193.646 179.413C193.646 179.413 192.109 180.95 191.913 181.182" stroke="#222323" stroke-linecap="round" stroke-linejoin="round"/>
<path d="M196.163 182.218C196.163 182.218 195.551 182.714 194.577 183.515" stroke="#222323" stroke-linecap="round" stroke-linejoin="round"/>
<path d="M195.374 190.11C195.374 190.11 195.711 187.777 195.711 187.581C195.711 187.385 196.777 186.644 197.107 185.579" stroke="#222323" stroke-linecap="round" stroke-linejoin="round"/>
<path d="M180.042 196.177C180.042 196.177 178.969 199.631 171.776 212.709C164.583 225.787 161.637 233.11 161.637 233.11L147.94 236.863L151.479 258.788C151.479 258.788 175.107 246.316 175.878 244.645C176.65 242.973 182.472 225.217 184.45 217.172C186.428 209.128 188.889 199.307 188.889 199.307" fill="white"/>
<path d="M180.042 196.177C180.042 196.177 178.969 199.631 171.776 212.709C164.583 225.787 161.637 233.11 161.637 233.11L147.94 236.863L151.479 258.788C151.479 258.788 175.107 246.316 175.878 244.645C176.65 242.973 182.472 225.217 184.45 217.172C186.428 209.128 188.889 199.307 188.889 199.307" stroke="#222323" stroke-linecap="round" stroke-linejoin="round"/>
<path d="M159.682 249.733C158.457 254.686 156.178 257.361 154.251 258.788C153.264 259.569 152.116 260.119 150.89 260.398L130.685 271.597C128.016 264.888 126.916 257.659 127.467 250.461C127.819 246.419 128.91 242.476 130.685 238.828L150.106 235.395L151.906 233.595H155.105C155.105 233.595 162.085 240.065 159.682 249.733Z" fill="white"/>
<mask id="mask1_1791_17" style="mask-type:luminance" maskUnits="userSpaceOnUse" x="127" y="233" width="34" height="39">
<path d="M159.682 249.732C158.457 254.685 156.178 257.361 154.251 258.787C153.264 259.568 152.116 260.118 150.89 260.398L130.685 271.596C128.016 264.888 126.916 257.658 127.467 250.46C127.819 246.418 128.91 242.475 130.685 238.827L150.106 235.395L151.906 233.595H155.105C155.105 233.595 162.085 240.064 159.682 249.732Z" fill="white"/>
</mask>
<g mask="url(#mask1_1791_17)">
<path opacity="0.2" d="M154.254 258.788C153.268 259.569 152.12 260.119 150.893 260.398L130.689 271.597C128.02 264.888 126.919 257.659 127.471 250.461C131.285 250.89 130.023 263.741 131.365 263.888C132.816 264.053 139.117 254.582 140.408 254.582C142.471 254.582 140.475 263.6 140.408 263.888C140.69 263.79 149.704 260.416 152.298 255.493C153.581 253.051 154.517 255.13 154.254 258.788Z" fill="black" fill-opacity="0.7"/>
</g>
<path d="M159.682 249.733C158.457 254.686 156.178 257.361 154.251 258.788C153.264 259.569 152.116 260.119 150.89 260.398L130.685 271.597C128.016 264.888 126.916 257.659 127.467 250.461C127.819 246.419 128.91 242.476 130.685 238.828L150.106 235.395L151.906 233.595H155.105C155.105 233.595 162.085 240.065 159.682 249.733Z" stroke="#222323" stroke-linecap="round" stroke-linejoin="round"/>
<path d="M150.089 235.411C151.731 237.156 152.967 239.243 153.708 241.522C154.449 243.801 154.677 246.216 154.375 248.593" stroke="#222323" stroke-linecap="round" stroke-linejoin="round"/>
<path d="M138.371 258.788C138.371 258.788 132.456 266.582 130.669 271.596C130.669 271.596 125.77 287.693 118.986 292.138" stroke="#222323" stroke-linecap="round" stroke-linejoin="round"/>
<path d="M161.637 233.109C161.637 233.109 164.754 232.197 166.45 233.513" stroke="#222323" stroke-linecap="round" stroke-linejoin="round"/>
<path d="M133.722 47V29.5455H140.267C141.608 29.5455 142.733 29.7784 143.642 30.2443C144.557 30.7102 145.247 31.3636 145.713 32.2045C146.185 33.0398 146.42 34.0142 146.42 35.1278C146.42 36.2472 146.182 37.2187 145.705 38.0426C145.233 38.8608 144.537 39.4943 143.616 39.9432C142.696 40.3864 141.565 40.608 140.224 40.608H135.562V37.983H139.798C140.582 37.983 141.224 37.875 141.724 37.6591C142.224 37.4375 142.594 37.1165 142.832 36.696C143.077 36.2699 143.199 35.7472 143.199 35.1278C143.199 34.5085 143.077 33.9801 142.832 33.5426C142.588 33.0994 142.216 32.7642 141.716 32.5369C141.216 32.304 140.571 32.1875 139.781 32.1875H136.884V47H133.722ZM142.739 39.0909L147.06 47H143.531L139.287 39.0909H142.739ZM154.803 47.2557C153.49 47.2557 152.357 46.983 151.402 46.4375C150.453 45.8864 149.723 45.108 149.212 44.1023C148.7 43.0909 148.445 41.9006 148.445 40.5312C148.445 39.1847 148.7 38.0028 149.212 36.9858C149.729 35.9631 150.45 35.1676 151.376 34.5994C152.303 34.0256 153.391 33.7386 154.641 33.7386C155.447 33.7386 156.209 33.8693 156.925 34.1307C157.646 34.3864 158.283 34.7841 158.834 35.3239C159.391 35.8636 159.828 36.5511 160.146 37.3864C160.464 38.2159 160.624 39.2045 160.624 40.3523V41.2983H149.893V39.2188H157.666C157.661 38.6278 157.533 38.1023 157.283 37.642C157.033 37.1761 156.683 36.8097 156.234 36.5426C155.791 36.2756 155.274 36.142 154.683 36.142C154.053 36.142 153.499 36.2955 153.021 36.6023C152.544 36.9034 152.172 37.3011 151.905 37.7955C151.643 38.2841 151.51 38.821 151.504 39.4062V41.2216C151.504 41.983 151.643 42.6364 151.922 43.1818C152.2 43.7216 152.589 44.1364 153.089 44.4261C153.589 44.7102 154.175 44.8523 154.845 44.8523C155.294 44.8523 155.7 44.7898 156.064 44.6648C156.428 44.5341 156.743 44.3438 157.01 44.0938C157.277 43.8438 157.479 43.5341 157.615 43.1648L160.496 43.4886C160.314 44.25 159.967 44.9148 159.456 45.483C158.95 46.0455 158.303 46.483 157.513 46.7955C156.723 47.1023 155.82 47.2557 154.803 47.2557ZM171.969 51.9091V44.9375H171.842C171.683 45.2557 171.452 45.5937 171.151 45.9517C170.85 46.304 170.452 46.6051 169.958 46.8551C169.464 47.1051 168.842 47.2301 168.092 47.2301C167.063 47.2301 166.143 46.9659 165.33 46.4375C164.518 45.9091 163.876 45.142 163.404 44.1364C162.933 43.1307 162.697 41.9091 162.697 40.4716C162.697 39.017 162.935 37.7898 163.413 36.7898C163.896 35.7841 164.546 35.0256 165.364 34.5142C166.183 33.9972 167.094 33.7386 168.1 33.7386C168.867 33.7386 169.498 33.8693 169.992 34.1307C170.487 34.3864 170.879 34.696 171.168 35.0597C171.458 35.4176 171.683 35.7557 171.842 36.0739H172.029V33.9091H175.063V51.9091H171.969ZM168.952 44.6989C169.606 44.6989 170.163 44.5227 170.623 44.1705C171.083 43.8125 171.433 43.3153 171.671 42.679C171.91 42.0426 172.029 41.3011 172.029 40.4545C172.029 39.608 171.91 38.8722 171.671 38.2472C171.438 37.6222 171.092 37.1364 170.631 36.7898C170.177 36.4432 169.617 36.2699 168.952 36.2699C168.265 36.2699 167.691 36.4489 167.231 36.8068C166.771 37.1648 166.424 37.6591 166.191 38.2898C165.958 38.9205 165.842 39.642 165.842 40.4545C165.842 41.2727 165.958 42.0028 166.191 42.6449C166.43 43.2812 166.779 43.7841 167.239 44.1534C167.705 44.517 168.276 44.6989 168.952 44.6989ZM186.577 41.4943V33.9091H189.663V47H186.671V44.6733H186.535C186.239 45.4062 185.754 46.0057 185.077 46.4716C184.407 46.9375 183.58 47.1705 182.597 47.1705C181.739 47.1705 180.981 46.9801 180.322 46.5994C179.668 46.2131 179.157 45.6534 178.788 44.9205C178.418 44.1818 178.234 43.2898 178.234 42.2443V33.9091H181.319V41.767C181.319 42.5966 181.546 43.2557 182.001 43.7443C182.455 44.233 183.052 44.4773 183.79 44.4773C184.245 44.4773 184.685 44.3665 185.112 44.1449C185.538 43.9233 185.887 43.5938 186.16 43.1562C186.438 42.7131 186.577 42.1591 186.577 41.4943ZM192.835 47V33.9091H195.92V47H192.835ZM194.386 32.0511C193.898 32.0511 193.477 31.8892 193.125 31.5653C192.773 31.2358 192.597 30.8409 192.597 30.3807C192.597 29.9148 192.773 29.5199 193.125 29.196C193.477 28.8665 193.898 28.7017 194.386 28.7017C194.881 28.7017 195.301 28.8665 195.648 29.196C196 29.5199 196.176 29.9148 196.176 30.3807C196.176 30.8409 196 31.2358 195.648 31.5653C195.301 31.8892 194.881 32.0511 194.386 32.0511ZM199.093 47V33.9091H202.085V36.0909H202.221C202.46 35.3352 202.869 34.7528 203.448 34.3438C204.033 33.929 204.701 33.7216 205.451 33.7216C205.621 33.7216 205.812 33.7301 206.022 33.7472C206.238 33.7585 206.417 33.7784 206.559 33.8068V36.6449C206.428 36.5994 206.221 36.5597 205.937 36.5256C205.658 36.4858 205.388 36.4659 205.127 36.4659C204.565 36.4659 204.059 36.5881 203.61 36.8324C203.167 37.071 202.817 37.4034 202.562 37.8295C202.306 38.2557 202.178 38.7472 202.178 39.304V47H199.093ZM213.865 47.2557C212.553 47.2557 211.419 46.983 210.464 46.4375C209.516 45.8864 208.786 45.108 208.274 44.1023C207.763 43.0909 207.507 41.9006 207.507 40.5312C207.507 39.1847 207.763 38.0028 208.274 36.9858C208.791 35.9631 209.513 35.1676 210.439 34.5994C211.365 34.0256 212.453 33.7386 213.703 33.7386C214.51 33.7386 215.271 33.8693 215.987 34.1307C216.709 34.3864 217.345 34.7841 217.896 35.3239C218.453 35.8636 218.891 36.5511 219.209 37.3864C219.527 38.2159 219.686 39.2045 219.686 40.3523V41.2983H208.956V39.2188H216.729C216.723 38.6278 216.595 38.1023 216.345 37.642C216.095 37.1761 215.746 36.8097 215.297 36.5426C214.854 36.2756 214.337 36.142 213.746 36.142C213.115 36.142 212.561 36.2955 212.084 36.6023C211.607 36.9034 211.234 37.3011 210.967 37.7955C210.706 38.2841 210.572 38.821 210.567 39.4062V41.2216C210.567 41.983 210.706 42.6364 210.984 43.1818C211.263 43.7216 211.652 44.1364 212.152 44.4261C212.652 44.7102 213.237 44.8523 213.908 44.8523C214.357 44.8523 214.763 44.7898 215.126 44.6648C215.49 44.5341 215.805 44.3438 216.072 44.0938C216.339 43.8438 216.541 43.5341 216.678 43.1648L219.558 43.4886C219.376 44.25 219.03 44.9148 218.518 45.483C218.013 46.0455 217.365 46.483 216.575 46.7955C215.786 47.1023 214.882 47.2557 213.865 47.2557ZM222.296 47V33.9091H225.245V36.1335H225.398C225.671 35.3835 226.123 34.7983 226.754 34.3778C227.384 33.9517 228.137 33.7386 229.012 33.7386C229.898 33.7386 230.646 33.9545 231.254 34.3864C231.867 34.8125 232.299 35.3949 232.549 36.1335H232.685C232.975 35.4062 233.464 34.8267 234.151 34.3949C234.844 33.9574 235.665 33.7386 236.614 33.7386C237.819 33.7386 238.802 34.1193 239.563 34.8807C240.325 35.642 240.705 36.7528 240.705 38.2131V47H237.612V38.6903C237.612 37.8778 237.396 37.2841 236.964 36.9091C236.532 36.5284 236.004 36.3381 235.379 36.3381C234.634 36.3381 234.052 36.571 233.631 37.0369C233.217 37.4972 233.009 38.0966 233.009 38.8352V47H229.984V38.5625C229.984 37.8864 229.779 37.3466 229.37 36.9432C228.967 36.5398 228.438 36.3381 227.785 36.3381C227.342 36.3381 226.938 36.4517 226.575 36.679C226.211 36.9006 225.921 37.2159 225.705 37.625C225.489 38.0284 225.381 38.5 225.381 39.0398V47H222.296ZM249.631 47.2557C248.318 47.2557 247.185 46.983 246.23 46.4375C245.281 45.8864 244.551 45.108 244.04 44.1023C243.528 43.0909 243.273 41.9006 243.273 40.5312C243.273 39.1847 243.528 38.0028 244.04 36.9858C244.557 35.9631 245.278 35.1676 246.205 34.5994C247.131 34.0256 248.219 33.7386 249.469 33.7386C250.276 33.7386 251.037 33.8693 251.753 34.1307C252.474 34.3864 253.111 34.7841 253.662 35.3239C254.219 35.8636 254.656 36.5511 254.974 37.3864C255.293 38.2159 255.452 39.2045 255.452 40.3523V41.2983H244.722V39.2188H252.494C252.489 38.6278 252.361 38.1023 252.111 37.642C251.861 37.1761 251.511 36.8097 251.062 36.5426C250.619 36.2756 250.102 36.142 249.511 36.142C248.881 36.142 248.327 36.2955 247.849 36.6023C247.372 36.9034 247 37.3011 246.733 37.7955C246.472 38.2841 246.338 38.821 246.332 39.4062V41.2216C246.332 41.983 246.472 42.6364 246.75 43.1818C247.028 43.7216 247.418 44.1364 247.918 44.4261C248.418 44.7102 249.003 44.8523 249.673 44.8523C250.122 44.8523 250.528 44.7898 250.892 44.6648C251.256 44.5341 251.571 44.3438 251.838 44.0938C252.105 43.8438 252.307 43.5341 252.443 43.1648L255.324 43.4886C255.142 44.25 254.795 44.9148 254.284 45.483C253.778 46.0455 253.131 46.483 252.341 46.7955C251.551 47.1023 250.648 47.2557 249.631 47.2557ZM261.147 39.3295V47H258.062V33.9091H261.011V36.1335H261.164C261.465 35.4006 261.945 34.8182 262.604 34.3864C263.269 33.9545 264.09 33.7386 265.067 33.7386C265.971 33.7386 266.758 33.9318 267.428 34.3182C268.104 34.7045 268.627 35.2642 268.996 35.9972C269.371 36.7301 269.556 37.6193 269.55 38.6648V47H266.465V39.142C266.465 38.267 266.238 37.5824 265.783 37.0881C265.335 36.5937 264.712 36.3466 263.917 36.3466C263.377 36.3466 262.897 36.4659 262.477 36.7045C262.062 36.9375 261.735 37.2756 261.496 37.7188C261.263 38.1619 261.147 38.6989 261.147 39.3295ZM279.224 33.9091V36.2955H271.698V33.9091H279.224ZM273.556 30.7727H276.641V43.0625C276.641 43.4773 276.704 43.7955 276.829 44.017C276.96 44.233 277.13 44.3807 277.34 44.4602C277.55 44.5398 277.783 44.5795 278.039 44.5795C278.232 44.5795 278.408 44.5653 278.567 44.5369C278.732 44.5085 278.857 44.483 278.942 44.4602L279.462 46.8722C279.298 46.929 279.062 46.9915 278.755 47.0597C278.454 47.1278 278.085 47.1676 277.647 47.179C276.874 47.2017 276.178 47.0852 275.559 46.8295C274.94 46.5682 274.448 46.1648 274.085 45.6193C273.727 45.0739 273.55 44.392 273.556 43.5739V30.7727ZM290.135 47H286.76L292.905 29.5455H296.808L302.962 47H299.587L294.925 33.125H294.788L290.135 47ZM290.246 40.1562H299.45V42.696H290.246V40.1562ZM308.21 39.3295V47H305.124V33.9091H308.073V36.1335H308.227C308.528 35.4006 309.008 34.8182 309.667 34.3864C310.332 33.9545 311.153 33.7386 312.13 33.7386C313.033 33.7386 313.82 33.9318 314.491 34.3182C315.167 34.7045 315.69 35.2642 316.059 35.9972C316.434 36.7301 316.619 37.6193 316.613 38.6648V47H313.528V39.142C313.528 38.267 313.3 37.5824 312.846 37.0881C312.397 36.5937 311.775 36.3466 310.979 36.3466C310.44 36.3466 309.96 36.4659 309.539 36.7045C309.124 36.9375 308.798 37.2756 308.559 37.7188C308.326 38.1619 308.21 38.6989 308.21 39.3295ZM323.516 47.2642C322.687 47.2642 321.94 47.1165 321.275 46.821C320.616 46.5199 320.093 46.0767 319.707 45.4915C319.326 44.9062 319.136 44.1847 319.136 43.3267C319.136 42.5881 319.272 41.9773 319.545 41.4943C319.817 41.0114 320.19 40.625 320.661 40.3352C321.133 40.0455 321.664 39.8267 322.255 39.679C322.852 39.5256 323.468 39.4148 324.104 39.3466C324.871 39.267 325.494 39.196 325.971 39.1335C326.448 39.0653 326.795 38.9631 327.011 38.8267C327.232 38.6847 327.343 38.4659 327.343 38.1705V38.1193C327.343 37.4773 327.153 36.9801 326.772 36.6278C326.391 36.2756 325.843 36.0994 325.127 36.0994C324.371 36.0994 323.772 36.2642 323.329 36.5938C322.891 36.9233 322.596 37.3125 322.442 37.7614L319.562 37.3523C319.789 36.5568 320.164 35.892 320.687 35.358C321.21 34.8182 321.849 34.4148 322.604 34.1477C323.36 33.875 324.195 33.7386 325.11 33.7386C325.741 33.7386 326.369 33.8125 326.994 33.9602C327.619 34.108 328.19 34.3523 328.707 34.6932C329.224 35.0284 329.638 35.4858 329.951 36.0653C330.269 36.6449 330.428 37.3693 330.428 38.2386V47H327.462V45.2017H327.36C327.173 45.5653 326.908 45.9062 326.567 46.2244C326.232 46.5369 325.809 46.7898 325.298 46.983C324.792 47.1705 324.198 47.2642 323.516 47.2642ZM324.317 44.9972C324.937 44.9972 325.474 44.875 325.928 44.6307C326.383 44.3807 326.732 44.0511 326.977 43.642C327.227 43.233 327.352 42.7869 327.352 42.304V40.7614C327.255 40.8409 327.09 40.9148 326.857 40.983C326.63 41.0511 326.374 41.1108 326.09 41.1619C325.806 41.2131 325.525 41.2585 325.246 41.2983C324.968 41.3381 324.727 41.3722 324.522 41.4006C324.062 41.4631 323.65 41.5653 323.286 41.7074C322.923 41.8494 322.636 42.0483 322.425 42.304C322.215 42.554 322.11 42.8778 322.11 43.2756C322.11 43.8438 322.317 44.2727 322.732 44.5625C323.147 44.8523 323.675 44.9972 324.317 44.9972ZM336.616 29.5455V47H333.531V29.5455H336.616ZM341.706 51.9091C341.286 51.9091 340.896 51.875 340.538 51.8068C340.186 51.7443 339.905 51.6705 339.695 51.5852L340.411 49.1818C340.859 49.3125 341.26 49.375 341.612 49.3693C341.964 49.3636 342.274 49.2528 342.541 49.0369C342.814 48.8267 343.044 48.4744 343.232 47.9801L343.496 47.2727L338.749 33.9091H342.021L345.038 43.7955H345.175L348.2 33.9091H351.482L346.24 48.5852C345.996 49.2784 345.672 49.8722 345.268 50.3665C344.865 50.8665 344.371 51.2472 343.786 51.5085C343.206 51.7756 342.513 51.9091 341.706 51.9091ZM363.963 37.3693L361.151 37.6761C361.071 37.392 360.932 37.125 360.733 36.875C360.54 36.625 360.278 36.4233 359.949 36.2699C359.619 36.1165 359.216 36.0398 358.739 36.0398C358.097 36.0398 357.557 36.179 357.119 36.4574C356.688 36.7358 356.474 37.0966 356.48 37.5398C356.474 37.9205 356.614 38.2301 356.898 38.4688C357.188 38.7074 357.665 38.9034 358.33 39.0568L360.562 39.5341C361.801 39.8011 362.722 40.2244 363.324 40.804C363.932 41.3835 364.239 42.142 364.244 43.0795C364.239 43.9034 363.997 44.6307 363.52 45.2614C363.048 45.8864 362.392 46.375 361.551 46.7273C360.71 47.0795 359.744 47.2557 358.653 47.2557C357.051 47.2557 355.761 46.9205 354.784 46.25C353.807 45.5739 353.224 44.6335 353.037 43.429L356.045 43.1392C356.182 43.7301 356.472 44.1761 356.915 44.4773C357.358 44.7784 357.935 44.929 358.645 44.929C359.378 44.929 359.966 44.7784 360.409 44.4773C360.858 44.1761 361.082 43.804 361.082 43.3608C361.082 42.9858 360.938 42.6761 360.648 42.4318C360.364 42.1875 359.92 42 359.318 41.8693L357.085 41.4006C355.83 41.1392 354.901 40.6989 354.298 40.0795C353.696 39.4545 353.398 38.6648 353.403 37.7102C353.398 36.9034 353.616 36.2045 354.06 35.6136C354.509 35.017 355.131 34.5568 355.926 34.233C356.727 33.9034 357.651 33.7386 358.696 33.7386C360.23 33.7386 361.438 34.0653 362.318 34.7188C363.205 35.3722 363.753 36.2557 363.963 37.3693ZM366.788 47V33.9091H369.874V47H366.788ZM368.339 32.0511C367.851 32.0511 367.43 31.8892 367.078 31.5653C366.726 31.2358 366.55 30.8409 366.55 30.3807C366.55 29.9148 366.726 29.5199 367.078 29.196C367.43 28.8665 367.851 28.7017 368.339 28.7017C368.834 28.7017 369.254 28.8665 369.601 29.196C369.953 29.5199 370.129 29.9148 370.129 30.3807C370.129 30.8409 369.953 31.2358 369.601 31.5653C369.254 31.8892 368.834 32.0511 368.339 32.0511ZM383.393 37.3693L380.58 37.6761C380.501 37.392 380.362 37.125 380.163 36.875C379.969 36.625 379.708 36.4233 379.379 36.2699C379.049 36.1165 378.646 36.0398 378.168 36.0398C377.526 36.0398 376.987 36.179 376.549 36.4574C376.117 36.7358 375.904 37.0966 375.91 37.5398C375.904 37.9205 376.043 38.2301 376.327 38.4688C376.617 38.7074 377.094 38.9034 377.759 39.0568L379.992 39.5341C381.231 39.8011 382.151 40.2244 382.754 40.804C383.362 41.3835 383.668 42.142 383.674 43.0795C383.668 43.9034 383.427 44.6307 382.95 45.2614C382.478 45.8864 381.822 46.375 380.981 46.7273C380.14 47.0795 379.174 47.2557 378.083 47.2557C376.481 47.2557 375.191 46.9205 374.214 46.25C373.237 45.5739 372.654 44.6335 372.467 43.429L375.475 43.1392C375.612 43.7301 375.901 44.1761 376.344 44.4773C376.788 44.7784 377.364 44.929 378.075 44.929C378.808 44.929 379.396 44.7784 379.839 44.4773C380.288 44.1761 380.512 43.804 380.512 43.3608C380.512 42.9858 380.367 42.6761 380.077 42.4318C379.793 42.1875 379.35 42 378.748 41.8693L376.515 41.4006C375.259 41.1392 374.33 40.6989 373.728 40.0795C373.126 39.4545 372.827 38.6648 372.833 37.7102C372.827 36.9034 373.046 36.2045 373.489 35.6136C373.938 35.017 374.56 34.5568 375.356 34.233C376.157 33.9034 377.08 33.7386 378.126 33.7386C379.66 33.7386 380.867 34.0653 381.748 34.7188C382.634 35.3722 383.183 36.2557 383.393 37.3693Z" fill="#43A1C6"/>
<path d="M328.621 292.845C324.693 292.829 321.337 291.793 318.553 289.738C315.769 287.683 313.64 284.692 312.165 280.764C310.69 276.837 309.952 272.105 309.952 266.57C309.952 261.052 310.69 256.337 312.165 252.426C313.656 248.515 315.794 245.532 318.578 243.477C321.379 241.422 324.726 240.395 328.621 240.395C332.515 240.395 335.854 241.431 338.638 243.502C341.423 245.557 343.552 248.54 345.027 252.451C346.518 256.345 347.264 261.052 347.264 266.57C347.264 272.122 346.527 276.862 345.052 280.789C343.577 284.7 341.447 287.691 338.663 289.763C335.879 291.818 332.532 292.845 328.621 292.845ZM328.621 286.208C332.068 286.208 334.761 284.526 336.7 281.162C338.655 277.798 339.633 272.934 339.633 266.57C339.633 262.344 339.185 258.773 338.29 255.857C337.412 252.923 336.144 250.703 334.487 249.195C332.847 247.67 330.891 246.908 328.621 246.908C325.19 246.908 322.497 248.598 320.542 251.979C318.586 255.359 317.6 260.223 317.584 266.57C317.584 270.813 318.023 274.401 318.901 277.334C319.796 280.25 321.064 282.463 322.705 283.971C324.345 285.462 326.317 286.208 328.621 286.208ZM375.397 241.091V292H367.691V248.797H367.393L355.213 256.751V249.393L367.915 241.091H375.397Z" fill="#43A1C6"/>
</svg>
