<svg width="563" height="456" viewBox="0 0 563 456" fill="none" xmlns="http://www.w3.org/2000/svg">
<rect width="563" height="456" rx="31" fill="url(#paint0_linear_2836_875)"/>
<path d="M238.365 181.913L238.228 181.435C239.458 181.071 240.71 180.661 241.894 180.205L242.076 180.661C240.846 181.139 239.617 181.549 238.365 181.913ZM234.54 182.801C233.264 183.052 231.967 183.234 230.669 183.348L230.623 182.847C231.898 182.733 233.196 182.551 234.448 182.3L234.54 182.801ZM245.651 179.09L245.423 178.634C246.584 178.065 247.7 177.427 248.793 176.744L249.066 177.177C247.95 177.883 246.812 178.52 245.651 179.09ZM226.775 183.553C225.478 183.553 224.157 183.485 222.859 183.371L222.905 182.87C224.18 182.984 225.478 183.052 226.775 183.052V183.553ZM252.299 174.968L252.003 174.581C253.028 173.807 254.03 172.964 254.986 172.099L255.327 172.463C254.348 173.351 253.324 174.194 252.299 174.968ZM218.988 182.824C217.713 182.597 216.438 182.278 215.186 181.936L215.323 181.458C216.552 181.8 217.827 182.118 219.079 182.346L218.988 182.824ZM258.06 169.708L257.695 169.366C258.561 168.41 259.38 167.408 260.154 166.383L260.564 166.679C259.767 167.727 258.925 168.751 258.06 169.708ZM211.475 180.684C210.268 180.205 209.061 179.682 207.9 179.112L208.128 178.657C209.289 179.226 210.473 179.75 211.657 180.228L211.475 180.684ZM262.773 163.468L262.34 163.195C263.023 162.102 263.638 160.963 264.23 159.825L264.685 160.053C264.094 161.214 263.456 162.352 262.773 163.468ZM204.462 177.2C203.346 176.516 202.276 175.765 201.229 174.991L201.525 174.581C202.549 175.355 203.619 176.084 204.712 176.767L204.462 177.2ZM266.257 156.455L265.801 156.272C266.257 155.066 266.689 153.836 267.031 152.606L267.509 152.743C267.145 153.995 266.712 155.248 266.257 156.455ZM198.223 172.509C197.267 171.643 196.333 170.71 195.445 169.753L195.81 169.412C196.675 170.368 197.608 171.279 198.542 172.144L198.223 172.509ZM268.397 148.94L267.896 148.849C268.124 147.596 268.306 146.298 268.442 145.023L268.943 145.069C268.829 146.367 268.647 147.665 268.397 148.94ZM192.941 166.725C192.167 165.677 191.415 164.607 190.732 163.491L191.165 163.218C191.848 164.311 192.576 165.381 193.351 166.406L192.941 166.725ZM269.125 141.152H268.624C268.624 139.877 268.556 138.579 268.442 137.281L268.943 137.235C269.057 138.556 269.125 139.854 269.125 141.152ZM188.82 160.098C188.25 158.937 187.704 157.73 187.249 156.523L187.704 156.341C188.159 157.548 188.683 158.732 189.275 159.87L188.82 160.098ZM268.397 133.387L267.896 133.478C267.668 132.226 267.349 130.95 267.008 129.721L266.985 129.63L267.463 129.493L267.486 129.584C267.85 130.814 268.146 132.112 268.397 133.387ZM186.474 152.675L185.996 152.811L185.974 152.766C185.632 151.536 185.313 150.261 185.086 149.008L185.586 148.917C185.814 150.17 186.11 151.399 186.474 152.629V152.675ZM265.756 125.941C265.3 124.734 264.754 123.55 264.185 122.411L264.64 122.183C265.209 123.345 265.756 124.551 266.234 125.758L265.756 125.941ZM185.04 145.069L184.539 145.114C184.425 143.816 184.357 142.496 184.357 141.198H184.858C184.858 142.496 184.926 143.794 185.04 145.069ZM262.295 119.041C261.612 117.948 260.883 116.877 260.109 115.853L260.496 115.557C261.27 116.581 262.022 117.674 262.705 118.79L262.295 119.041ZM185.04 137.349L184.539 137.304C184.653 136.006 184.835 134.708 185.086 133.432L185.586 133.524C185.336 134.776 185.154 136.074 185.04 137.349ZM257.627 112.892C256.762 111.936 255.828 111.025 254.895 110.16L255.236 109.795C256.193 110.661 257.126 111.594 258.014 112.551L257.627 112.892ZM186.452 129.743L185.974 129.607C186.338 128.354 186.748 127.102 187.226 125.895L187.681 126.077C187.226 127.284 186.793 128.514 186.452 129.743ZM251.912 107.7C250.888 106.926 249.817 106.197 248.725 105.514L248.998 105.082C250.113 105.765 251.184 106.516 252.231 107.291L251.912 107.7ZM189.229 122.548L188.774 122.32C189.343 121.158 189.981 119.997 190.664 118.904L191.097 119.177C190.436 120.27 189.799 121.386 189.229 122.548ZM245.332 103.647C244.171 103.078 242.987 102.554 241.803 102.099L241.985 101.643C243.192 102.121 244.398 102.645 245.56 103.214L245.332 103.647ZM193.305 115.967L192.895 115.671C193.669 114.623 194.512 113.621 195.377 112.665L195.741 113.006C194.899 113.94 194.056 114.942 193.305 115.967ZM238.114 100.869C236.885 100.527 235.61 100.231 234.357 99.9808L234.448 99.4798C235.723 99.7076 236.999 100.026 238.251 100.368L238.114 100.869ZM198.496 110.251L198.155 109.887C199.111 108.998 200.136 108.156 201.16 107.382L201.456 107.769C200.432 108.543 199.43 109.386 198.496 110.251ZM230.532 99.4571C229.257 99.3432 227.959 99.2749 226.661 99.2749V98.7739C227.959 98.7739 229.28 98.8195 230.578 98.9561L230.532 99.4571ZM204.644 105.583L204.371 105.15C205.464 104.467 206.625 103.829 207.786 103.237L208.014 103.693C206.875 104.285 205.737 104.9 204.644 105.583ZM222.814 99.4571C221.538 99.5709 220.241 99.7531 218.988 100.004L218.897 99.5026C220.172 99.2521 221.47 99.07 222.768 98.9561L222.814 99.4571ZM211.543 102.144L211.361 101.689C212.568 101.21 213.82 100.801 215.072 100.436L215.209 100.914C213.979 101.256 212.75 101.666 211.543 102.144Z" fill="#A8A8A8"/>
<path d="M335.793 203.729V203.045C337.523 203.045 339.276 202.954 340.984 202.795L341.052 203.455C339.322 203.66 337.546 203.729 335.793 203.729ZM330.533 203.501C328.78 203.341 327.027 203.091 325.319 202.772L325.433 202.112C327.118 202.431 328.871 202.658 330.579 202.818L330.533 203.501ZM346.267 202.772L346.153 202.112C347.86 201.793 349.545 201.406 351.207 200.928L351.39 201.565C349.727 202.043 347.997 202.453 346.267 202.772ZM320.196 201.588C318.511 201.11 316.826 200.541 315.21 199.926L315.46 199.288C317.077 199.903 318.739 200.472 320.401 200.928L320.196 201.588ZM356.399 199.903L356.148 199.265C357.765 198.65 359.359 197.922 360.907 197.17L361.203 197.762C359.632 198.537 358.015 199.265 356.399 199.903ZM310.383 197.785C308.812 197.011 307.263 196.146 305.783 195.212L306.148 194.643C307.628 195.554 309.153 196.396 310.702 197.17L310.383 197.785ZM365.802 195.189L365.438 194.62C366.895 193.709 368.352 192.707 369.718 191.682L370.128 192.229C368.739 193.276 367.282 194.278 365.802 195.189ZM301.457 192.252C300.069 191.204 298.702 190.066 297.405 188.881L297.86 188.38C299.135 189.542 300.478 190.658 301.867 191.705L301.457 192.252ZM374.181 188.859L373.726 188.358C375.001 187.196 376.23 185.944 377.414 184.669L377.915 185.124C376.731 186.422 375.479 187.675 374.181 188.859ZM293.67 185.17C292.486 183.872 291.348 182.505 290.301 181.116L290.847 180.706C291.894 182.073 293.01 183.439 294.171 184.714L293.67 185.17ZM287.318 176.79C286.384 175.309 285.519 173.761 284.745 172.19L285.337 171.894C286.111 173.442 286.954 174.968 287.887 176.425L287.318 176.79ZM386.818 172.121L386.226 171.825C387 170.277 387.706 168.683 388.321 167.066L388.958 167.317C388.321 168.956 387.592 170.573 386.818 172.121ZM282.605 167.385C281.967 165.745 281.398 164.083 280.92 162.398L281.557 162.216C282.036 163.878 282.582 165.54 283.22 167.157L282.605 167.385ZM390.62 162.33L389.983 162.147C390.461 160.485 390.848 158.777 391.167 157.092L391.827 157.206C391.508 158.914 391.098 160.645 390.62 162.33ZM279.736 157.252C279.417 155.544 279.167 153.79 279.007 152.037L279.668 151.968C279.827 153.699 280.077 155.43 280.396 157.115L279.736 157.252ZM392.533 151.991L391.873 151.923C392.032 150.215 392.1 148.462 392.1 146.731V146.594H392.783V146.731C392.783 148.484 392.692 150.238 392.533 151.991ZM279.44 146.799H278.757V146.731C278.757 145 278.825 143.247 278.985 141.539L279.645 141.607C279.485 143.292 279.417 145.023 279.417 146.731V146.799H279.44ZM391.85 141.402C391.69 139.672 391.44 137.941 391.121 136.256L391.781 136.142C392.1 137.85 392.351 139.603 392.51 141.357L391.85 141.402ZM280.373 136.438L279.713 136.324C280.032 134.594 280.442 132.886 280.897 131.201L281.535 131.383C281.079 133.022 280.669 134.73 280.373 136.438ZM389.937 131.178C389.459 129.516 388.913 127.853 388.275 126.259L388.913 126.009C389.55 127.648 390.119 129.311 390.597 130.996L389.937 131.178ZM283.197 126.441L282.559 126.191C283.197 124.551 283.903 122.935 284.677 121.363L285.269 121.659C284.517 123.208 283.812 124.825 283.197 126.441ZM287.819 117.128L287.25 116.763C288.16 115.283 289.162 113.826 290.232 112.414L290.779 112.824C289.709 114.213 288.73 115.648 287.819 117.128ZM380.67 112.665C379.623 111.298 378.507 109.955 377.346 108.68L377.847 108.224C379.031 109.522 380.169 110.866 381.217 112.277L380.67 112.665ZM294.08 108.816L293.579 108.361C294.763 107.063 296.016 105.81 297.291 104.626L297.746 105.127C296.471 106.311 295.242 107.541 294.08 108.816ZM373.635 105.013C372.36 103.852 371.016 102.736 369.627 101.689L370.037 101.142C371.426 102.19 372.792 103.328 374.09 104.49L373.635 105.013ZM301.753 101.802L301.344 101.256C302.732 100.208 304.19 99.1837 305.67 98.2728L306.034 98.8421C304.577 99.7758 303.12 100.755 301.753 101.802ZM365.347 98.7511C363.867 97.8402 362.341 96.9976 360.793 96.2234L361.089 95.6313C362.66 96.4056 364.208 97.2709 365.688 98.1818L365.347 98.7511ZM310.565 96.3145L310.269 95.7224C311.84 94.9482 313.457 94.2195 315.073 93.5819L315.324 94.2195C313.73 94.8343 312.113 95.5402 310.565 96.3145ZM356.034 94.1284C354.418 93.5136 352.756 92.9443 351.094 92.4888L351.276 91.8512C352.961 92.3294 354.645 92.876 356.262 93.5136L356.034 94.1284ZM320.264 92.5344L320.082 91.8968C321.767 91.4186 323.498 91.0087 325.205 90.6899L325.319 91.3503C323.634 91.6691 321.927 92.0562 320.264 92.5344ZM346.016 91.3047C344.331 90.9859 342.578 90.7582 340.87 90.5988L340.939 89.9384C342.692 90.0978 344.445 90.3255 346.153 90.6443L346.016 91.3047ZM330.465 90.6216L330.397 89.9612C332.127 89.8018 333.903 89.7107 335.656 89.7107V90.3938C333.949 90.3711 332.195 90.4622 330.465 90.6216Z" fill="#A8A8A8"/>
<path d="M365.666 375.404V374.266C368.604 374.266 371.564 374.129 374.455 373.856L374.569 374.994C371.632 375.268 368.626 375.404 365.666 375.404ZM356.764 374.994C353.804 374.721 350.844 374.311 347.929 373.787L348.134 372.672C351.003 373.195 353.94 373.605 356.855 373.878L356.764 374.994ZM383.381 373.765L383.176 372.649C386.045 372.102 388.936 371.442 391.737 370.645L392.056 371.738C389.209 372.535 386.295 373.218 383.381 373.765ZM339.255 371.761C336.408 370.964 333.562 370.007 330.807 368.937L331.217 367.867C333.949 368.914 336.75 369.871 339.573 370.668L339.255 371.761ZM400.503 368.891L400.093 367.821C402.825 366.774 405.535 365.567 408.153 364.269L408.654 365.294C405.99 366.614 403.258 367.821 400.503 368.891ZM322.656 365.339C320.015 364.018 317.396 362.561 314.869 361.012L315.461 360.056C317.943 361.604 320.539 363.039 323.157 364.337L322.656 365.339ZM416.418 360.944L415.826 359.988C418.308 358.439 420.744 356.777 423.09 355.001L423.773 355.912C421.405 357.688 418.946 359.396 416.418 360.944ZM307.515 355.957C305.147 354.181 302.847 352.268 300.661 350.264L301.435 349.422C303.598 351.403 305.875 353.293 308.221 355.046L307.515 355.957ZM430.626 350.196L429.852 349.353C432.015 347.372 434.11 345.277 436.068 343.114L436.91 343.888C434.929 346.097 432.812 348.215 430.626 350.196ZM294.354 343.979C292.351 341.793 290.438 339.493 288.662 337.125L289.573 336.442C291.349 338.764 293.239 341.042 295.197 343.205L294.354 343.979ZM442.602 337.057L441.692 336.373C443.468 334.028 445.13 331.591 446.678 329.109L447.634 329.701C446.086 332.206 444.401 334.688 442.602 337.057ZM283.607 329.792C282.036 327.288 280.579 324.669 279.259 322.005L280.283 321.504C281.581 324.122 283.038 326.695 284.587 329.178L283.607 329.792ZM452.006 321.913L450.981 321.412C452.279 318.794 453.486 316.084 454.533 313.351L455.603 313.761C454.533 316.517 453.327 319.272 452.006 321.913ZM275.638 313.875C274.568 311.12 273.612 308.273 272.792 305.427L273.885 305.108C274.682 307.909 275.638 310.733 276.686 313.465L275.638 313.875ZM458.427 305.313L457.334 304.994C458.131 302.193 458.814 299.301 459.338 296.432L460.453 296.637C459.907 299.552 459.224 302.466 458.427 305.313ZM270.766 296.751C270.219 293.836 269.81 290.876 269.536 287.915L270.675 287.801C270.948 290.716 271.358 293.654 271.881 296.523L270.766 296.751ZM270.265 279.034H269.126V278.92C269.126 275.983 269.263 273.045 269.514 270.131L270.652 270.222C270.402 273.091 270.265 276.006 270.265 278.898V279.034ZM460.522 269.903C460.248 266.988 459.838 264.051 459.292 261.181L460.408 260.976C460.954 263.891 461.364 266.851 461.637 269.789L460.522 269.903ZM271.836 261.5L270.72 261.295C271.267 258.38 271.927 255.466 272.747 252.619L273.84 252.938C273.043 255.739 272.382 258.631 271.836 261.5ZM457.266 252.619C456.469 249.818 455.512 246.995 454.442 244.285L455.512 243.875C456.583 246.63 457.539 249.477 458.358 252.323L457.266 252.619ZM276.617 244.581L275.547 244.171C276.617 241.416 277.824 238.66 279.145 236.019L280.169 236.52C278.872 239.138 277.688 241.848 276.617 244.581ZM450.89 236.224C449.57 233.605 448.135 231.032 446.587 228.55L447.543 227.957C449.114 230.462 450.572 233.081 451.892 235.723L450.89 236.224ZM284.45 228.823L283.494 228.231C285.042 225.726 286.75 223.244 288.526 220.875L289.436 221.559C287.66 223.881 285.998 226.341 284.45 228.823ZM441.578 221.285C439.802 218.963 437.912 216.685 435.931 214.522L436.774 213.748C438.777 215.934 440.69 218.234 442.489 220.579L441.578 221.285ZM295.06 214.773L294.218 213.998C296.199 211.812 298.316 209.695 300.502 207.691L301.276 208.533C299.113 210.514 297.018 212.609 295.06 214.773ZM308.038 202.886L307.355 201.975C309.723 200.176 312.182 198.491 314.687 196.92L315.279 197.876C312.797 199.447 310.361 201.132 308.038 202.886ZM415.644 197.739C413.162 196.191 410.567 194.756 407.948 193.458L408.449 192.434C411.09 193.754 413.709 195.212 416.236 196.76L415.644 197.739ZM322.975 193.595L322.474 192.57C325.115 191.249 327.87 190.02 330.625 188.95L331.035 190.02C328.28 191.09 325.593 192.297 322.975 193.595ZM399.888 189.906C397.156 188.858 394.355 187.925 391.532 187.128L391.851 186.035C394.697 186.832 397.543 187.788 400.298 188.858L399.888 189.906ZM339.346 187.219L339.027 186.126C341.873 185.306 344.787 184.623 347.702 184.076L347.907 185.192C345.038 185.739 342.169 186.422 339.346 187.219ZM382.948 185.124C380.079 184.6 377.142 184.19 374.228 183.94L374.319 182.801C377.279 183.074 380.238 183.462 383.153 184.008L382.948 185.124ZM356.65 183.963L356.536 182.824C359.473 182.551 362.456 182.414 365.439 182.414V183.553C362.502 183.553 359.542 183.712 356.65 183.963Z" fill="#A8A8A8"/>
<path d="M183.333 180L183.128 179.249C185.086 178.702 187.021 178.042 188.888 177.313L189.162 178.042C187.272 178.771 185.314 179.431 183.333 180ZM177.345 181.412C175.341 181.799 173.269 182.073 171.243 182.278L171.174 181.503C173.178 181.321 175.204 181.025 177.208 180.661L177.345 181.412ZM194.808 175.56L194.467 174.854C196.288 173.943 198.064 172.964 199.795 171.894L200.204 172.554C198.451 173.647 196.653 174.649 194.808 175.56ZM165.095 182.574C163.046 182.574 160.974 182.483 158.947 182.3L159.016 181.526C161.019 181.708 163.068 181.799 165.095 181.799V182.574ZM205.259 169.093L204.781 168.455C206.398 167.226 207.969 165.928 209.449 164.561L209.972 165.131C208.492 166.52 206.899 167.863 205.259 169.093ZM152.845 181.435C150.842 181.048 148.815 180.592 146.857 180.023L147.062 179.272C148.997 179.818 151.001 180.296 152.982 180.661L152.845 181.435ZM214.344 160.781L213.752 160.257C215.118 158.754 216.416 157.183 217.645 155.566L218.283 156.045C217.053 157.684 215.733 159.278 214.344 160.781ZM141.005 178.065C139.093 177.336 137.203 176.494 135.382 175.583L135.723 174.877C137.545 175.788 139.412 176.607 141.301 177.336L141.005 178.065ZM221.767 150.967L221.106 150.557C222.176 148.826 223.156 147.05 224.066 145.228L224.772 145.57C223.839 147.414 222.837 149.213 221.767 150.967ZM130.008 172.6C128.278 171.529 126.547 170.345 124.931 169.116L125.409 168.478C127.025 169.685 128.71 170.846 130.441 171.916L130.008 172.6ZM227.254 139.945L226.525 139.672C227.254 137.782 227.914 135.846 228.461 133.911L229.212 134.115C228.643 136.074 227.982 138.032 227.254 139.945ZM120.172 165.199C118.646 163.833 117.189 162.352 115.8 160.849L116.37 160.326C117.736 161.806 119.193 163.263 120.673 164.63L120.172 165.199ZM230.624 128.127L229.85 127.99C230.214 126.009 230.51 123.982 230.692 121.955L231.466 122.024C231.284 124.05 230.988 126.1 230.624 128.127ZM111.861 156.113C110.632 154.473 109.448 152.765 108.378 151.035L109.038 150.625C110.108 152.333 111.269 154.041 112.476 155.635L111.861 156.113ZM231.762 115.853H230.965C230.965 113.826 230.874 111.799 230.669 109.773L231.443 109.704C231.648 111.754 231.762 113.826 231.762 115.853ZM105.395 145.661C104.484 143.839 103.642 141.926 102.913 140.036L103.642 139.763C104.37 141.653 105.19 143.52 106.101 145.319L105.395 145.661ZM230.601 103.624L229.827 103.761C229.462 101.78 228.984 99.7985 228.438 97.8402L228.392 97.7035L229.144 97.4758L229.189 97.6125C229.758 99.5936 230.237 101.62 230.601 103.624ZM101.706 133.979L100.955 134.184L100.932 134.115C100.386 132.157 99.9077 130.176 99.5434 128.195L100.317 128.058C100.682 130.017 101.16 131.975 101.706 133.911V133.979ZM226.457 91.9195C225.728 90.0295 224.886 88.1622 223.998 86.3632L224.704 86.0217C225.615 87.8434 226.457 89.7335 227.186 91.6463L226.457 91.9195ZM99.4295 122.024L98.6554 122.092C98.4732 120.065 98.3594 117.993 98.3594 115.944H99.1563C99.1563 117.97 99.2474 120.02 99.4295 122.024ZM221.015 81.0347C219.945 79.3268 218.784 77.6417 217.577 76.0249L218.215 75.5467C219.444 77.1863 220.628 78.8941 221.698 80.6248L221.015 81.0347ZM99.4295 109.864L98.6554 109.795C98.8375 107.769 99.1335 105.696 99.4978 103.693L100.272 103.829C99.8849 105.833 99.6117 107.86 99.4295 109.864ZM213.684 71.3567C212.318 69.8765 210.86 68.4191 209.358 67.0756L209.881 66.4836C211.407 67.8499 212.864 69.33 214.253 70.8329L213.684 71.3567ZM101.638 97.9085L100.887 97.7035C101.456 95.7452 102.093 93.764 102.845 91.874L103.573 92.1473C102.845 94.0145 102.207 95.9729 101.638 97.9085ZM204.667 63.2044C203.051 61.9975 201.366 60.8362 199.635 59.7659L200.045 59.1055C201.776 60.1758 203.506 61.3372 205.145 62.5668L204.667 63.2044ZM106.032 86.5682L105.327 86.2266C106.237 84.4049 107.239 82.5831 108.309 80.8525L108.97 81.2624C107.922 82.9703 106.943 84.7464 106.032 86.5682ZM194.307 56.8056C192.486 55.9175 190.619 55.0749 188.729 54.3462L189.002 53.6175C190.915 54.3462 192.805 55.1888 194.649 56.0997L194.307 56.8056ZM112.408 76.2071L111.77 75.7289C113 74.0893 114.32 72.4953 115.686 70.9923L116.278 71.5161C114.935 73.019 113.637 74.613 112.408 76.2071ZM182.968 52.4334C181.033 51.8869 179.029 51.4087 177.049 51.0443L177.185 50.2701C179.189 50.6345 181.215 51.1127 183.173 51.682L182.968 52.4334ZM120.582 67.2122L120.058 66.643C121.561 65.2539 123.155 63.9331 124.794 62.7035L125.272 63.3411C123.656 64.548 122.085 65.8459 120.582 67.2122ZM171.015 50.2246C169.011 50.0424 166.962 49.9513 164.936 49.9513V49.1543C166.985 49.1543 169.057 49.2454 171.083 49.4276L171.015 50.2246ZM130.281 59.8798L129.871 59.2194C131.602 58.1491 133.423 57.1244 135.245 56.2135L135.586 56.9194C133.788 57.8075 131.989 58.8095 130.281 59.8798ZM158.856 50.2473C156.853 50.4295 154.826 50.7255 152.822 51.1127L152.686 50.3384C154.69 49.9513 156.739 49.6553 158.788 49.4731L158.856 50.2473ZM141.142 54.4373L140.869 53.7086C142.759 52.9799 144.74 52.3196 146.698 51.7503L146.925 52.5017C144.967 53.071 143.032 53.7086 141.142 54.4373Z" fill="#A8A8A8"/>
<path d="M428.849 104.535C392.988 103.784 363.184 132.339 362.432 168.205C361.681 204.07 390.233 233.878 426.094 234.63C461.955 235.381 491.76 206.825 492.511 170.96C493.285 135.117 464.71 105.309 428.849 104.535ZM428.553 218.667C401.458 219.259 379.008 197.785 378.416 170.687C377.824 143.588 399.295 121.136 426.39 120.544C453.485 119.951 475.935 141.425 476.527 168.523C477.142 195.599 455.648 218.052 428.553 218.667Z" fill="#141F39"/>
<path d="M535.272 152.788C534.224 150.875 532.426 150.716 527.576 150.352C521.565 149.873 515.554 149.623 509.566 149.031C508.473 148.917 506.993 147.915 506.537 146.913C503.669 140.56 501.187 134.024 498.272 127.694C497.43 125.849 497.293 124.711 498.614 123.094C503.236 117.401 507.721 111.594 512.23 105.81C512.958 104.877 513.664 103.92 514.916 102.258C506.97 94.7887 499.115 87.4335 491.055 79.8505C484.315 85.6573 478.099 90.8492 472.111 96.2689C469.993 98.1817 468.513 98.6599 465.69 97.2936C459.907 94.5155 453.736 92.5344 447.817 90.0522C446.906 89.6651 445.904 88.4354 445.767 87.4563C444.674 80.101 443.582 72.723 442.944 65.3222C442.648 61.7698 441.123 60.6084 437.867 60.7451C436.614 60.7906 435.339 60.3807 434.064 60.1758C428.372 60.3124 422.68 60.4263 416.987 60.5629C416.373 60.7678 415.781 61.0639 415.143 61.155C408.586 61.9975 409.633 61.451 409.132 67.6221C408.517 75.1368 408.017 82.6514 407.561 89.1641C398.977 93.0353 390.94 96.6333 382.652 100.368C375.571 94.8115 368.171 89.0275 360.726 83.198C351.846 89.9384 344.742 97.9768 338.389 106.994C344.127 113.621 349.683 120.088 355.307 126.51C356.309 127.671 356.673 128.491 355.944 130.176C353.053 136.757 350.343 143.429 347.907 150.192C347.201 152.151 346.336 152.652 344.514 152.857C337.023 153.745 329.532 154.792 322.041 155.726C320.174 155.954 319.218 156.546 318.945 158.663C317.693 168.114 318.467 177.45 320.038 186.786C320.356 188.631 321.472 188.881 323.043 188.972C330.375 189.428 337.684 190.043 345.015 190.43C347.133 190.544 348.089 191.136 348.909 193.299C351.755 200.814 355.056 208.169 358.426 216.185C353.394 222.629 347.656 229.916 341.941 237.226C348.772 246.289 356.536 253.872 365.758 260.043C372.953 253.758 379.943 247.632 386.295 242.099C393.695 244.718 400.503 247.336 407.447 249.5C410.066 250.319 411.113 251.458 411.386 254.168C412.092 261.364 413.071 268.514 414.005 275.687C414.187 277.099 414.028 278.966 416.373 278.898C425.867 278.625 435.385 278.351 444.879 278.055C446.906 277.987 447.589 276.917 447.703 274.913C448.113 267.489 448.864 260.066 449.137 252.619C449.251 249.75 450.617 248.862 452.985 247.906C458.837 245.56 464.688 243.078 470.244 240.095C472.635 238.82 473.841 238.934 475.845 240.573C482.243 245.879 488.823 250.911 495.221 255.967C501.073 252.642 514.188 238.615 517.922 231.783C512.343 225.453 506.765 218.986 501.027 212.678C499.593 211.107 499.684 210.014 500.458 208.146C502.94 202.089 504.989 195.872 507.403 189.792C507.812 188.768 509.133 187.583 510.18 187.424C516.783 186.468 523.432 185.762 530.08 185.033C533.792 184.623 535.294 184.486 536 183.075L535.272 152.788ZM474.092 218.234C461.091 230.69 444.037 237.34 426.05 236.952C408.062 236.565 391.304 229.21 378.85 216.207C366.395 203.205 359.747 186.149 360.134 168.159C360.521 150.169 367.875 133.41 380.876 120.953C393.877 108.497 410.931 101.848 428.918 102.235C446.906 102.622 463.664 109.977 476.118 122.98C488.573 135.983 495.221 153.039 494.834 171.028C494.447 189.018 487.07 205.778 474.092 218.234Z" fill="#141F39"/>
<path d="M318.787 59.4812L310.19 53.4894L310.183 53.4849L310.176 53.4814L283.867 40.7953L303.857 42.171L303.857 42.1711L303.88 42.176L303.968 42.1954L304.302 42.2692C304.59 42.333 305.002 42.4248 305.498 42.5365C306.491 42.7599 307.82 43.063 309.168 43.3817C310.515 43.7004 311.879 44.0346 312.942 44.3203C313.473 44.4631 313.928 44.5936 314.267 44.7036C314.437 44.7587 314.576 44.8082 314.681 44.8512C314.79 44.896 314.849 44.929 314.871 44.9477L314.871 44.9478L314.873 44.9492C315.007 45.0619 315.203 45.2827 315.427 45.5574C315.648 45.83 315.891 46.1496 316.117 46.455C316.343 46.7603 316.551 47.0507 316.703 47.2649C316.779 47.372 316.84 47.46 316.883 47.5211L316.932 47.5918L316.936 47.5978L318.787 59.4812Z" fill="#E8E8E8" stroke="#141F39" stroke-width="0.2"/>
<path d="M317.004 47.4525L284.273 40.7462L325.657 40.1043L317.004 47.4525Z" fill="white" stroke="#141F39" stroke-width="0.2"/>
<path d="M283.742 40.8918L314.371 50.9462L303.625 59.9953L283.742 40.8918Z" fill="white" stroke="#141F39" stroke-width="0.2"/>
<path d="M377.483 90.8488L376.481 90.9626C376.458 90.6894 376.413 90.4161 376.367 90.1429C376.231 89.2092 376.026 88.2756 375.775 87.3419C375.548 86.4994 375.274 85.6341 374.956 84.8143L375.889 84.4499C376.208 85.3153 376.504 86.2034 376.754 87.0915C377.005 88.0479 377.21 89.0271 377.369 89.9835C377.392 90.2795 377.437 90.5528 377.483 90.8488ZM372.064 79.1669C370.948 77.4363 369.628 75.7512 368.148 74.1344L368.876 73.4512C370.402 75.1135 371.745 76.8442 372.906 78.6204L372.064 79.1669ZM340.688 77.4818C340.005 77.664 338.275 77.7323 337.137 77.0947C336.294 76.6165 335.588 75.8422 335.087 74.8858L335.975 74.4304C336.385 75.2274 336.954 75.8422 337.637 76.2294C338.457 76.6848 339.892 76.662 340.438 76.5026C340.506 76.4799 340.529 76.4799 340.529 76.4799C340.575 76.4571 340.62 76.4115 340.666 76.3888L341.235 77.2085C341.189 77.2541 341.121 77.2769 341.053 77.3224C340.962 77.3907 340.848 77.4363 340.688 77.4818ZM363.48 69.7394C361.863 68.4187 360.088 67.1662 358.266 66.0276L358.79 65.1851C360.657 66.3464 362.455 67.6217 364.118 68.9652L363.48 69.7394ZM344.719 71.4929L343.739 71.3107C343.853 70.6958 343.899 70.0582 343.899 69.4434C343.876 68.5553 343.739 67.6672 343.512 66.7563C343.375 66.2554 343.216 65.7544 343.011 65.2762L343.944 64.9118C344.149 65.4356 344.331 65.9821 344.491 66.5059C344.764 67.485 344.901 68.487 344.923 69.4434C344.901 70.1038 344.855 70.8097 344.719 71.4929ZM335.839 68.6008L334.928 68.191C335.793 66.2781 337.455 64.5703 339.504 63.5228L339.641 63.4544L340.096 64.3425L339.96 64.4109C338.116 65.3673 336.613 66.893 335.839 68.6008ZM352.369 63.7277C350.547 63.204 349.09 62.9079 348.384 62.8852C347.587 62.8624 346.859 62.8624 346.153 62.9079L346.107 61.906C346.836 61.8604 347.587 61.8604 348.43 61.8832C349.5 61.906 351.526 62.4525 352.665 62.7485L352.369 63.7277ZM339.618 59.9704C338.207 58.3991 336.59 57.0328 334.769 55.9398L335.292 55.0745C337.182 56.2358 338.89 57.6477 340.37 59.2872L339.618 59.9704Z" fill="#A8A8A8"/>
<path d="M328.963 53.5037C327.892 53.2305 326.822 53.0711 325.775 52.98L325.843 51.978C326.936 52.0691 328.075 52.2513 329.19 52.5245L328.963 53.5037Z" fill="#A8A8A8"/>
<path d="M354.933 324.298C352.297 323.347 349.617 322.51 346.981 321.491C346.508 321.31 345.968 320.677 345.878 320.156C345.36 316.942 345.044 313.683 344.504 310.469C344.346 309.541 344.436 308.998 345.224 308.432C347.995 306.417 350.721 304.335 353.446 302.275C353.897 301.936 354.325 301.596 355.091 301.008C352.433 296.662 349.775 292.362 347.072 287.971C343.332 289.782 339.908 291.366 336.552 293.086C335.358 293.697 334.638 293.72 333.534 292.769C331.281 290.8 328.736 289.148 326.371 287.314C326.01 287.02 325.717 286.341 325.763 285.889C326.168 282.426 326.573 278.963 327.182 275.522C327.474 273.87 326.934 273.168 325.447 272.829C324.884 272.693 324.343 272.354 323.803 272.105C321.235 271.471 318.645 270.837 316.077 270.181C315.784 270.203 315.468 270.271 315.176 270.226C312.112 269.796 312.653 269.683 311.684 272.422C310.49 275.749 309.364 279.076 308.35 281.973C304.026 282.675 299.971 283.308 295.781 283.987C293.281 280.615 290.646 277.084 288.01 273.553C283.19 275.522 279.022 278.284 275.08 281.566C276.86 285.255 278.572 288.854 280.306 292.452C280.622 293.086 280.689 293.516 280.149 294.195C278.054 296.821 276.004 299.491 274.089 302.253C273.526 303.045 273.076 303.181 272.242 303.045C268.751 302.524 265.259 302.094 261.791 301.596C260.935 301.461 260.416 301.619 260.034 302.547C258.322 306.666 257.533 310.989 257.105 315.38C257.015 316.263 257.488 316.489 258.186 316.738C261.43 317.825 264.651 319.002 267.895 320.088C268.841 320.405 269.179 320.79 269.291 321.853C269.652 325.611 270.238 329.323 270.778 333.374C267.737 335.66 264.268 338.263 260.799 340.866C262.759 345.8 265.327 350.168 268.728 354.106C272.738 352.137 276.612 350.236 280.149 348.516C283.167 350.598 285.915 352.613 288.776 354.446C289.857 355.148 290.195 355.781 289.97 357.026C289.407 360.353 288.979 363.726 288.528 367.076C288.438 367.732 288.145 368.569 289.204 368.818C293.506 369.859 297.831 370.901 302.133 371.919C303.057 372.146 303.485 371.738 303.778 370.855C304.859 367.551 306.098 364.292 307.134 360.964C307.54 359.674 308.26 359.448 309.432 359.312C312.36 358.973 315.288 358.565 318.149 357.886C319.388 357.592 319.906 357.796 320.604 358.792C322.834 361.96 325.177 365.061 327.452 368.117C330.493 367.325 338.106 362.594 340.607 359.946C338.872 356.392 337.138 352.794 335.336 349.24C334.885 348.358 335.066 347.882 335.629 347.113C337.476 344.691 339.165 342.111 340.99 339.666C341.305 339.259 342.048 338.874 342.521 338.942C345.607 339.327 348.693 339.802 351.757 340.3C353.469 340.572 354.167 340.685 354.663 340.141L358.041 326.358C357.861 325.362 357.073 325.067 354.933 324.298ZM329.772 326.267C326.754 338.58 314.342 346.117 302.088 343.084C289.835 340.051 282.334 327.58 285.352 315.267C288.37 302.954 300.782 295.417 313.036 298.45C325.312 301.506 332.79 313.954 329.772 326.267Z" fill="#141F39"/>
<path d="M521.552 313.182L521.55 313.182C520.91 312.885 520.261 312.596 519.609 312.306C518.574 311.846 517.533 311.382 516.506 310.879C516.303 310.784 516.118 310.599 515.984 310.405C515.849 310.21 515.738 309.967 515.723 309.735L515.723 309.735C515.66 308.768 515.621 307.796 515.582 306.827C515.578 306.731 515.574 306.635 515.57 306.538C515.527 305.473 515.482 304.411 515.402 303.357L515.402 303.356C515.378 303.039 515.385 302.75 515.496 302.491C515.61 302.223 515.818 302.022 516.121 301.846C517.418 301.087 518.692 300.31 519.969 299.531C520.608 299.14 521.249 298.75 521.893 298.361L521.898 298.357L521.898 298.357C522.128 298.227 522.343 298.086 522.653 297.883C522.713 297.844 522.777 297.802 522.844 297.758C522.38 296.826 521.917 295.899 521.454 294.971C520.5 293.06 519.547 291.148 518.575 289.201C518.126 289.364 517.684 289.524 517.248 289.681C515.269 290.397 513.415 291.067 511.574 291.81L511.573 291.811C511.16 291.975 510.786 292.07 510.413 292.007C510.036 291.944 509.704 291.726 509.354 291.366C508.512 290.501 507.613 289.715 506.704 288.921C506.131 288.42 505.555 287.916 504.987 287.388C504.829 287.245 504.719 287.036 504.655 286.836C504.589 286.634 504.557 286.405 504.588 286.208L504.589 286.2L504.591 286.193C504.658 285.883 504.725 285.573 504.792 285.262C505.203 283.358 505.619 281.435 506.153 279.546L506.153 279.546C506.295 279.047 506.271 278.738 506.157 278.529C506.042 278.32 505.802 278.148 505.356 278.007L505.431 277.768M521.552 313.182L498.854 275.467M521.552 313.182C522.238 313.495 522.672 313.699 522.94 313.901C523.069 313.998 523.146 314.085 523.192 314.17C523.232 314.244 523.256 314.33 523.261 314.442L520.25 323.087L521.552 313.182ZM505.431 277.768L505.357 278.007C505.145 277.941 504.953 277.838 504.777 277.731C504.695 277.682 504.614 277.63 504.536 277.579L504.519 277.568C504.442 277.519 504.368 277.471 504.293 277.426L499.409 275.74C499.374 275.74 499.339 275.741 499.302 275.742L499.3 275.742C499.25 275.744 499.197 275.745 499.143 275.745C499.036 275.745 498.916 275.739 498.796 275.71M505.431 277.768C505.162 277.685 504.917 277.528 504.671 277.369C504.581 277.311 504.491 277.253 504.4 277.199L511.481 291.579C510.679 291.898 510.197 291.875 509.533 291.191C508.687 290.322 507.771 289.521 506.856 288.721C506.283 288.22 505.711 287.72 505.156 287.203C504.927 286.998 504.789 286.542 504.835 286.246C504.903 285.935 504.97 285.624 505.037 285.313C505.448 283.409 505.862 281.495 506.393 279.614C506.691 278.566 506.37 278.065 505.431 277.768ZM498.796 275.71C498.795 275.71 498.794 275.71 498.794 275.709L498.854 275.467M498.796 275.71C498.797 275.71 498.797 275.71 498.798 275.71L498.854 275.467M498.796 275.71C498.668 275.68 498.552 275.653 498.445 275.628C498.131 275.554 497.9 275.499 497.716 275.47C497.466 275.429 497.374 275.449 497.323 275.477C497.267 275.508 497.202 275.581 497.091 275.81C497.039 275.916 496.983 276.043 496.914 276.199L496.908 276.214C496.836 276.376 496.753 276.564 496.651 276.781L496.651 276.782C496.034 278.079 495.437 279.382 494.868 280.624C494.528 281.367 494.197 282.089 493.879 282.773L493.816 282.908L493.668 282.918C491.569 283.05 489.567 283.183 487.565 283.315C486.813 283.365 486.061 283.415 485.304 283.464L485.154 283.474L485.075 283.346C484.398 282.246 483.705 281.124 483.004 279.988C482.245 278.758 481.476 277.513 480.707 276.263M498.854 275.467C497.872 275.24 497.465 275.114 497.204 275.257C496.941 275.401 496.828 275.817 496.425 276.675C495.808 277.973 495.209 279.28 494.64 280.523C494.299 281.266 493.969 281.986 493.652 282.668C491.553 282.801 489.55 282.933 487.548 283.066C486.796 283.115 486.045 283.165 485.288 283.215C484.61 282.113 483.917 280.991 483.216 279.856C482.424 278.573 481.622 277.274 480.819 275.968M480.707 276.263C480.768 276.244 480.83 276.226 480.891 276.208L480.819 275.968M480.707 276.263C477.599 277.217 474.818 278.69 472.14 280.486M480.707 276.263C480.674 276.208 480.64 276.154 480.606 276.099L480.819 275.968M480.819 275.968C477.542 276.948 474.632 278.498 471.836 280.389M471.836 280.389C472.769 282.878 473.679 285.299 474.589 287.72L474.609 287.773C474.77 288.206 474.793 288.479 474.403 288.889L461.891 292.604C461.341 292.467 460.997 292.536 460.676 293.105M471.836 280.389L471.976 280.596C472.031 280.559 472.085 280.523 472.14 280.486M471.836 280.389L472.07 280.301C472.094 280.363 472.117 280.425 472.14 280.486M472.14 280.486C473.049 282.911 473.936 285.273 474.824 287.634L474.843 287.685L474.844 287.686C474.926 287.908 474.992 288.134 474.96 288.372C474.928 288.618 474.799 288.836 474.584 289.062L474.582 289.064C473.05 290.633 471.564 292.247 470.124 293.929L470.124 293.93C469.902 294.187 469.686 294.357 469.426 294.434C469.17 294.508 468.908 294.48 468.623 294.421L468.615 294.42L468.615 294.419C467.066 294.042 465.508 293.687 463.944 293.331C463.242 293.171 462.539 293.01 461.835 292.848L461.831 292.847L461.831 292.847C461.57 292.782 461.407 292.78 461.284 292.825C461.167 292.867 461.04 292.97 460.896 293.226M460.896 293.226C460.896 293.225 460.896 293.224 460.897 293.223L460.676 293.105M460.896 293.226C459.538 295.77 458.765 298.499 458.218 301.312L458.217 301.313C458.17 301.547 458.215 301.651 458.271 301.72C458.346 301.811 458.481 301.888 458.716 301.993M460.896 293.226C460.895 293.227 460.895 293.227 460.894 293.228L460.676 293.105M460.676 293.105L458.716 301.993M458.716 301.993C458.715 301.993 458.715 301.992 458.715 301.992L458.614 302.221M458.716 301.993L457.972 301.264C457.858 301.834 458.156 302.016 458.614 302.221M458.716 301.993C459.577 302.374 460.431 302.761 461.284 303.147C462.479 303.689 463.672 304.229 464.876 304.749C464.876 304.748 464.876 304.748 464.875 304.748L458.716 301.993ZM458.716 301.993C458.716 301.993 458.716 301.993 458.716 301.993L458.614 302.221M458.716 301.993L458.614 302.221M485.756 322.17C493.745 324.926 502.482 320.735 505.254 312.786C508.027 304.839 503.809 296.15 495.819 293.393C487.83 290.637 479.094 294.829 476.321 302.777C473.548 310.725 477.766 319.413 485.756 322.17Z" fill="white" stroke="black" stroke-width="0.5"/>
<path d="M196.667 112.758L197.555 108.684L194.801 105.617C194.482 105.266 194.71 104.704 195.165 104.657L199.194 104.283L201.174 100.654C201.402 100.232 201.994 100.279 202.176 100.701L203.769 104.54L207.73 105.36C208.185 105.453 208.345 106.039 207.98 106.343L204.93 109.082L205.431 113.25C205.477 113.718 204.999 114.046 204.589 113.812L201.106 111.681L197.441 113.414C197.009 113.601 196.554 113.226 196.667 112.758Z" fill="#F7CC7F"/>
<path d="M195.947 278.055L195.036 277.987C195.218 275.641 195.286 273.273 195.241 270.951L196.152 270.928C196.197 273.296 196.129 275.687 195.947 278.055ZM195.081 285.115C194.694 287.46 194.171 289.805 193.579 292.083L192.691 291.855C193.283 289.601 193.784 287.278 194.171 284.978L195.081 285.115ZM195.719 263.823L194.808 263.914C194.558 261.591 194.193 259.246 193.738 256.969L194.626 256.787C195.104 259.109 195.469 261.478 195.719 263.823ZM191.438 298.869C190.619 301.077 189.685 303.286 188.661 305.427L187.841 305.04C188.843 302.922 189.776 300.736 190.573 298.55L191.438 298.869ZM192.896 249.864L192.03 250.137C191.347 247.906 190.573 245.674 189.685 243.511L190.528 243.169C191.416 245.355 192.213 247.61 192.896 249.864ZM185.314 311.735C184.107 313.761 182.786 315.765 181.375 317.678L180.646 317.132C182.035 315.241 183.333 313.26 184.539 311.256L185.314 311.735ZM187.522 236.679L186.725 237.089C185.655 235.017 184.471 232.967 183.196 230.986L183.97 230.485C185.245 232.512 186.429 234.584 187.522 236.679ZM176.912 323.212C175.341 324.988 173.679 326.718 171.948 328.335L171.334 327.675C173.041 326.081 174.681 324.373 176.229 322.619L176.912 323.212ZM179.826 224.724L179.12 225.293C177.686 223.449 176.138 221.65 174.544 219.942L175.204 219.327C176.821 221.035 178.369 222.857 179.826 224.724ZM166.552 332.981C164.685 334.438 162.727 335.827 160.746 337.102L160.245 336.328C162.203 335.053 164.139 333.687 165.983 332.252L166.552 332.981ZM170.081 214.34L169.489 215.023C167.736 213.475 165.892 211.995 164.002 210.606L164.548 209.877C166.438 211.289 168.305 212.792 170.081 214.34ZM154.576 340.677C152.481 341.77 150.295 342.772 148.109 343.661L147.768 342.818C149.931 341.93 152.071 340.951 154.166 339.858L154.576 340.677ZM158.583 205.937L158.105 206.712C156.101 205.505 154.006 204.389 151.912 203.387L152.299 202.567C154.439 203.592 156.557 204.73 158.583 205.937ZM141.392 346.052C139.138 346.735 136.793 347.327 134.494 347.805L134.311 346.917C136.611 346.439 138.888 345.869 141.142 345.186L141.392 346.052ZM145.741 199.812L145.423 200.654C143.237 199.857 140.983 199.129 138.706 198.537L138.933 197.648C141.233 198.263 143.533 198.992 145.741 199.812ZM127.458 348.898C125.113 349.148 122.722 349.308 120.354 349.331L120.331 348.42C122.676 348.374 125.044 348.238 127.367 347.987L127.458 348.898ZM131.989 196.146L131.83 197.034C129.53 196.646 127.185 196.35 124.84 196.168L124.657 196.146L124.726 195.235L124.908 195.257C127.299 195.462 129.667 195.758 131.989 196.146ZM113.296 348.238L113.227 349.148H113.136C110.791 348.966 108.446 348.693 106.146 348.306L106.306 347.418C108.583 347.805 110.905 348.078 113.205 348.26L113.296 348.238ZM117.645 195.963C115.299 196.009 112.931 196.146 110.609 196.419L110.518 195.508C112.863 195.257 115.254 195.098 117.622 195.052L117.645 195.963ZM99.4295 345.892L99.2018 346.78C96.9021 346.165 94.6252 345.46 92.4167 344.64L92.7354 343.774C94.8985 344.594 97.1754 345.3 99.4295 345.892ZM103.664 197.512C101.365 197.99 99.0879 198.559 96.8338 199.242L96.5606 198.377C98.8147 197.694 101.137 197.102 103.46 196.624L103.664 197.512ZM86.2235 341.042L85.8365 341.862C83.6962 340.837 81.5787 339.721 79.5523 338.491L80.0076 337.717C82.0341 338.924 84.106 340.04 86.2235 341.042ZM90.2081 201.611C88.045 202.499 85.9048 203.501 83.8328 204.571L83.423 203.774C85.5177 202.681 87.7035 201.679 89.8893 200.768L90.2081 201.611ZM74.1333 333.846L73.5868 334.575C71.6742 333.186 69.8072 331.683 68.0312 330.111L68.6232 329.428C70.3992 330.977 72.2662 332.457 74.1333 333.846ZM77.7308 208.101C75.7726 209.376 73.8373 210.742 71.993 212.177L71.4238 211.471C73.2908 210.013 75.2489 208.624 77.2298 207.326L77.7308 208.101ZM63.5913 324.532L62.931 325.147C61.3144 323.416 59.7434 321.618 58.2861 319.75L58.992 319.181C60.4492 321.048 61.9747 322.847 63.5913 324.532ZM66.6651 216.777C64.9574 218.393 63.3181 220.079 61.7698 221.832L61.0867 221.24C62.6578 219.464 64.3199 217.733 66.0276 216.116L66.6651 216.777ZM54.9164 313.465L54.1422 313.966C52.8672 311.985 51.6604 309.913 50.5675 307.795L51.3644 307.385C52.4573 309.457 53.6413 311.507 54.9164 313.465ZM57.3754 227.343C55.9865 229.233 54.6887 231.214 53.5047 233.218L52.7305 232.762C53.9373 230.736 55.2579 228.732 56.6468 226.819L57.3754 227.343ZM48.4272 300.986L47.5848 301.328C46.6968 299.142 45.8771 296.887 45.1941 294.61L46.0593 294.337C46.7423 296.591 47.5392 298.823 48.4272 300.986ZM50.1804 239.435C49.1786 241.552 48.2678 243.738 47.4482 245.924L46.583 245.606C47.4026 243.374 48.3362 241.165 49.338 239.047L50.1804 239.435ZM44.3288 287.528L43.4408 287.711C42.9627 285.388 42.5984 283.02 42.3479 280.674L43.2587 280.583C43.4864 282.906 43.8735 285.251 44.3288 287.528ZM45.3307 252.642C44.7387 254.896 44.2378 257.219 43.8507 259.519L42.9627 259.36C43.3498 257.014 43.8507 254.669 44.4654 252.392L45.3307 252.642ZM42.8033 273.546L41.8926 273.569C41.847 271.201 41.9153 268.81 42.0975 266.442L43.0082 266.51C42.8261 268.856 42.7578 271.224 42.8033 273.546Z" fill="#A8A8A8"/>
<path d="M286.984 120.715L286.962 117.275L284.344 115.332C284.043 115.122 284.108 114.607 284.451 114.49L287.434 113.39L288.314 110.067C288.421 109.693 288.872 109.599 289.087 109.927L290.954 112.688L294.108 112.571C294.473 112.548 294.688 112.992 294.473 113.32L292.649 116.128L293.722 119.357C293.851 119.732 293.529 120.083 293.186 119.966L290.181 118.936L287.692 121.066C287.391 121.323 286.984 121.089 286.984 120.715Z" fill="#F47458"/>
<path d="M438.25 337.05L440.397 332.929L438.317 328.785C438.073 328.309 438.472 327.766 438.981 327.856L443.452 328.671L446.64 325.343C446.994 324.958 447.636 325.184 447.702 325.705L448.322 330.325L452.395 332.408C452.86 332.634 452.86 333.314 452.395 333.563L448.3 335.601L447.614 340.221C447.525 340.741 446.906 340.945 446.551 340.56L443.386 337.209L438.892 337.979C438.383 338.069 438.007 337.503 438.25 337.05Z" fill="#F47458"/>
<path d="M334.832 142.679L334.598 142.773C334.387 142.866 334.129 142.773 334.012 142.586L332.558 140.23L330.589 141.023L331.972 143.262C332.136 143.519 332.019 143.846 331.738 143.939L331.504 144.032C331.293 144.125 331.035 144.032 330.918 143.846L329.464 141.49L328.105 142.026C327.87 142.119 327.589 142.003 327.495 141.769C327.401 141.536 327.519 141.256 327.753 141.163L328.948 140.696L327.73 138.69L326.44 139.204C326.206 139.297 325.925 139.18 325.831 138.947C325.737 138.714 325.854 138.434 326.089 138.34L327.19 137.897L325.854 135.728C325.69 135.471 325.807 135.145 326.089 135.051L326.323 134.958C326.534 134.865 326.792 134.958 326.909 135.145L328.339 137.431L330.308 136.638L328.972 134.468C328.808 134.212 328.925 133.885 329.206 133.792L329.417 133.698C329.628 133.605 329.886 133.698 330.003 133.885L331.433 136.171L332.793 135.635C333.027 135.541 333.308 135.658 333.402 135.891C333.496 136.124 333.379 136.404 333.144 136.498L331.949 136.964L333.191 138.97L334.481 138.457C334.715 138.364 334.996 138.48 335.09 138.714C335.184 138.947 335.067 139.227 334.832 139.32L333.73 139.763L335.113 142.003C335.207 142.236 335.09 142.563 334.832 142.679ZM331.996 139.414L330.753 137.407L328.784 138.201L330.027 140.207L331.996 139.414Z" fill="#F7CC7F"/>
<path d="M421.035 142.782L421.098 142.801L418.477 168.834L416.975 172.052L404.84 167.533L404.842 167.523C404.873 167.402 404.92 167.224 404.979 166.996C405.099 166.538 405.272 165.879 405.49 165.071C405.925 163.455 406.535 161.244 407.235 158.865C408.637 154.098 410.39 148.682 411.813 146.005L411.813 146.005C414.013 141.851 415.482 141.381 415.954 141.353C415.965 141.355 415.981 141.358 416.003 141.363C416.048 141.374 416.11 141.39 416.188 141.41C416.344 141.451 416.558 141.509 416.813 141.579C417.321 141.72 417.984 141.908 418.643 142.096C419.302 142.283 419.955 142.471 420.444 142.612L421.035 142.782Z" fill="white" stroke="black" stroke-width="0.4"/>
<path d="M416.201 141.474C416.207 141.423 416.211 141.379 416.215 141.342C418.249 140.719 421.377 140.153 424.457 139.74C427.615 139.317 430.699 139.056 432.47 139.056C436.257 139.056 441.457 139.511 445.201 140.146C449.231 140.84 451.308 141.199 452.378 141.384C452.866 141.468 453.144 141.517 453.303 141.544L453.303 141.546C453.302 141.685 453.301 141.89 453.299 142.153C453.294 142.678 453.286 143.435 453.271 144.36C453.241 146.211 453.184 148.735 453.076 151.426C452.968 154.118 452.809 156.976 452.575 159.497C452.34 162.023 452.031 164.191 451.63 165.513C451.414 166.223 451.303 167.367 451.266 168.799C451.228 170.239 451.265 171.996 451.354 173.948C451.534 177.851 451.927 182.547 452.371 187.07C452.816 191.594 453.311 195.948 453.695 199.172C453.888 200.784 454.052 202.113 454.168 203.039C454.227 203.503 454.273 203.865 454.304 204.112L454.317 204.211L417.92 204.682C417.934 204.595 417.95 204.492 417.97 204.371C418.031 203.983 418.118 203.424 418.218 202.74C418.419 201.371 418.672 199.499 418.886 197.49C419.1 195.481 419.274 193.331 419.315 191.405C419.356 189.487 419.265 187.764 418.935 186.626L418.935 186.626C416.087 176.822 415.41 165.464 415.447 156.547C415.465 152.09 415.662 148.247 415.854 145.519C415.95 144.155 416.045 143.069 416.116 142.326C416.151 141.954 416.181 141.667 416.201 141.474Z" fill="white" stroke="black" stroke-width="0.5"/>
<path d="M437.411 253.667C437.411 253.667 436.591 263.117 435.088 265.713C433.586 268.332 435.157 272.772 435.248 273.387C435.316 274.002 438.413 274.867 443.331 274.343C448.249 273.82 448.158 272.681 447.771 270.859C447.384 269.038 444.765 266.669 444.606 264.939C444.447 263.185 446.109 256.923 446.109 256.923L437.411 253.667Z" fill="#F7A491"/>
<path d="M443.923 275.095C448.977 274.549 448.363 272.067 447.953 270.199C447.702 269.015 446.245 267.626 445.38 266.305C444.925 266.67 444.196 267.307 442.01 267.945C439.733 268.628 436.614 267.285 434.61 266.442C433.904 269.084 433.859 272.454 433.927 272.955C434.018 273.592 438.868 275.642 443.923 275.095Z" fill="#141F39"/>
<path d="M420.471 185.215L420.516 185.461C420.793 185.41 421.212 185.402 421.735 185.43C422.253 185.458 422.854 185.52 423.488 185.599C424.032 185.679 424.901 185.929 425.827 186.196C425.93 186.226 426.035 186.256 426.139 186.286C427.159 186.579 428.218 186.873 428.876 186.922C431.517 187.127 442.215 187.721 448.364 187.126L448.581 187.105L448.59 186.887C448.829 180.478 449.369 169.491 450.282 160.27C450.739 155.658 451.288 151.498 451.936 148.575C452.261 147.11 452.608 145.974 452.971 145.251C453.154 144.887 453.33 144.65 453.49 144.524C453.639 144.407 453.757 144.393 453.876 144.437C454.799 144.785 455.649 145.823 456.393 147.476C457.131 149.116 457.74 151.306 458.216 153.864C459.169 158.977 459.582 165.517 459.457 171.966C459.332 178.415 458.669 184.757 457.474 189.476C456.876 191.838 456.149 193.777 455.301 195.118C454.45 196.465 453.514 197.153 452.508 197.148H452.507C451.023 197.148 449.471 196.875 447.046 196.295C445.9 196.021 444.57 195.681 442.967 195.271C441.169 194.812 439.029 194.265 436.423 193.625L436.422 193.625C435.559 193.418 434.573 193.24 433.64 193.078C433.503 193.055 433.368 193.031 433.234 193.008C432.45 192.873 431.725 192.747 431.158 192.622L431.157 192.622C430.67 192.515 430.411 192.33 430.134 192.132C430.119 192.121 430.103 192.11 430.088 192.099C429.776 191.877 429.438 191.656 428.806 191.593L428.759 191.588L428.713 191.601L425.345 192.557C425.345 192.557 425.345 192.557 425.344 192.557C425.063 192.635 424.682 192.629 424.266 192.584C424.002 192.555 423.75 192.515 423.511 192.476C423.369 192.454 423.233 192.432 423.102 192.414C422.913 192.385 422.699 192.302 422.451 192.185C422.34 192.132 422.226 192.075 422.108 192.016L422.069 191.996C421.937 191.93 421.8 191.861 421.66 191.797C421.107 191.542 420.452 191.32 419.773 191.56L419.771 191.561C418.173 192.137 416.638 193.404 415.459 194.441C415.285 194.593 415.12 194.74 414.964 194.879C414.58 195.221 414.249 195.516 413.973 195.734C413.778 195.888 413.628 195.989 413.52 196.039C413.509 196.044 413.499 196.049 413.49 196.052C413.491 196.037 413.492 196.019 413.495 195.997C413.509 195.889 413.558 195.736 413.65 195.539C413.83 195.149 414.149 194.644 414.556 194.087C415.369 192.975 416.508 191.696 417.52 190.774L417.205 190.387C417.029 190.514 416.849 190.645 416.665 190.779C415.591 191.559 414.4 192.426 413.378 193.055C412.778 193.424 412.253 193.701 411.855 193.833C411.655 193.899 411.508 193.921 411.41 193.913C411.323 193.906 411.297 193.88 411.283 193.856C411.267 193.828 411.253 193.771 411.294 193.652C411.336 193.53 411.427 193.375 411.572 193.188C411.862 192.815 412.323 192.369 412.875 191.881C413.285 191.518 413.746 191.132 414.214 190.739C414.986 190.092 415.776 189.43 416.388 188.832L416.09 188.436L414.519 189.324L414.494 189.338L414.473 189.357L414.473 189.357L414.473 189.358L414.471 189.359L414.464 189.365L414.438 189.389C414.415 189.41 414.381 189.441 414.337 189.48C414.249 189.558 414.124 189.668 413.972 189.799C413.668 190.06 413.261 190.4 412.846 190.714C412.427 191.031 412.012 191.313 411.69 191.468C411.525 191.548 411.41 191.581 411.343 191.585C411.341 191.585 411.339 191.585 411.337 191.585C411.316 191.489 411.341 191.324 411.462 191.074C411.59 190.81 411.798 190.507 412.046 190.195C412.479 189.65 413.004 189.11 413.361 188.744C413.411 188.692 413.458 188.644 413.501 188.6L413.502 188.599C413.516 188.584 413.553 188.553 413.626 188.506C413.696 188.46 413.787 188.406 413.897 188.345C414.118 188.223 414.408 188.077 414.745 187.916C415.418 187.594 416.27 187.216 417.114 186.854C417.958 186.492 418.792 186.146 419.428 185.888C419.747 185.758 420.015 185.652 420.211 185.576C420.309 185.538 420.388 185.508 420.445 185.487C420.481 185.474 420.503 185.467 420.513 185.463C420.523 185.46 420.524 185.459 420.52 185.46L420.471 185.215ZM420.471 185.215C420.243 185.261 413.868 187.857 413.321 188.426L428.895 186.672C428.205 186.622 427.023 186.281 425.892 185.955C424.971 185.689 424.084 185.433 423.522 185.352C422.247 185.192 421.085 185.101 420.471 185.215ZM413.431 196.069C413.431 196.069 413.433 196.069 413.435 196.069C413.432 196.07 413.431 196.07 413.431 196.069Z" fill="white" stroke="black" stroke-width="0.5"/>
<path d="M453.643 141.567L453.643 141.567C455.417 142.232 456.77 143.712 457.79 145.796C458.809 147.88 459.486 150.549 459.916 153.557C460.769 159.523 460.642 166.771 460.329 173.299C456.224 174.087 450.666 173.861 446.803 173.553C446.363 160.22 447.409 151.936 448.918 147.124C449.676 144.706 450.546 143.183 451.388 142.334C452.225 141.489 453.011 141.33 453.643 141.567Z" fill="white" stroke="black" stroke-width="0.4"/>
<path d="M401.3 262.138C401.3 262.138 402.985 265.121 401.664 267.626C400.344 270.131 393.353 273.82 392.625 275.186C391.896 276.552 392.192 277.509 392.192 277.509L412.935 272.431L411.341 266.168L409.406 261.842L401.3 262.138Z" fill="#F7A491"/>
<path d="M400.594 268.97C400.594 268.97 406.422 269.972 408.745 268.127C411.067 266.283 410.908 265.941 411.75 266.26C412.297 266.465 413.139 268.947 413.663 270.7C413.936 271.634 413.39 272.613 412.433 272.841L390.826 278.17C389.186 278.488 388.093 277.464 389.209 276.143C389.96 275.232 390.917 274.549 391.44 274.071C393.034 272.636 400.594 268.97 400.594 268.97Z" fill="#141F39"/>
<path d="M421.792 197.147L421.778 197.397L421.791 197.398L421.804 197.397L421.792 197.147ZM421.792 197.147C421.804 197.397 421.804 197.397 421.804 197.397L421.805 197.397L421.81 197.397L421.827 197.396L421.893 197.393L422.155 197.381C422.384 197.371 422.72 197.356 423.148 197.337C424.005 197.3 425.231 197.249 426.707 197.194C429.659 197.083 433.61 196.955 437.61 196.882C441.61 196.81 445.655 196.793 448.794 196.907C450.365 196.964 451.703 197.054 452.693 197.184C453.189 197.249 453.591 197.323 453.889 197.407C454.037 197.449 454.154 197.491 454.241 197.533C454.33 197.575 454.373 197.61 454.389 197.629C454.451 197.702 454.527 197.853 454.602 198.105C454.676 198.35 454.741 198.666 454.797 199.046C454.907 199.805 454.974 200.798 454.985 201.944C455.008 204.236 454.809 207.121 454.305 209.932C453.8 212.748 452.995 215.47 451.816 217.452C450.637 219.434 449.12 220.624 447.194 220.512L447.194 220.512C429.794 219.51 416.652 219.214 407.859 219.168C403.462 219.145 400.153 219.185 397.942 219.231C396.837 219.254 396.006 219.278 395.452 219.296C395.174 219.306 394.966 219.313 394.827 219.319L394.771 219.321C394.761 219.304 394.751 219.285 394.739 219.264C394.67 219.14 394.568 218.957 394.441 218.723C394.187 218.255 393.83 217.582 393.419 216.764C392.596 215.126 391.56 212.909 390.702 210.587C389.843 208.261 389.169 205.846 389.058 203.809C388.946 201.762 389.404 200.179 390.706 199.388C391.384 198.978 392.375 198.631 393.609 198.343C394.838 198.056 396.291 197.83 397.882 197.655C401.064 197.305 404.779 197.16 408.321 197.121C411.863 197.083 415.228 197.152 417.707 197.23C418.947 197.27 419.965 197.311 420.673 197.343C421.027 197.359 421.304 197.373 421.492 197.382C421.586 197.387 421.657 197.391 421.706 197.393L421.76 197.396L421.774 197.397L421.777 197.397L421.778 197.397C421.778 197.397 421.778 197.397 421.792 197.147Z" fill="white" stroke="black" stroke-width="0.5"/>
<path d="M440.755 215.444L440.755 215.444C442.104 205.27 445.379 200.713 448.259 198.687C449.7 197.673 451.055 197.283 452.046 197.146C452.541 197.077 452.946 197.072 453.225 197.083C453.364 197.089 453.472 197.099 453.543 197.107C453.579 197.111 453.606 197.115 453.623 197.117L453.642 197.12L453.646 197.121L453.646 197.121L453.646 197.121L453.646 197.121L453.653 197.122L453.66 197.123L453.66 197.123L453.661 197.123L453.661 197.123L453.662 197.123L453.671 197.124C453.679 197.126 453.692 197.127 453.71 197.13C453.746 197.136 453.8 197.146 453.87 197.161C454.011 197.192 454.215 197.244 454.463 197.33C454.959 197.503 455.631 197.811 456.326 198.35C457.708 199.424 459.208 201.437 459.566 205.21L459.566 205.211C459.657 206.135 459.519 207.729 459.197 209.836C458.875 211.935 458.375 214.517 457.753 217.405C456.509 223.18 454.778 230.164 453.024 236.91C451.27 243.656 449.492 250.162 448.153 254.982C447.483 257.392 446.924 259.38 446.531 260.766C446.335 261.459 446.18 262.001 446.075 262.37L445.972 262.729L434.708 261.329L434.733 261.146L434.895 259.913L435.481 255.456C435.971 251.734 436.635 246.691 437.331 241.406C438.723 230.837 440.243 219.303 440.755 215.444Z" fill="white" stroke="black" stroke-width="0.5"/>
<path d="M391.422 198.175L391.422 198.175C394.653 196.838 397.158 197.284 399.056 198.464C400.968 199.653 402.291 201.603 403.1 203.311C405.93 209.29 408.224 218.959 408.677 225.992L408.677 225.992C408.917 229.67 409.509 239.114 410.041 247.639C410.307 251.902 410.558 255.934 410.743 258.901L410.963 262.448L411.024 263.426L411.029 263.503L401.069 263.438C400.979 262.73 400.733 261.622 400.369 260.216C399.963 258.643 399.405 256.681 398.744 254.456C397.421 250.007 395.679 244.503 393.89 238.962C392.211 233.761 390.491 228.529 389.036 224.103C387.388 219.092 386.08 215.113 385.555 213.379C384.576 210.15 384.509 206.978 385.449 204.304C386.387 201.636 388.334 199.446 391.422 198.175Z" fill="white" stroke="black" stroke-width="0.5"/>
<path d="M386.364 167.818H421.268C422.202 167.818 423.021 168.387 423.363 169.229L434.11 195.531H453.35C453.896 195.531 454.329 195.963 454.329 196.51C454.329 197.056 453.896 197.489 453.35 197.489H398.568C397.065 197.489 395.699 196.601 395.084 195.235L384.269 171.028C383.631 169.526 384.724 167.818 386.364 167.818Z" fill="#CDCDCD"/>
<path d="M405.171 183.143C405.398 184.327 406.423 185.124 407.47 184.919C408.518 184.714 409.155 183.576 408.905 182.414C408.677 181.23 407.652 180.433 406.605 180.638C405.58 180.82 404.943 181.959 405.171 183.143Z" fill="white"/>
<path d="M424.159 107.199C425.206 106.835 426.254 106.448 427.255 105.97C428.394 105.423 429.851 104.786 430.785 104.649C432.743 104.353 436.09 104.558 437.934 106.562C440.234 109.067 444.332 107.017 443.512 120.088C442.579 134.89 434.337 133.273 434.154 133.023C433.949 132.772 426.8 123.55 426.8 123.55C426.8 123.55 424.296 129.015 424.296 128.81C424.273 128.605 411.522 111.458 424.159 107.199Z" fill="#CDCDCD"/>
<path d="M429.715 139.398L429.959 139.449L429.961 139.44L429.962 139.431L430.658 134.227L437.966 126.36L438.637 139.105L438.603 139.158C438.554 139.237 438.482 139.351 438.389 139.497C438.203 139.788 437.936 140.202 437.608 140.695C436.952 141.682 436.058 142.98 435.1 144.23C434.141 145.484 433.127 146.678 432.232 147.465C431.783 147.86 431.379 148.139 431.039 148.277C430.699 148.415 430.473 148.395 430.316 148.281L430.315 148.28C429.892 147.979 429.619 147.323 429.481 146.412C429.347 145.518 429.353 144.449 429.423 143.411C429.494 142.377 429.628 141.385 429.744 140.652C429.803 140.286 429.857 139.984 429.896 139.775C429.915 139.67 429.931 139.588 429.942 139.533L429.955 139.47L429.958 139.454L429.959 139.45L429.959 139.449L429.959 139.449L429.715 139.398Z" fill="white" stroke="black" stroke-width="0.5"/>
<path d="M438.39 130.13C436.705 134.707 432.675 137.508 429.806 138.601L430.398 134.115L438.14 125.781L438.39 130.13Z" fill="#CBC8C8"/>
<path d="M430.791 111.431L430.791 111.431C435.204 112.137 438.653 116.415 439.372 121.693L439.372 121.694C439.976 125.965 438.574 129.388 436.682 131.807C435.735 133.017 434.666 133.973 433.667 134.656C432.664 135.341 431.747 135.739 431.107 135.85C430.507 135.954 429.796 135.744 429.03 135.23C428.268 134.719 427.48 133.925 426.74 132.917C425.261 130.902 424.002 128.071 423.541 125.06L423.541 125.06C423.156 122.545 422.997 120.187 422.952 118.306L422.952 118.305C422.842 114.132 426.6 110.751 430.791 111.431Z" fill="white" stroke="black" stroke-width="0.5"/>
<path d="M437.73 122.707C437.957 124.05 439.028 124.984 440.143 124.802C441.236 124.62 441.942 123.367 441.714 122.024C441.487 120.68 440.416 119.747 439.301 119.929C438.208 120.111 437.502 121.363 437.73 122.707Z" fill="white"/>
<path d="M439.3 119.929C439.3 119.929 435.976 120.748 434.724 118.608C433.494 116.467 429.077 111.845 423.453 113.757C417.829 115.67 428.394 109.089 428.849 109.089C429.305 109.089 434.701 109.044 434.701 109.044C434.701 109.044 438.867 112.459 439.004 112.847C439.163 113.234 440.347 117.31 440.347 117.31L439.3 119.929Z" fill="#CDCDCD"/>
<path d="M433.199 128.878L427.142 130.039C427.142 130.039 427.711 132.316 430.398 131.884C433.654 131.36 433.199 128.878 433.199 128.878Z" fill="white"/>
<path d="M136.366 413.274C157.494 389.435 169.071 352.067 173.205 304.128H200.923C204.252 351.287 215.382 389.072 237.715 413.274H136.366Z" fill="white" stroke="black"/>
<path d="M149.486 414.573H49.1982C49.9983 411.318 52.9344 408.901 56.4189 408.901C58.3396 408.901 60.0883 409.626 61.4117 410.821L61.9019 411.264L62.195 410.672C64.3452 406.327 68.8202 403.345 73.9965 403.345C74.2963 403.345 74.5485 403.345 74.7974 403.366L75.2719 403.405L75.3346 402.933C77.1008 389.629 88.4811 379.366 102.275 379.366C113.185 379.366 122.621 385.805 126.936 395.108L127.131 395.529L127.566 395.365C129.378 394.68 131.345 394.304 133.378 394.304C142.505 394.304 149.909 401.709 149.909 410.837C149.909 412.125 149.762 413.376 149.486 414.573Z" fill="white" stroke="black"/>
<path d="M339.279 414.367C339.279 414.43 339.279 414.491 339.278 414.55H323.252C323.249 414.486 323.248 414.426 323.248 414.367C323.248 409.929 326.826 406.35 331.263 406.35C335.7 406.35 339.279 409.929 339.279 414.367Z" fill="white" stroke="black"/>
<path d="M319.822 414.573H230.86C232.818 407.614 239.188 402.525 246.766 402.525C248.466 402.525 250.08 402.789 251.632 403.255L252.373 403.477L252.271 402.71C252.137 401.708 252.071 400.682 252.071 399.656C252.071 387.112 262.252 376.929 274.795 376.929C286.781 376.929 296.605 386.198 297.452 397.984L297.5 398.647L298.123 398.418C299.868 397.777 301.767 397.424 303.734 397.424C312.634 397.424 319.855 404.646 319.855 413.547C319.855 413.889 319.844 414.231 319.822 414.573Z" fill="white" stroke="black"/>
<path d="M203.346 304.174H170.786C170.058 304.174 169.466 303.582 169.466 302.853V294.018H204.666V302.853C204.666 303.582 204.074 304.174 203.346 304.174Z" fill="#DD513A"/>
<path d="M159.629 244.877C159.629 244.877 146.355 262.57 136.906 273.432C124.178 288.12 127.548 289.987 138.955 330.703C167.985 311.142 155.599 282.928 166.027 277.235C185.062 266.874 159.629 244.877 159.629 244.877Z" fill="#141F39"/>
<path d="M214.503 244.877C214.503 244.877 227.777 262.57 237.226 273.432C249.954 288.12 246.584 289.987 235.177 330.703C206.146 311.142 218.533 282.928 208.105 277.235C189.047 266.874 214.503 244.877 214.503 244.877Z" fill="#141F39"/>
<path d="M223.176 230.917C223.176 196.828 203.481 166.382 193.281 152.902C190.253 148.894 184.242 148.803 181.077 152.719C170.694 165.608 150.954 194.665 150.954 229.255C150.954 243.237 160.539 282.928 165.526 293.039C166.732 295.452 169.191 297.001 171.878 297.001H203.003C205.713 297.001 208.172 295.452 209.356 293.039C214.365 282.951 223.176 244.899 223.176 230.917Z" fill="#141F39"/>
<path d="M208.908 292.84L208.908 292.841C207.807 295.084 205.523 296.522 202.985 296.501H202.981H171.856C169.363 296.501 167.076 295.064 165.952 292.817C163.488 287.819 159.856 275.425 156.835 262.485C153.814 249.547 151.432 236.181 151.432 229.255C151.432 209.384 157.983 191.32 165.536 177.129C172.196 173.32 179.626 171.187 187.476 171.187C194.555 171.187 201.328 172.938 207.463 176.07C215.428 191.063 222.654 210.326 222.654 230.918C222.654 237.847 220.464 250.806 217.638 263.331C214.81 275.861 211.371 287.846 208.908 292.84Z" fill="white" stroke="#141F39"/>
<path d="M188.432 236.861C200.68 236.861 210.609 226.931 210.609 214.681C210.609 202.432 200.68 192.502 188.432 192.502C176.184 192.502 166.255 202.432 166.255 214.681C166.255 226.931 176.184 236.861 188.432 236.861Z" fill="#EBD6AC"/>
<path d="M190.651 193.013C202.468 194.931 210.493 206.067 208.575 217.886C206.657 229.705 195.523 237.731 183.705 235.813C171.888 233.894 163.863 222.758 165.781 210.94C167.699 199.121 178.833 191.095 190.651 193.013Z" fill="white" stroke="#141F39"/>
<path d="M165.982 214.727C165.982 202.476 175.91 192.547 188.159 192.547C190.413 192.547 192.576 192.889 194.626 193.504C192.28 192.661 189.776 192.206 187.157 192.206C174.908 192.206 164.98 202.134 164.98 214.385C164.98 224.382 171.583 232.831 180.668 235.586C172.13 232.534 165.982 224.359 165.982 214.727Z" fill="#224E8F"/>
<path d="M189.138 233.719C189.138 234.652 188.386 235.404 187.453 235.404C186.519 235.404 185.768 234.652 185.768 233.719C185.768 232.785 186.519 232.034 187.453 232.034C188.386 232.034 189.138 232.785 189.138 233.719Z" fill="#D1CFCB"/>
<path d="M189.024 195.644C189.024 196.578 188.273 197.329 187.339 197.329C186.406 197.329 185.654 196.578 185.654 195.644C185.654 194.711 186.406 193.959 187.339 193.959C188.273 193.982 189.024 194.711 189.024 195.644Z" fill="#D1CFCB"/>
<path d="M203.346 201.998C203.346 202.931 202.594 203.683 201.661 203.683C200.727 203.683 199.976 202.931 199.976 201.998C199.976 201.064 200.727 200.312 201.661 200.312C202.594 200.335 203.346 201.087 203.346 201.998Z" fill="#D1CFCB"/>
<path d="M175.522 228.299C175.522 229.232 174.771 229.984 173.837 229.984C172.904 229.984 172.152 229.232 172.152 228.299C172.152 227.365 172.904 226.614 173.837 226.614C174.771 226.636 175.522 227.388 175.522 228.299Z" fill="#D1CFCB"/>
<path d="M203.346 227.57C203.346 228.504 202.594 229.255 201.661 229.255C200.727 229.255 199.976 228.504 199.976 227.57C199.976 226.637 200.727 225.885 201.661 225.885C202.594 225.885 203.346 226.637 203.346 227.57Z" fill="#D1CFCB"/>
<path d="M174.839 201.747C174.839 202.681 174.088 203.432 173.154 203.432C172.221 203.432 171.469 202.681 171.469 201.747C171.469 200.814 172.221 200.062 173.154 200.062C174.11 200.062 174.839 200.814 174.839 201.747Z" fill="#D1CFCB"/>
<path d="M208.287 214.727C208.287 215.661 207.536 216.412 206.602 216.412C205.669 216.412 204.917 215.661 204.917 214.727C204.917 213.794 205.669 213.042 206.602 213.042C207.559 213.065 208.287 213.816 208.287 214.727Z" fill="#D1CFCB"/>
<path d="M169.67 214.727C169.67 215.661 168.919 216.412 167.985 216.412C167.052 216.412 166.3 215.661 166.3 214.727C166.3 213.794 167.052 213.042 167.985 213.042C168.919 213.065 169.67 213.816 169.67 214.727Z" fill="#D1CFCB"/>
<path d="M187.157 230.667C196.136 230.667 203.414 223.388 203.414 214.408C203.414 205.429 196.136 198.149 187.157 198.149C178.179 198.149 170.9 205.429 170.9 214.408C170.9 223.388 178.179 230.667 187.157 230.667Z" fill="#E8E8E8"/>
<path d="M172.767 216.412C172.767 207.417 180.053 200.153 189.024 200.153C193.237 200.153 197.062 201.747 199.953 204.366C196.971 200.563 192.349 198.149 187.157 198.149C178.164 198.149 170.9 205.436 170.9 214.408C170.9 219.19 172.95 223.472 176.228 226.455C174.065 223.676 172.767 220.192 172.767 216.412Z" fill="#DAECF2"/>
<path d="M188.842 233.468C188.842 234.402 188.091 235.153 187.158 235.153C186.224 235.153 185.473 234.402 185.473 233.468C185.473 232.534 186.224 231.783 187.158 231.783C188.091 231.783 188.842 232.534 188.842 233.468Z" fill="#878583"/>
<path d="M187.157 234.379C186.633 234.379 186.223 233.969 186.223 233.445C186.223 232.921 186.633 232.511 187.157 232.511C187.68 232.511 188.09 232.921 188.09 233.445C188.09 233.969 187.68 234.379 187.157 234.379Z" fill="#858585"/>
<path d="M188.729 195.394C188.729 196.327 187.977 197.079 187.044 197.079C186.11 197.079 185.359 196.327 185.359 195.394C185.359 194.46 186.11 193.708 187.044 193.708C187.977 193.708 188.729 194.46 188.729 195.394Z" fill="#878583"/>
<path d="M187.066 196.305C186.542 196.305 186.132 195.895 186.132 195.371C186.132 194.847 186.542 194.437 187.066 194.437C187.59 194.437 187.999 194.847 187.999 195.371C187.999 195.895 187.567 196.305 187.066 196.305Z" fill="#858585"/>
<path d="M203.05 201.747C203.05 202.681 202.299 203.432 201.366 203.432C200.432 203.432 199.681 202.681 199.681 201.747C199.681 200.814 200.432 200.062 201.366 200.062C202.299 200.062 203.05 200.814 203.05 201.747Z" fill="#878583"/>
<path d="M201.388 202.68C200.864 202.68 200.455 202.27 200.455 201.747C200.455 201.223 200.864 200.813 201.388 200.813C201.912 200.813 202.322 201.223 202.322 201.747C202.299 202.27 201.889 202.68 201.388 202.68Z" fill="#858585"/>
<path d="M175.226 228.049C175.226 228.982 174.474 229.734 173.541 229.734C172.607 229.734 171.856 228.982 171.856 228.049C171.856 227.115 172.607 226.364 173.541 226.364C174.474 226.364 175.226 227.115 175.226 228.049Z" fill="#878583"/>
<path d="M173.541 228.982C173.018 228.982 172.608 228.572 172.608 228.049C172.608 227.525 173.018 227.115 173.541 227.115C174.065 227.115 174.475 227.525 174.475 228.049C174.475 228.55 174.065 228.982 173.541 228.982Z" fill="#858585"/>
<path d="M203.05 227.297C203.05 228.23 202.299 228.982 201.366 228.982C200.432 228.982 199.681 228.23 199.681 227.297C199.681 226.363 200.432 225.612 201.366 225.612C202.299 225.634 203.05 226.386 203.05 227.297Z" fill="#878583"/>
<path d="M201.388 228.231C201.904 228.231 202.322 227.813 202.322 227.297C202.322 226.782 201.904 226.364 201.388 226.364C200.873 226.364 200.455 226.782 200.455 227.297C200.455 227.813 200.873 228.231 201.388 228.231Z" fill="#858585"/>
<path d="M174.544 201.474C174.544 202.407 173.792 203.159 172.859 203.159C171.925 203.159 171.174 202.407 171.174 201.474C171.174 200.54 171.925 199.789 172.859 199.789C173.792 199.811 174.544 200.563 174.544 201.474Z" fill="#878583"/>
<path d="M172.881 202.407C172.357 202.407 171.947 201.997 171.947 201.474C171.947 200.95 172.357 200.54 172.881 200.54C173.404 200.54 173.814 200.95 173.814 201.474C173.814 201.997 173.382 202.407 172.881 202.407Z" fill="#858585"/>
<path d="M207.99 214.476C207.99 215.41 207.239 216.161 206.306 216.161C205.372 216.161 204.621 215.41 204.621 214.476C204.621 213.542 205.372 212.791 206.306 212.791C207.239 212.791 207.99 213.542 207.99 214.476Z" fill="#878583"/>
<path d="M206.329 215.41C205.805 215.41 205.396 215 205.396 214.477C205.396 213.953 205.805 213.543 206.329 213.543C206.853 213.543 207.263 213.953 207.263 214.477C207.263 214.978 206.83 215.41 206.329 215.41Z" fill="#858585"/>
<path d="M169.352 214.476C169.352 215.41 168.6 216.161 167.667 216.161C166.733 216.161 165.982 215.41 165.982 214.476C165.982 213.542 166.733 212.791 167.667 212.791C168.623 212.791 169.352 213.542 169.352 214.476Z" fill="#878583"/>
<path d="M167.69 215.41C167.166 215.41 166.756 215 166.756 214.477C166.756 213.953 167.166 213.543 167.69 213.543C168.214 213.543 168.623 213.953 168.623 214.477C168.623 214.978 168.191 215.41 167.69 215.41Z" fill="#858585"/>
<path d="M197.312 214.955C195.468 222.06 188.227 226.318 181.146 224.473C178.96 223.904 177.048 222.834 175.5 221.399C177.275 224.451 180.213 226.842 183.901 227.798C191.21 229.688 198.678 225.293 200.568 217.983C202.116 211.994 199.452 205.914 194.443 202.863C197.221 206.074 198.451 210.537 197.312 214.955Z" fill="#7A7A7A"/>
<path d="M191.688 291.672C191.688 313.237 189.548 327.128 187.066 330.703C184.493 326.991 182.444 313.237 182.444 291.672C182.444 270.107 187.066 252.642 187.066 252.642C187.066 252.642 191.688 270.13 191.688 291.672Z" fill="#141F39"/>
<path d="M26 415.05C26 415.756 26.888 416.325 28.0037 416.325H528.19C529.306 416.325 530.194 415.756 530.194 415.05C530.194 414.344 529.306 413.774 528.19 413.774H28.0037C26.888 413.774 26 414.344 26 415.05Z" fill="#13375B"/>
<defs>
<linearGradient id="paint0_linear_2836_875" x1="1.67267e-05" y1="-72" x2="347" y2="294" gradientUnits="userSpaceOnUse">
<stop offset="0.197368" stop-color="#8765D8"/>
<stop offset="1" stop-color="#9F80EB"/>
</linearGradient>
</defs>
</svg>
