<svg width="563" height="456" viewBox="0 0 563 456" fill="none" xmlns="http://www.w3.org/2000/svg">
<rect width="563" height="456" rx="31" fill="url(#paint0_linear_2836_874)"/>
<g clip-path="url(#clip0_2836_874)">
<path d="M16.48 412.852H548.611" stroke="#141F39" stroke-miterlimit="10" stroke-linecap="round" stroke-linejoin="round"/>
<g opacity="0.3">
<path d="M333.473 116.855C341.209 95.3258 330.058 71.5902 308.567 63.8402C287.075 56.0902 263.381 67.2606 255.644 88.7899C247.908 110.319 259.059 134.055 280.55 141.805C302.042 149.555 325.736 138.385 333.473 116.855Z" stroke="#141F39" stroke-miterlimit="10"/>
<path d="M317.949 126.261C330.876 113.311 330.876 92.3151 317.949 79.3653C305.022 66.4156 284.063 66.4156 271.136 79.3653C258.209 92.3151 258.209 113.311 271.136 126.261C284.063 139.21 305.022 139.21 317.949 126.261Z" stroke="#141F39" stroke-miterlimit="10"/>
<path d="M309.522 117.819C317.796 109.532 317.796 96.0944 309.522 87.8065C301.249 79.5186 287.835 79.5186 279.562 87.8065C271.288 96.0944 271.288 109.532 279.562 117.819C287.835 126.107 301.249 126.107 309.522 117.819Z" stroke="#141F39" stroke-miterlimit="10"/>
<path d="M303.024 111.309C307.708 106.617 307.708 99.0091 303.024 94.3167C298.34 89.6243 290.745 89.6243 286.061 94.3167C281.377 99.0091 281.377 106.617 286.061 111.309C290.745 116.002 298.34 116.002 303.024 111.309Z" stroke="#141F39" stroke-miterlimit="10"/>
<path d="M299.603 102.784C299.603 99.9749 297.344 97.7122 294.54 97.7122C291.736 97.7122 289.478 99.9749 289.478 102.784C289.478 105.593 291.736 107.855 294.54 107.855C297.344 107.855 299.603 105.593 299.603 102.784Z" stroke="#141F39" stroke-miterlimit="10"/>
</g>
<path d="M293.606 103.798H237.994V101.77H293.606C294.151 101.77 294.618 102.238 294.618 102.784C294.54 103.33 294.151 103.798 293.606 103.798Z" fill="#B2B2B2"/>
<path d="M233.009 95.6836L233.32 95.9957L239.084 101.769H221.715L215.484 95.6836H233.009Z" fill="#B2B2B2"/>
<path d="M215.484 109.728L221.715 103.798H239.084C236.825 105.515 234.8 107.543 232.931 109.728H215.484Z" fill="#B2B2B2"/>
<path d="M447.045 143.356L444.319 155.216L456.391 157.947L458.962 146.555C459.273 146.555 459.663 146.633 459.974 146.633C463.791 146.633 467.373 145.853 470.645 144.448L478.044 153.733L487.702 146.009L480.614 137.114C483.263 134.071 485.21 130.404 486.3 126.347H497.906V114.019H486.845C486.067 109.884 484.275 106.061 481.783 102.784L488.948 93.8107L479.29 86.0864L472.358 94.8251C468.775 93.0305 464.803 92.0162 460.597 91.9382L458.027 80.5466L445.954 83.2775L448.525 94.513C444.864 96.2295 441.67 98.7263 439.178 101.769L428.352 96.5416L422.977 107.699L433.648 112.849C433.181 114.877 432.869 117.062 432.869 119.247C432.869 121.041 433.025 122.758 433.336 124.474L422.276 129.78L427.651 140.937L438.399 135.788C440.658 138.831 443.618 141.484 447.045 143.356ZM460.052 107.153C466.75 107.153 472.203 112.615 472.203 119.325C472.203 126.035 466.75 131.496 460.052 131.496C453.354 131.496 447.901 126.035 447.901 119.325C447.901 112.537 453.354 107.153 460.052 107.153Z" stroke="#141F39" stroke-miterlimit="10" stroke-linecap="round" stroke-linejoin="round"/>
<path d="M506.24 166.139L503.981 175.892L513.873 178.155L515.976 168.792C516.287 168.792 516.521 168.87 516.832 168.87C519.948 168.87 522.908 168.246 525.556 167.076L531.631 174.644L539.576 168.324L533.812 161.068C535.993 158.571 537.628 155.528 538.485 152.251H547.91V142.108H538.797C538.096 138.675 536.694 135.554 534.669 132.901L540.51 125.567L532.566 119.247L526.88 126.425C523.998 124.943 520.649 124.084 517.222 124.006L515.119 114.643L505.227 116.906L507.33 126.113C504.37 127.517 501.722 129.546 499.619 132.043L490.74 127.751L486.378 136.88L495.102 141.094C494.712 142.81 494.479 144.527 494.479 146.321C494.479 147.804 494.634 149.208 494.868 150.612L485.833 154.982L490.195 164.111L498.996 159.819C501.021 162.472 503.436 164.579 506.24 166.139ZM516.91 136.412C522.362 136.412 526.88 140.859 526.88 146.399C526.88 151.861 522.44 156.386 516.91 156.386C511.458 156.386 506.941 151.939 506.941 146.399C506.941 140.859 511.38 136.412 516.91 136.412Z" stroke="#141F39" stroke-miterlimit="10" stroke-linecap="round" stroke-linejoin="round"/>
<path d="M165.402 161.068L174.437 144.605L157.769 135.398L149.046 151.237C148.578 151.081 148.033 150.847 147.566 150.691C141.958 149.052 136.272 148.74 130.898 149.364L123.888 132.511L106.285 139.845L112.983 155.996C107.765 159.429 103.325 164.033 99.9762 169.494L82.9187 164.579L77.7002 182.915L94.1346 187.596C93.5893 194.072 94.6019 200.47 96.8606 206.4L82.5292 216.621L93.5893 232.148L107.609 222.161C112.127 226.296 117.579 229.573 123.888 231.446L122.953 249.469L141.958 250.484L142.892 232.772C148.968 231.758 154.809 229.495 159.872 225.984L173.736 238.312L186.354 224.033L172.724 211.862C174.359 209.053 175.683 205.932 176.618 202.655C177.397 200.002 177.864 197.349 178.098 194.774L196.713 191.575L193.52 172.771L175.372 175.892C173.035 170.431 169.764 165.281 165.402 161.068ZM130.898 209.209C121.006 206.4 115.242 196.023 118.046 186.114C120.85 176.205 131.209 170.431 141.101 173.24C150.993 176.048 156.756 186.426 153.953 196.335C151.149 206.322 140.867 212.018 130.898 209.209Z" stroke="#141F39" stroke-miterlimit="10" stroke-linecap="round" stroke-linejoin="round"/>
<path d="M87.3582 102.159L94.7575 88.6613L81.0492 81.0929L73.9614 94.0449C73.572 93.8889 73.1825 93.7329 72.7152 93.6548C68.1198 92.3284 63.4465 92.0163 59.0069 92.5625L53.2432 78.7522L38.8339 84.7601L44.364 98.0242C40.0801 100.755 36.4194 104.578 33.6933 109.104L19.6735 105.046L15.3896 120.105L28.8643 123.928C28.3969 129.234 29.2537 134.54 31.123 139.299L19.284 147.804L28.3191 160.522L39.8465 152.329C43.5851 155.762 48.0247 158.415 53.1653 159.975L52.3864 174.722L67.964 175.58L68.7429 160.99C73.7278 160.131 78.4789 158.259 82.6849 155.45L94.0565 165.593L104.416 153.89L93.1997 143.902C94.5238 141.562 95.6143 139.065 96.3932 136.412C97.0163 134.227 97.4057 132.121 97.5615 129.936L112.828 127.283L110.179 111.834L95.3027 114.409C93.5892 109.806 90.8631 105.593 87.3582 102.159ZM59.0069 141.64C50.9066 139.299 46.1554 130.872 48.492 122.68C50.8287 114.565 59.3185 109.806 67.4188 112.147C75.5192 114.487 80.2703 122.992 77.9337 131.106C75.675 139.299 67.1852 143.98 59.0069 141.64Z" stroke="#141F39" stroke-miterlimit="10" stroke-linecap="round" stroke-linejoin="round"/>
<path d="M444.708 203.123V161.692H318.997V203.123L321.178 206.4C322.58 208.428 324.761 209.989 327.253 210.847C330.992 212.096 335.042 211.159 338.235 208.975C340.65 207.336 343.454 206.4 346.491 206.4C355.293 206.4 362.303 214.28 362.303 224.111C362.303 233.942 355.215 241.823 346.491 241.823C343.454 241.823 340.65 240.886 338.235 239.248C334.964 236.985 330.914 236.049 327.175 237.375C324.605 238.234 322.424 239.716 321.1 241.745L318.919 245.022V286.999H360.823L364.094 284.814C366.119 283.488 367.677 281.303 368.456 278.728C369.702 274.983 368.767 270.926 366.586 267.649C364.951 265.23 364.016 262.421 364.016 259.378C364.016 250.561 371.883 243.539 381.697 243.539C391.511 243.539 399.377 250.64 399.377 259.378C399.377 262.421 398.443 265.23 396.807 267.649C394.626 270.848 393.691 274.905 394.938 278.65C395.794 281.225 397.352 283.41 399.377 284.736L402.649 286.921H444.552V245.1L444.63 244.944L444.708 203.123Z" fill="white" stroke="#141F39" stroke-miterlimit="10" stroke-linecap="round" stroke-linejoin="round"/>
<path d="M402.726 286.843L399.455 284.658C397.43 283.332 395.872 281.147 395.093 278.572C393.847 274.827 394.782 270.77 396.963 267.493C398.598 265.074 399.533 262.265 399.533 259.222C399.533 250.405 391.666 243.305 381.852 243.305C372.038 243.305 364.172 250.405 364.172 259.222C364.172 262.265 365.106 264.996 366.742 267.493C368.923 270.692 369.857 274.749 368.611 278.494C367.755 281.069 366.197 283.254 364.172 284.58L360.9 286.765H318.997V328.742L316.816 332.019C315.414 334.047 313.233 335.608 310.741 336.466C307.002 337.714 302.952 336.778 299.758 334.594C297.344 332.955 294.54 332.019 291.502 332.019C282.701 332.019 275.691 339.899 275.691 349.73C275.691 359.561 282.779 367.442 291.502 367.442C294.54 367.442 297.344 366.505 299.758 364.867C303.03 362.604 307.08 361.668 310.818 362.916C313.389 363.775 315.57 365.335 316.894 367.364L319.075 370.641V412.852H444.864V370.875V328.898V286.921H402.726V286.843Z" fill="white" stroke="#141F39" stroke-miterlimit="10" stroke-linecap="round" stroke-linejoin="round"/>
<path d="M408.334 370.563C408.022 371.421 404.44 394.594 403.583 398.729C402.726 402.943 402.181 405.44 402.181 405.44L402.259 405.674C402.259 405.674 397.975 409.029 396.884 410.043C395.794 410.979 390.108 412.228 389.407 412.93C388.706 413.632 388.395 414.49 389.485 414.724C390.498 414.959 401.246 414.646 402.414 414.49C403.583 414.334 408.645 415.583 409.346 413.476C410.047 411.369 407.789 406.61 407.789 406.61C408.957 403.879 414.176 391.629 415.889 386.246C417.836 380.082 419.16 371.499 419.16 371.499L425.937 357.533L410.904 360.029C410.826 359.951 408.645 369.704 408.334 370.563Z" fill="white" stroke="#141F39" stroke-miterlimit="10" stroke-linecap="round" stroke-linejoin="round"/>
<path d="M465.893 411.994C465.582 410.355 463.089 406.298 463.089 406.298L452.964 375.322L446.811 350.745L435.906 359.952L443.461 380.082L458.883 407.468C458.883 407.468 456.391 410.745 455.378 410.745C454.366 410.745 453.898 412.384 455.222 413.086C456.547 413.788 458.026 414.1 458.727 414.256C459.428 414.412 460.597 415.895 462.7 415.739C464.881 415.583 466.283 413.71 465.893 411.994Z" fill="white" stroke="#141F39" stroke-miterlimit="10" stroke-linecap="round" stroke-linejoin="round"/>
<path d="M409.346 413.476C409.736 412.384 409.268 410.667 408.801 409.185C405.296 410.121 399.143 411.76 398.208 411.526C397.118 411.291 396.105 410.745 395.872 410.589C393.847 411.448 390.03 412.384 389.485 412.93C388.784 413.632 388.472 414.49 389.563 414.725C390.575 414.959 401.324 414.647 402.492 414.49C403.583 414.334 408.645 415.661 409.346 413.476Z" fill="#141F39" stroke="#141F39" stroke-miterlimit="10" stroke-linecap="round" stroke-linejoin="round"/>
<path d="M464.024 407.858C463.245 407.936 462.466 408.092 461.765 408.405C459.506 409.341 459.039 410.979 458.104 410.901C457.247 410.823 456.858 410.043 456.702 409.809C456.157 410.277 455.69 410.667 455.378 410.667C454.366 410.667 453.898 412.306 455.222 413.008C456.546 413.71 458.026 414.022 458.727 414.178C459.428 414.334 460.597 415.817 462.699 415.661C464.88 415.505 466.204 413.632 465.893 411.994C465.737 411.057 464.725 409.185 464.024 407.858Z" fill="#141F39" stroke="#141F39" stroke-miterlimit="10" stroke-linecap="round" stroke-linejoin="round"/>
<path d="M410.281 342.396L407.711 368.222C407.711 368.222 423.6 370.173 433.102 369.08C442.605 367.988 451.095 361.98 451.095 361.98C451.095 361.98 446.577 337.09 443.539 333.501C440.424 329.834 410.281 342.396 410.281 342.396Z" fill="#141F39" stroke="#141F39" stroke-miterlimit="10" stroke-linecap="round" stroke-linejoin="round"/>
<path d="M368.689 306.271L367.209 303.072L364.327 299.873C364.327 299.873 363.003 298.624 362.614 299.249C362.224 299.873 363.549 301.043 363.549 301.043L364.951 303.228L362.147 301.745L358.719 301.355C358.719 301.355 358.018 301.979 358.642 302.448C359.265 302.916 361.29 303.306 361.29 303.306L364.016 305.49L360.822 304.788C360.822 304.788 357.473 304.788 357.551 305.178C357.629 305.568 358.174 306.037 358.564 306.193C358.953 306.349 361.523 306.661 361.523 306.661L363.471 307.597L359.732 308.377C360.667 309.548 363.003 309.236 363.003 309.236C363.003 309.236 366.041 311.498 367.754 311.81C369.546 312.044 370.247 311.888 370.247 311.888L371.026 307.753L368.689 306.271Z" fill="white" stroke="#141F39" stroke-miterlimit="10" stroke-linecap="round" stroke-linejoin="round"/>
<path d="M432.713 296.986L434.894 316.336L446.11 333.579C446.11 333.579 439.956 342.006 431.389 344.659C422.821 347.311 407.555 344.034 407.555 344.034L411.216 322.656L405.218 311.966L393.535 323.748L369.624 314.307L370.636 307.753L390.887 311.264L401.791 296.206L407.01 293.319C407.01 293.319 413.319 290.276 416.824 288.169C420.329 286.062 420.251 284.736 420.251 284.736L422.821 283.02L440.502 285.204L444.162 266.556L448.758 267.025C448.758 267.025 449.225 294.021 448.758 294.645C448.368 295.113 432.713 296.986 432.713 296.986Z" fill="white" stroke="#141F39" stroke-miterlimit="10" stroke-linecap="round" stroke-linejoin="round"/>
<path d="M432.713 296.986L431.934 290.822" stroke="#141F39" stroke-miterlimit="10" stroke-linecap="round" stroke-linejoin="round"/>
<path d="M440.58 285.126L446.343 286.141" stroke="#141F39" stroke-miterlimit="10" stroke-linecap="round" stroke-linejoin="round"/>
<path d="M405.296 311.967L414.721 313.527" stroke="#141F39" stroke-miterlimit="10" stroke-linecap="round" stroke-linejoin="round"/>
<path d="M444.24 266.478C444.24 266.478 442.215 263.435 442.371 262.655C442.527 261.875 442.838 259.378 442.527 258.208C442.215 257.115 441.748 255.243 442.683 255.555C443.617 255.867 443.929 256.491 443.929 256.959C443.929 257.428 444.396 259.768 444.396 259.768L444.708 253.136C444.708 253.136 445.954 252.824 446.265 254.073C446.577 255.321 450.004 258.676 450.004 259.924C450.004 261.173 448.758 266.868 448.758 266.868L444.24 266.478Z" fill="white" stroke="#141F39" stroke-miterlimit="10" stroke-linecap="round" stroke-linejoin="round"/>
<path d="M394.86 267.493C394.86 267.493 392.757 272.018 392.835 273.657C392.99 275.217 395.405 276.934 395.95 277.792C396.495 278.65 397.118 284.346 396.34 286.062C395.639 287.779 393.224 289.183 393.224 289.183C393.224 289.183 398.209 292.148 401.792 291.446C405.375 290.744 409.191 287.311 409.191 287.311C409.191 287.311 402.649 271.628 403.038 269.755C403.427 267.883 403.038 265.074 400.935 265.074C398.832 265.074 395.405 266.634 394.86 267.493Z" fill="#141F39" stroke="#141F39" stroke-miterlimit="10" stroke-linecap="round" stroke-linejoin="round"/>
<path d="M399.689 265.698C399.689 265.698 396.963 267.258 397.118 271.394C397.274 275.529 397.274 275.061 397.819 277.792C398.365 280.523 396.573 281.927 396.807 282.629C397.118 283.331 398.832 283.8 398.832 283.8C398.832 283.8 400.545 286.062 401.402 287.779C402.259 289.495 405.063 288.169 406.699 287.467C406.699 287.467 408.568 289.573 408.724 290.588C408.879 291.602 409.035 293.319 409.035 293.319L417.681 288.169L418.693 286.999C418.693 286.999 415.578 280.835 415.578 279.274C415.578 277.714 417.837 273.032 416.279 269.599C414.721 266.166 406.854 264.918 404.206 264.918C401.558 264.918 399.689 265.698 399.689 265.698Z" fill="white" stroke="#141F39" stroke-miterlimit="10" stroke-linecap="round" stroke-linejoin="round"/>
<path d="M411.761 285.594C411.761 285.594 406.231 289.574 405.92 290.276C405.608 290.978 405.764 293.631 406.932 293.787C408.101 293.943 414.487 291.368 416.045 289.73C417.603 288.169 415.734 282.707 411.761 285.594Z" fill="white" stroke="#141F39" stroke-miterlimit="10" stroke-linecap="round" stroke-linejoin="round"/>
<path d="M397.975 269.755C397.975 269.755 397.975 271.784 400.234 274.749C402.493 277.714 406.777 278.728 407.945 280.601C409.113 282.473 410.515 286.609 409.97 288.325C409.425 290.042 408.101 291.602 408.101 291.602C408.101 291.602 413.786 290.9 416.045 289.73C418.304 288.559 421.342 284.424 421.342 284.424C421.342 284.424 418.615 280.133 418.46 276.699C418.304 273.266 419.628 268.897 416.201 265.698C412.774 262.577 402.726 262.733 399.533 263.825C396.417 264.996 395.093 264.528 395.015 265.932C394.86 267.493 397.975 269.755 397.975 269.755Z" fill="#141F39" stroke="#141F39" stroke-miterlimit="10" stroke-linecap="round" stroke-linejoin="round"/>
<path d="M400.312 278.416C400.468 278.962 400.468 279.43 400.234 279.586C400 279.664 399.611 279.352 399.455 278.806C399.299 278.26 399.299 277.792 399.533 277.636C399.767 277.48 400.078 277.87 400.312 278.416Z" fill="#141F39"/>
<path d="M398.754 276.699C398.754 276.699 399.221 275.997 400.156 276.543" stroke="#141F39" stroke-miterlimit="10" stroke-linecap="round" stroke-linejoin="round"/>
<path d="M400.701 283.956C400.701 283.956 402.103 283.488 402.726 282.239" stroke="#141F39" stroke-miterlimit="10" stroke-linecap="round" stroke-linejoin="round"/>
<path d="M164.692 299.958L161.782 297.248L71.6776 394.337L74.5869 397.047L164.692 299.958Z" fill="#141F39" stroke="#141F39" stroke-miterlimit="10" stroke-linecap="round" stroke-linejoin="round"/>
<path d="M161.754 397.068L164.663 394.358L74.5584 297.282L71.6495 299.992L161.754 397.068Z" fill="#141F39" stroke="#141F39" stroke-miterlimit="10" stroke-linecap="round" stroke-linejoin="round"/>
<path d="M166.648 279.43H162.442V412.462H166.648V279.43Z" fill="#141F39" stroke="#141F39" stroke-miterlimit="10" stroke-linecap="round" stroke-linejoin="round"/>
<path d="M75.6752 279.43H71.4692V412.462H75.6752V279.43Z" fill="#141F39" stroke="#141F39" stroke-miterlimit="10" stroke-linecap="round" stroke-linejoin="round"/>
<path d="M154.098 299.921L151.189 297.211L61.0848 394.287L63.9937 396.997L154.098 299.921Z" fill="white" stroke="#141F39" stroke-miterlimit="10" stroke-linecap="round" stroke-linejoin="round"/>
<path d="M151.191 397.033L154.101 394.323L63.9959 297.234L61.0866 299.944L151.191 397.033Z" fill="white" stroke="#141F39" stroke-miterlimit="10" stroke-linecap="round" stroke-linejoin="round"/>
<path d="M64.7704 279.43H60.5645V412.462H64.7704V279.43Z" fill="white" stroke="#141F39" stroke-miterlimit="10" stroke-linecap="round" stroke-linejoin="round"/>
<path d="M155.12 279.43H150.915V412.462H155.12V279.43Z" fill="white" stroke="#141F39" stroke-miterlimit="10" stroke-linecap="round" stroke-linejoin="round"/>
<path d="M172.49 277.246H58.0723V281.459H172.49V277.246Z" fill="white" stroke="#141F39" stroke-miterlimit="10" stroke-linecap="round" stroke-linejoin="round"/>
<path d="M172.49 277.246H149.902V281.459H172.49V277.246Z" fill="#141F39" stroke="#141F39" stroke-miterlimit="10" stroke-linecap="round" stroke-linejoin="round"/>
<path d="M122.719 154.124L130.819 155.762L147.799 168.87L160.183 173.239V179.091L146.163 179.169L132.455 172.225L132.221 194.15L107.453 193.604L100.053 159.507L108.855 153.733L122.719 154.124Z" fill="white" stroke="#141F39" stroke-miterlimit="10" stroke-linecap="round" stroke-linejoin="round"/>
<path d="M167.348 173.473L169.919 171.133L173.813 169.338C173.813 169.338 175.526 168.714 175.604 169.416C175.682 170.196 174.124 170.743 174.124 170.743L171.944 172.225L175.059 171.913L178.408 172.849C178.408 172.849 178.876 173.708 178.097 173.942C177.318 174.176 175.293 173.708 175.293 173.708L171.944 174.644L175.137 175.19C175.137 175.19 178.253 176.516 178.019 176.829C177.785 177.141 177.162 177.375 176.695 177.375C176.227 177.375 173.813 176.75 173.813 176.75L171.632 176.829L174.748 179.013C173.424 179.793 171.398 178.545 171.398 178.545C171.398 178.545 167.738 179.481 166.024 179.091C164.311 178.623 163.688 178.233 163.688 178.233L165.012 173.239L167.348 173.473Z" fill="white" stroke="#141F39" stroke-miterlimit="10" stroke-linecap="round" stroke-linejoin="round"/>
<path d="M165.946 175.97C165.946 175.97 167.193 175.814 168.361 175.112C169.607 174.41 170.23 171.679 170.23 171.679C170.23 171.679 170.776 171.445 172.1 170.977C173.502 170.431 172.255 168.87 172.255 168.87L168.595 170.275L164.389 173.239L164.077 176.595" fill="white"/>
<path d="M165.946 175.97C165.946 175.97 167.193 175.814 168.361 175.112C169.607 174.41 170.23 171.679 170.23 171.679C170.23 171.679 170.776 171.445 172.1 170.977C173.502 170.431 172.255 168.87 172.255 168.87L168.595 170.275L164.389 173.239L164.077 176.595" stroke="#141F39" stroke-miterlimit="10" stroke-linecap="round" stroke-linejoin="round"/>
<path d="M164.466 173.24H160.183V179.091H164.466V173.24Z" fill="white" stroke="#141F39" stroke-miterlimit="10" stroke-linecap="round" stroke-linejoin="round"/>
<path d="M112.438 146.477L112.204 151.549L119.837 159.351L123.031 156.776L123.732 149.832L112.438 146.477Z" fill="white" stroke="#141F39" stroke-miterlimit="10" stroke-linecap="round" stroke-linejoin="round"/>
<path d="M119.837 159.351L117.267 164.579L108.855 153.734L112.204 151.549L119.837 159.351Z" fill="white" stroke="#141F39" stroke-miterlimit="10" stroke-linecap="round" stroke-linejoin="round"/>
<path d="M119.837 159.351L126.535 164.267L124.588 156.62L122.719 154.124L122.563 155.762L119.837 159.351Z" fill="white" stroke="#141F39" stroke-miterlimit="10" stroke-linecap="round" stroke-linejoin="round"/>
<path d="M125.211 138.909C125.211 138.909 125.834 143.902 125.757 145.073C125.679 146.165 125.289 148.35 124.666 149.988C124.043 151.627 123.186 153.031 122.407 153.343C121.628 153.655 120.071 153.577 119.37 153.109C118.669 152.641 115.943 151.159 115.008 150.222C114.151 149.286 112.749 146.165 112.749 146.165C112.749 146.165 111.114 146.243 110.023 145.307C108.933 144.371 107.92 142.498 109.4 141.172C110.88 139.845 112.516 140.547 112.516 140.547C112.516 140.547 118.279 136.178 120.46 135.008C122.641 133.759 124.121 135.242 124.121 135.242L125.211 138.909Z" fill="white" stroke="#141F39" stroke-miterlimit="10" stroke-linecap="round" stroke-linejoin="round"/>
<path d="M120.616 143.512C120.616 144.214 120.304 144.683 119.915 144.683C119.525 144.683 119.214 144.136 119.214 143.512C119.214 142.81 119.525 142.342 119.915 142.342C120.304 142.342 120.616 142.888 120.616 143.512Z" fill="#141F39"/>
<path d="M124.744 142.966C124.744 143.668 124.433 144.136 124.043 144.136C123.654 144.136 123.342 143.59 123.342 142.966C123.342 142.264 123.654 141.796 124.043 141.796C124.433 141.796 124.744 142.342 124.744 142.966Z" fill="#141F39"/>
<path d="M123.186 141.484C123.186 141.484 122.408 143.98 123.109 145.229C123.732 146.399 124.433 147.101 123.965 147.413C123.498 147.726 121.551 147.648 121.551 147.648" fill="white"/>
<path d="M123.186 141.484C123.186 141.484 122.408 143.98 123.109 145.229C123.732 146.399 124.433 147.101 123.965 147.413C123.498 147.726 121.551 147.648 121.551 147.648" stroke="#141F39" stroke-miterlimit="10" stroke-linecap="round" stroke-linejoin="round"/>
<path d="M121.629 149.676C121.629 149.676 119.681 149.442 118.825 148.116L121.629 149.676Z" fill="white"/>
<path d="M121.629 149.676C121.629 149.676 119.681 149.442 118.825 148.116" stroke="#141F39" stroke-miterlimit="10" stroke-linecap="round" stroke-linejoin="round"/>
<path d="M118.046 141.718C118.046 141.718 119.37 140.703 120.694 140.859L118.046 141.718Z" fill="white"/>
<path d="M118.046 141.718C118.046 141.718 119.37 140.703 120.694 140.859" stroke="#141F39" stroke-miterlimit="10" stroke-linecap="round" stroke-linejoin="round"/>
<path d="M123.186 140.703C123.186 140.703 124.199 139.845 125.055 140.703H123.186Z" fill="white"/>
<path d="M123.186 140.703C123.186 140.703 124.199 139.845 125.055 140.703" stroke="#141F39" stroke-miterlimit="10" stroke-linecap="round" stroke-linejoin="round"/>
<path d="M113.918 140.001C113.918 140.001 113.372 142.342 114.073 142.108C114.774 141.874 118.825 138.441 118.825 138.441C118.825 138.441 118.435 139.533 119.214 139.377C119.993 139.221 122.641 135.554 122.641 135.554C122.641 135.554 124.588 137.426 124.822 137.816C125.056 138.207 125.133 138.753 125.133 138.753C125.133 138.753 125.601 136.958 125.834 135.866C126.068 134.774 125.679 133.603 124.588 132.901C123.576 132.199 122.252 131.106 122.096 130.872C121.94 130.638 117.89 128.141 116.877 128.298C115.865 128.454 115.32 128.688 115.32 128.688C115.32 128.688 112.516 128.61 111.347 130.092C110.257 131.575 108.232 134.539 108.154 135.71C108.076 136.958 109.166 141.015 109.166 141.015C109.166 141.015 110.101 140.937 110.491 141.015C110.802 141.094 112.048 142.342 112.048 142.342C112.048 142.342 113.762 140.937 113.918 140.001Z" fill="#141F39" stroke="#141F39" stroke-miterlimit="10" stroke-linecap="round" stroke-linejoin="round"/>
<path d="M132.221 194.15L133.623 205.698L143.281 232.226L144.995 264.762L145.929 267.259L146.553 270.38C146.553 270.38 150.135 274.203 151.849 274.515C153.562 274.827 156.133 274.905 156.133 275.451C156.133 275.997 155.588 277.168 155.588 277.168H135.259C135.259 277.168 134.168 275.295 134.48 273.813C134.869 272.33 134.636 270.302 134.636 270.302C134.636 270.302 134.48 268.273 134.48 266.947C134.48 265.62 134.246 260.081 134.246 260.081L131.442 235.815L121.161 216.387L115.709 238.624L102.001 264.528L101.845 268.741C101.845 268.741 104.182 273.501 104.96 274.047C105.739 274.593 108.31 274.593 108.154 275.529C107.998 276.466 107.375 277.402 106.674 277.402C105.895 277.402 99.7419 276.622 99.1967 276.622C98.6515 276.622 94.5234 273.111 93.433 272.33C92.3425 271.55 89.6943 271.004 89.5386 269.365C89.3828 267.649 90.3953 265.698 90.9405 265.308C91.4858 264.918 92.8877 262.811 92.8877 262.811L104.337 233.006L105.35 205.464L107.297 193.526L132.221 194.15Z" fill="#141F39" stroke="#141F39" stroke-miterlimit="10" stroke-linecap="round" stroke-linejoin="round"/>
<path d="M132.299 161.614L132.455 172.225L134.713 163.642" fill="white"/>
<path d="M132.299 161.614L132.455 172.225L134.713 163.642" stroke="#141F39" stroke-miterlimit="10" stroke-linecap="round" stroke-linejoin="round"/>
<path d="M297.577 172.303C294.618 172.069 291.658 172.771 289.165 174.098C285.738 175.97 281.61 176.594 278.027 175.034C275.535 173.942 273.51 172.225 272.342 170.04L270.472 166.607L274.055 125.333L148.811 114.409L137.985 239.326L179.655 242.993L183.16 241.121C185.341 239.95 186.976 237.922 188.145 235.425C189.702 231.836 189.079 227.7 187.132 224.267C185.73 221.771 185.029 218.806 185.341 215.841C186.12 207.102 194.609 200.704 204.345 201.562C214.081 202.421 221.403 210.145 220.624 218.884C220.39 221.849 219.144 224.657 217.353 226.842C214.86 229.885 213.536 233.864 214.471 237.687C215.172 240.34 216.418 242.603 218.287 244.085L221.403 246.504L263.151 250.171L266.812 208.35L269.226 205.307C270.706 203.357 273.043 202.03 275.613 201.484C279.429 200.548 283.402 201.796 286.439 204.371C288.698 206.166 291.346 207.336 294.384 207.648C303.107 208.428 310.818 201.172 311.675 191.419C312.688 181.588 306.223 173.083 297.577 172.303Z" fill="white" stroke="#141F39" stroke-miterlimit="10" stroke-linecap="round" stroke-linejoin="round"/>
<path d="M100.053 159.507C100.053 159.507 100.443 170.431 104.493 177.453C108.543 184.475 109.789 187.674 109.789 187.674L142.658 190.639L143.982 185.645L119.837 177.843C119.837 177.843 113.45 163.721 112.983 163.096C112.593 162.472 109.556 159.663 107.686 159.429" fill="white"/>
<path d="M100.053 159.507C100.053 159.507 100.443 170.431 104.493 177.453C108.543 184.475 109.789 187.674 109.789 187.674L142.658 190.639L143.982 185.645L119.837 177.843C119.837 177.843 113.45 163.721 112.983 163.096C112.593 162.472 109.556 159.663 107.686 159.429" stroke="#141F39" stroke-miterlimit="10" stroke-linecap="round" stroke-linejoin="round"/>
<path d="M139.932 184.553L138.53 189.781" stroke="#141F39" stroke-miterlimit="10" stroke-linecap="round" stroke-linejoin="round"/>
<path d="M146.241 185.879L148.811 183.539L152.706 181.744C152.706 181.744 154.419 181.12 154.497 181.822C154.575 182.602 153.017 183.149 153.017 183.149L150.836 184.631L153.952 184.319L157.301 185.255C157.301 185.255 157.768 186.114 156.989 186.348C156.21 186.582 154.185 186.114 154.185 186.114L150.836 187.05L154.03 187.596C154.03 187.596 157.145 188.922 156.911 189.235C156.678 189.547 156.055 189.781 155.587 189.781C155.12 189.781 152.706 189.157 152.706 189.157L150.525 189.235L153.64 191.419C152.316 192.199 150.291 190.951 150.291 190.951C150.291 190.951 146.63 191.887 144.917 191.497C143.203 191.029 142.58 190.639 142.58 190.639L143.904 185.645L146.241 185.879Z" fill="white" stroke="#141F39" stroke-miterlimit="10" stroke-linecap="round" stroke-linejoin="round"/>
<path d="M168.128 299.639L187.678 307.831L208.318 304.086L208.707 307.675L188.301 315.478L165.947 305.647L168.128 299.639Z" fill="white" stroke="#141F39" stroke-miterlimit="10" stroke-linecap="round" stroke-linejoin="round"/>
<path d="M291.424 332.097C294.462 332.097 297.266 333.033 299.68 334.672C302.874 336.934 306.924 337.871 310.741 336.622C313.233 335.764 315.414 334.204 316.816 332.175L318.997 328.898V286.921H277.093L273.822 284.736C271.796 283.41 270.239 281.225 269.382 278.65C268.136 274.905 269.07 270.848 271.329 267.571C272.965 265.152 273.899 262.343 273.899 259.3C273.899 250.484 265.955 243.461 256.219 243.461C246.405 243.461 238.538 250.562 238.538 259.3C238.538 262.343 239.395 265.152 241.109 267.571C243.289 270.77 244.224 274.827 242.978 278.572C242.121 281.147 240.563 283.332 238.538 284.658L235.267 286.843H193.363V328.82V370.797V412.852H235.267H277.171H319.075V370.875L316.894 367.598C315.492 365.569 313.311 364.009 310.818 363.151C307.08 361.902 303.03 362.839 299.758 365.023C297.344 366.662 294.618 367.598 291.58 367.598C282.779 367.598 275.691 359.718 275.691 349.886C275.535 339.977 282.701 332.097 291.424 332.097Z" fill="white" stroke="#141F39" stroke-miterlimit="10" stroke-linecap="round" stroke-linejoin="round"/>
<path d="M185.185 278.65C185.185 278.65 189.235 280.367 188.924 282.629C188.612 284.814 186.743 285.36 185.886 286.609C185.029 287.779 185.107 287.155 185.107 287.155L184.328 280.367C184.328 280.289 184.173 277.636 185.185 278.65Z" fill="#141F39" stroke="#141F39" stroke-miterlimit="10" stroke-linecap="round" stroke-linejoin="round"/>
<path d="M168.673 273.579C168.673 273.579 166.726 271.082 162.675 271.316C158.625 271.55 156.912 273.969 156.912 276.778C156.912 279.665 157.379 278.728 151.304 280.523C145.306 282.239 145.306 284.58 145.151 285.751C145.073 286.921 143.593 286.921 141.724 289.028C139.854 291.134 139.776 297.532 146.553 299.951C153.329 302.37 158.937 298.468 160.183 293.397C161.351 288.325 160.183 287.077 161.663 285.594C163.221 284.19 161.663 282.005 162.286 279.353C162.909 276.7 166.57 275.607 167.738 275.373C168.984 275.217 168.907 274.593 168.673 273.579Z" fill="#141F39" stroke="#141F39" stroke-miterlimit="10" stroke-linecap="round" stroke-linejoin="round"/>
<path d="M164.934 291.134C164.934 291.134 153.017 297.766 150.135 301.668C147.254 305.569 145.852 320.94 145.852 320.94L160.183 330.146C160.183 330.146 169.919 320.237 170.698 317.272C171.477 314.385 169.685 298 169.685 298L164.934 291.134Z" fill="white" stroke="#141F39" stroke-miterlimit="10" stroke-linecap="round" stroke-linejoin="round"/>
<path d="M182.537 276.7C175.994 271.16 166.258 274.983 165.48 278.728C164.701 282.473 164.934 285.594 164.934 285.594L165.48 290.51L164.934 291.056L162.442 292.226L168.751 304.32L172.489 295.503C172.489 295.503 177.007 298.156 177.708 298.156C178.409 298.156 181.992 294.021 181.992 294.021C181.992 294.021 183.783 293.865 184.173 293.787C184.562 293.709 183.861 289.964 183.861 289.964C183.861 289.964 185.808 285.048 185.886 282.005C186.12 278.962 182.537 276.7 182.537 276.7Z" fill="white" stroke="#141F39" stroke-miterlimit="10" stroke-linecap="round" stroke-linejoin="round"/>
<path d="M184.328 286.843C184.328 286.843 183.861 285.282 182.459 285.75" stroke="#141F39" stroke-miterlimit="10" stroke-linecap="round" stroke-linejoin="round"/>
<path d="M181.602 288.559C181.368 289.106 181.368 289.73 181.68 289.886C181.992 290.042 182.381 289.652 182.693 289.106C182.926 288.559 182.926 287.935 182.615 287.779C182.303 287.545 181.914 287.935 181.602 288.559Z" fill="#141F39"/>
<path d="M180.278 293.865C180.278 293.865 178.487 293.163 178.175 291.29" stroke="#141F39" stroke-miterlimit="10" stroke-linecap="round" stroke-linejoin="round"/>
<path d="M186.276 280.913C186.276 280.913 188.69 278.806 183.394 275.529C178.175 272.252 171.555 271.706 167.894 274.203C164.156 276.7 163.61 280.913 164.389 283.878C165.168 286.843 164.311 288.794 165.791 289.808C167.349 290.822 171.555 288.716 172.1 286.765C172.645 284.814 172.723 283.8 174.359 284.034C175.995 284.268 176.54 286.765 176.54 286.765C176.54 286.765 180.356 283.566 182.615 283.176C185.107 282.708 186.276 280.913 186.276 280.913Z" fill="#141F39" stroke="#141F39" stroke-miterlimit="10" stroke-linecap="round" stroke-linejoin="round"/>
<path d="M145.774 320.861C145.774 320.861 131.443 332.019 130.119 338.729C128.794 345.439 123.264 376.883 123.264 376.883C123.264 376.883 112.282 404.191 112.282 404.971C112.282 405.752 116.878 406.688 116.878 406.688C116.878 406.688 133.39 382.656 133.935 381.876C134.48 381.096 144.684 355.348 144.684 355.348L154.575 377.273L162.286 407.546L167.271 406.61L167.816 372.123L158.002 335.92L160.183 330.068L145.774 320.861Z" fill="#141F39" stroke="#141F39" stroke-miterlimit="10" stroke-linecap="round" stroke-linejoin="round"/>
<path d="M118.747 404.815C118.747 404.815 120.694 410.199 121.161 410.667C121.629 411.135 124.355 413.242 124.199 414.022C124.043 414.803 116.877 414.49 115.164 414.334C113.45 414.178 109.79 410.043 109.322 408.795C108.855 407.546 111.581 403.567 112.983 402.631C114.385 401.694 118.747 404.815 118.747 404.815Z" fill="white" stroke="#141F39" stroke-miterlimit="10" stroke-linecap="round" stroke-linejoin="round"/>
<path d="M167.505 404.971L171.477 408.561C171.477 408.561 178.253 411.213 178.253 411.76C178.253 412.306 176.929 413.32 172.879 413.944C168.829 414.49 162.909 413.788 161.352 413.164C159.794 412.618 162.286 407.624 162.286 407.624L167.505 404.971Z" fill="white" stroke="#141F39" stroke-miterlimit="10" stroke-linecap="round" stroke-linejoin="round"/>
<path d="M156.211 307.363C156.678 309.47 157.146 309.08 159.015 310.25C162.676 312.591 185.263 320.003 185.263 320.003L208.474 310.328L213.069 309.392C213.069 309.392 214.16 309.626 214.627 309.782C215.094 309.938 215.795 309.626 216.263 309.314C216.73 308.924 214.237 307.909 214.237 307.909C214.237 307.909 217.197 308.065 218.132 307.753C219.067 307.519 219.222 306.583 218.755 306.583C218.288 306.583 214.393 306.115 214.393 306.115C214.393 306.115 219.378 304.71 219.612 304.32C219.845 303.93 219.144 303.15 218.443 303.15C217.742 303.15 213.225 303.852 213.225 303.852L214.627 302.76C214.627 302.76 217.431 301.901 218.288 301.199C219.144 300.497 218.132 300.029 218.132 300.029L215.328 300.419L210.966 302.057L211.434 300.887C211.434 300.887 212.602 299.951 212.758 298.78C212.913 297.61 211.589 298.78 211.589 298.78L207.695 302.448L206.604 306.271L185.808 311.967L164.701 299.249L164 299.015" fill="white"/>
<path d="M156.211 307.363C156.678 309.47 157.146 309.08 159.015 310.25C162.676 312.591 185.263 320.003 185.263 320.003L208.474 310.328L213.069 309.392C213.069 309.392 214.16 309.626 214.627 309.782C215.094 309.938 215.795 309.626 216.263 309.314C216.73 308.924 214.237 307.909 214.237 307.909C214.237 307.909 217.197 308.065 218.132 307.753C219.067 307.519 219.222 306.583 218.755 306.583C218.288 306.583 214.393 306.115 214.393 306.115C214.393 306.115 219.378 304.71 219.612 304.32C219.845 303.93 219.144 303.15 218.443 303.15C217.742 303.15 213.225 303.852 213.225 303.852L214.627 302.76C214.627 302.76 217.431 301.901 218.288 301.199C219.144 300.497 218.132 300.029 218.132 300.029L215.328 300.419L210.966 302.057L211.434 300.887C211.434 300.887 212.602 299.951 212.758 298.78C212.913 297.61 211.589 298.78 211.589 298.78L207.695 302.448L206.604 306.271L185.808 311.967L164.701 299.249L164 299.015" stroke="#141F39" stroke-miterlimit="10" stroke-linecap="round" stroke-linejoin="round"/>
<path d="M154.653 310.094L162.13 314.697L170.854 302.526C170.854 302.526 163.221 297.376 162.364 297.298C161.507 297.142 158.703 296.596 157.067 299.171" fill="white"/>
<path d="M154.653 310.094L162.13 314.697L170.854 302.526C170.854 302.526 163.221 297.376 162.364 297.298C161.507 297.142 158.703 296.596 157.067 299.171" stroke="#141F39" stroke-miterlimit="10" stroke-linecap="round" stroke-linejoin="round"/>
</g>
<defs>
<linearGradient id="paint0_linear_2836_874" x1="-86" y1="-66" x2="422" y2="456" gradientUnits="userSpaceOnUse">
<stop stop-color="#4265CF"/>
<stop offset="0.984375" stop-color="#6484E5"/>
</linearGradient>
<clipPath id="clip0_2836_874">
<rect width="534" height="355.166" fill="white" transform="translate(15 60.9626)"/>
</clipPath>
</defs>
</svg>
