<svg xmlns="http://www.w3.org/2000/svg" width="72" height="53" viewBox="0 0 72 53" fill="none">
  <path d="M25.0063 52.6848H23.9753L22.2803 46.4407H22.257L20.5387 52.6848H19.5136L17.6089 45.2583H18.6166L20.0728 51.4383H20.0961L21.7619 45.2583H22.8337L24.4763 51.4383H24.4996L26.0082 45.2583H26.9984L25.0063 52.6848Z" fill="white"/>
  <path d="M27.9294 45.2583H28.9196V48.4503H32.8339V45.2583H33.8241V52.6848H32.8339V49.2832H28.9196V52.6848H27.9294V45.2583Z" fill="white"/>
  <path d="M35.4846 45.2583H36.4748V52.6848H35.4846V45.2583Z" fill="white"/>
  <path d="M37.5518 51.8519L42.1708 46.0854H37.9071V45.2583H43.3357V46.0912L38.7284 51.8577H43.4639V52.6907H37.5518V51.8519Z" fill="white"/>
  <path d="M44.4958 45.2583H47.7519C49.2372 45.2583 50.0294 46.0679 50.0294 47.4542C50.0294 48.8405 49.2372 49.6618 47.7519 49.6502H45.4861V52.6907H44.4958V45.2583ZM45.4861 48.8114H47.4199C48.544 48.823 49.045 48.3338 49.045 47.4484C49.045 46.563 48.5499 46.0854 47.4199 46.0854H45.4802L45.4861 48.8114Z" fill="white"/>
  <path d="M0 0.0410156L1.25232 2.6505H15.5812L13.9794 0.0410156H0Z" fill="#EE3332"/>
  <path d="M2.604 5.38181L3.86797 7.86314L18.5347 7.78742L17.0668 5.37598H2.604V5.38181Z" fill="#EE3332"/>
  <path d="M5.17285 10.7349L6.51837 13.2861H21.3889L20.09 10.7349H5.17285Z" fill="#EE3332"/>
  <path d="M7.79395 15.7441L9.06956 17.9401H24.1789L22.9033 15.7441H7.79395Z" fill="#EE3332"/>
  <path d="M10.4209 20.9165L11.6266 23.1474H27.0564L25.7574 20.9165H10.4209Z" fill="#EE3332"/>
  <path d="M13.2341 26.1299L14.3408 28.3258H71.9999V26.1299H60.2805V27.2249H49.697V26.1299H37.2437V27.2249H30.8831C30.0793 27.2249 29.8812 26.1299 27.9358 26.1299H13.2341Z" fill="#EE3332"/>
  <path d="M15.3308 31.3081L16.4492 33.5739H71.9997V31.3081H15.6395" fill="#EE3332"/>
  <path d="M18.1033 36.4453C18.1033 36.4453 18.1906 38.6412 23.8173 38.6412H71.9937V36.4453H18.1033Z" fill="#EE3332"/>
  <path d="M71.9942 20.8989H59.8845V23.1298H71.9942V20.8989Z" fill="#EE3332"/>
  <path d="M49.7667 20.8989H37.2261V23.1298H49.7667V20.8989Z" fill="#EE3332"/>
  <path d="M49.7667 15.6567H37.2261V17.8876H49.7667V15.6567Z" fill="#EE3332"/>
  <path d="M49.7667 10.9854H37.2261V13.2162H49.7667V10.9854Z" fill="#EE3332"/>
  <path d="M49.7667 5.53369H37.2261V7.76457H49.7667V5.53369Z" fill="#EE3332"/>
  <path d="M49.7667 0.221191H37.2261V2.45207H49.7667V0.221191Z" fill="#EE3332"/>
  <path d="M71.9942 15.7324H59.8845V17.9284H71.9942V15.7324Z" fill="#EE3332"/>
  <path d="M71.9417 10.7876H59.832V13.3388H71.9417V10.7876Z" fill="#EE3332"/>
  <path d="M71.9417 5.41699H59.832V7.75271H71.9417V5.41699Z" fill="#EE3332"/>
  <path d="M71.9417 0H59.832V2.55124H71.9417V0Z" fill="#EE3332"/>
  <path d="M54.3802 45.0776C56.745 45.0776 57.9391 46.9416 57.9391 48.9686C57.9391 50.9956 56.745 52.8595 54.3802 52.8595C52.0154 52.8595 50.8213 50.9956 50.8213 48.9686C50.8213 46.9416 52.0154 45.0776 54.3802 45.0776ZM54.3802 52.0265C56.1917 52.0265 56.9489 50.4655 56.9489 48.9686C56.9489 47.4716 56.1917 45.9106 54.3802 45.9106C52.5687 45.9106 51.8115 47.4716 51.8115 48.9686C51.8115 50.4655 52.5687 52.0265 54.3802 52.0265Z" fill="white"/>
  <path d="M62.2845 45.0776C64.6493 45.0776 65.8434 46.9416 65.8434 48.9686C65.8434 50.9956 64.6493 52.8595 62.2845 52.8595C59.9197 52.8595 58.7256 50.9956 58.7256 48.9686C58.7256 46.9416 59.9255 45.0776 62.2845 45.0776ZM62.2845 52.0265C64.096 52.0265 64.8532 50.4655 64.8532 48.9686C64.8532 47.4716 64.096 45.9106 62.2845 45.9106C60.473 45.9106 59.7158 47.4716 59.7158 48.9686C59.7158 50.4655 60.4788 52.0265 62.2845 52.0265Z" fill="white"/>
  <path d="M67.0486 45.2583H68.0388V51.8577H71.9705V52.6907H67.0486V45.2583Z" fill="white"/>
</svg>